<svg width="83" height="25" viewBox="0 0 83 25" fill="none" xmlns="http://www.w3.org/2000/svg">
<path d="M21.1879 8.77476H25.1417C25.7065 8.77476 26.2242 8.89243 26.6949 9.12777C27.175 9.36312 27.5516 9.68318 27.8246 10.088C28.0976 10.4928 28.2341 10.9352 28.2341 11.4153C28.2341 11.9236 28.107 12.3661 27.8528 12.7426C27.6081 13.1098 27.2833 13.3922 26.8785 13.5899V13.7028C27.4057 13.8911 27.8246 14.1923 28.1352 14.6065C28.4459 15.0113 28.6012 15.5008 28.6012 16.0751C28.6012 16.6305 28.4506 17.1247 28.1493 17.5577C27.8575 17.9814 27.4574 18.3108 26.9491 18.5462C26.4502 18.7721 25.8948 18.8851 25.2829 18.8851H21.1879V8.77476ZM25.0005 12.898C25.4147 12.898 25.7441 12.785 25.9889 12.5591C26.2431 12.3237 26.3702 12.0319 26.3702 11.6836C26.3702 11.3447 26.2478 11.0623 26.003 10.8364C25.7677 10.601 25.4523 10.4833 25.0569 10.4833H23.0942V12.898H25.0005ZM25.2123 17.1482C25.6735 17.1482 26.0313 17.0306 26.2854 16.7952C26.549 16.5505 26.6808 16.2351 26.6808 15.8492C26.6808 15.4632 26.549 15.1478 26.2854 14.9031C26.0218 14.6583 25.6453 14.5359 25.1558 14.5359H23.0942V17.1482H25.2123ZM30.8952 8.77476H32.8015V18.8851H30.8952V8.77476ZM35.6659 8.77476H37.5722V17.0776H41.8507V18.8851H35.6659V8.77476ZM44.008 8.77476H45.9143V17.0776H50.1928V18.8851H44.008V8.77476ZM56.2245 8.77476H59.7829C60.423 8.77476 61.0067 8.91126 61.5338 9.18426C62.061 9.44784 62.4752 9.82439 62.7764 10.3139C63.0777 10.794 63.2283 11.3447 63.2283 11.966C63.2283 12.5873 63.0777 13.1427 62.7764 13.6322C62.4752 14.1217 62.061 14.503 61.5338 14.776C61.0067 15.0396 60.423 15.1714 59.7829 15.1714H58.1308V18.8851H56.2245V8.77476ZM59.8394 13.3639C60.3101 13.3639 60.6772 13.2274 60.9408 12.9544C61.2138 12.6814 61.3503 12.352 61.3503 11.966C61.3503 11.58 61.2138 11.2553 60.9408 10.9917C60.6772 10.7187 60.3101 10.5822 59.8394 10.5822H58.1308V13.3639H59.8394ZM67.2532 8.77476H69.4419L73.2403 18.8851H71.1364L70.2891 16.4705H66.4201L65.5729 18.8851H63.4689L67.2532 8.77476ZM69.6678 14.7195L68.7782 12.1778L68.4111 10.9634H68.2981L67.931 12.1778L67.0273 14.7195H69.6678ZM76.4276 14.1829L73.0245 8.77476H75.2979L77.3172 12.1213H77.4301L79.3788 8.77476H81.6804L78.3339 14.1829V18.8851H76.4276V14.1829Z" fill="#053F7C"/>
<path d="M13.5185 1.90795C13.3705 1.99045 13.1957 1.99045 13.0476 1.90795L10.5749 0.53125L8.10229 1.90795C7.95411 1.99045 7.77887 1.99045 7.63078 1.90795L5.15815 0.53125L2.68561 1.90795C2.53743 1.99045 2.36274 1.99045 2.21469 1.90795L0.26123 0.819935V23.8539L2.2146 22.7659C2.36261 22.6834 2.53768 22.6834 2.68586 22.7659L5.15828 24.1426L7.63082 22.7659C7.70486 22.7247 7.78568 22.704 7.86657 22.704C7.94747 22.704 8.02829 22.7246 8.10233 22.7659L10.575 24.1426L13.0476 22.7659C13.1958 22.6834 13.3705 22.6834 13.5185 22.7659L15.4719 23.8539V0.819935L13.5185 1.90795ZM9.7333 18.4441H4.61699C4.33053 18.4441 4.09845 18.191 4.09845 17.8787C4.09845 17.5664 4.33057 17.3132 4.61699 17.3132H9.7333C10.0198 17.3132 10.2518 17.5664 10.2518 17.8787C10.2518 18.191 10.0198 18.4441 9.7333 18.4441ZM9.7333 15.2774H4.61699C4.33053 15.2774 4.09845 15.0242 4.09845 14.7119C4.09845 14.3996 4.33057 14.1465 4.61699 14.1465H9.7333C10.0198 14.1465 10.2518 14.3996 10.2518 14.7119C10.2518 15.0242 10.0198 15.2774 9.7333 15.2774ZM9.7333 12.1107H4.61699C4.33053 12.1107 4.09845 11.8575 4.09845 11.5452C4.09845 11.2329 4.33057 10.9798 4.61699 10.9798H9.7333C10.0198 10.9798 10.2518 11.2329 10.2518 11.5452C10.2518 11.8575 10.0198 12.1107 9.7333 12.1107ZM11.2544 7.05909H4.61699C4.33053 7.05909 4.09845 6.80592 4.09845 6.49362C4.09845 6.18132 4.33057 5.92815 4.61699 5.92815H11.2544C11.5408 5.92815 11.7729 6.18132 11.7729 6.49362C11.7729 6.80592 11.5408 7.05909 11.2544 7.05909Z" fill="#043F7C"/>
</svg>
