<svg width="92" height="23" viewBox="0 0 92 23" fill="none" xmlns="http://www.w3.org/2000/svg">
<path d="M20.6051 18.4794C20.5015 18.4794 20.4168 18.4417 20.3509 18.3664C20.2944 18.2911 20.2756 18.2017 20.2944 18.0981L22.2431 8.97624C22.2619 8.87269 22.3137 8.78326 22.3984 8.70795C22.4925 8.63264 22.5914 8.59499 22.6949 8.59499H27.1005C27.9572 8.59499 28.6726 8.70795 29.2469 8.93388C29.8305 9.1504 30.2494 9.47988 30.5036 9.92232C30.7578 10.3554 30.8142 10.9013 30.673 11.5603C30.6071 11.8615 30.4848 12.1345 30.3059 12.3793C30.127 12.6146 29.9341 12.8123 29.727 12.9724C29.5199 13.1324 29.3316 13.2501 29.1621 13.3254C29.4916 13.476 29.7505 13.7396 29.9388 14.1161C30.127 14.4833 30.1694 14.9022 30.0658 15.3729C29.9152 16.0789 29.6611 16.6625 29.3033 17.1238C28.9456 17.5757 28.4702 17.9145 27.8772 18.1405C27.2841 18.3664 26.564 18.4794 25.7167 18.4794H20.6051ZM24.2623 16.0506H25.5755C25.8109 16.0506 25.9944 15.9753 26.1262 15.8247C26.258 15.6647 26.338 15.5093 26.3663 15.3587C26.4133 15.1893 26.3945 15.034 26.3098 14.8928C26.2345 14.7421 26.0886 14.6668 25.872 14.6668H24.5588L24.2623 16.0506ZM25.0531 12.3087H26.2392C26.4463 12.3087 26.6063 12.2428 26.7193 12.111C26.8417 11.9698 26.9217 11.8239 26.9593 11.6733C26.9876 11.5226 26.9734 11.3767 26.917 11.2355C26.8605 11.0943 26.7287 11.0237 26.5216 11.0237H25.3355L25.0531 12.3087ZM31.5259 18.4794C31.4223 18.4794 31.3376 18.4417 31.2717 18.3664C31.2152 18.2911 31.1964 18.2017 31.2152 18.0981L33.1639 8.97624C33.1827 8.87269 33.2345 8.78326 33.3192 8.70795C33.4133 8.63264 33.5122 8.59499 33.6157 8.59499H36.4963C36.5999 8.59499 36.6799 8.63264 36.7364 8.70795C36.8023 8.78326 36.8258 8.87269 36.807 8.97624L34.8583 18.0981C34.8395 18.2017 34.783 18.2911 34.6889 18.3664C34.6042 18.4417 34.51 18.4794 34.4065 18.4794H31.5259ZM37.2756 18.4794C37.172 18.4794 37.0873 18.4417 37.0214 18.3664C36.9649 18.2911 36.9461 18.2017 36.9649 18.0981L38.9136 8.97624C38.9324 8.87269 38.9842 8.78326 39.0689 8.70795C39.163 8.63264 39.2619 8.59499 39.3654 8.59499H42.1895C42.2931 8.59499 42.3731 8.63264 42.4296 8.70795C42.4955 8.78326 42.519 8.87269 42.5002 8.97624L41.0881 15.5847H44.9995C45.1031 15.5847 45.1831 15.6223 45.2396 15.6976C45.2961 15.7729 45.3149 15.8624 45.2961 15.9659L44.8442 18.0981C44.8254 18.2017 44.7689 18.2911 44.6748 18.3664C44.59 18.4417 44.4959 18.4794 44.3924 18.4794H37.2756ZM46.6382 18.4794C46.5346 18.4794 46.4499 18.4417 46.384 18.3664C46.3275 18.2911 46.3087 18.2017 46.3275 18.0981L48.2762 8.97624C48.295 8.87269 48.3468 8.78326 48.4315 8.70795C48.5256 8.63264 48.6245 8.59499 48.728 8.59499H51.5521C51.6557 8.59499 51.7357 8.63264 51.7922 8.70795C51.8581 8.78326 51.8816 8.87269 51.8628 8.97624L50.4507 15.5847H54.3621C54.4657 15.5847 54.5457 15.6223 54.6022 15.6976C54.6586 15.7729 54.6775 15.8624 54.6586 15.9659L54.2068 18.0981C54.188 18.2017 54.1315 18.2911 54.0373 18.3664C53.9526 18.4417 53.8585 18.4794 53.7549 18.4794H46.6382ZM59.227 18.4794C59.1234 18.4794 59.0387 18.4417 58.9728 18.3664C58.9163 18.2911 58.8975 18.2017 58.9163 18.0981L60.865 8.97624C60.8838 8.87269 60.9356 8.78326 61.0203 8.70795C61.1144 8.63264 61.2133 8.59499 61.3168 8.59499H65.3129C65.9154 8.59499 66.4708 8.66559 66.9792 8.8068C67.4969 8.948 67.9346 9.16452 68.2924 9.45634C68.6595 9.73875 68.9184 10.0965 69.069 10.5295C69.2196 10.9625 69.2337 11.4709 69.1114 12.0545C68.8666 13.2218 68.363 14.0738 67.6005 14.6103C66.838 15.1375 65.7836 15.4011 64.4375 15.4011H63.1666L62.5877 18.0981C62.5688 18.2017 62.5124 18.2911 62.4182 18.3664C62.3335 18.4417 62.2394 18.4794 62.1358 18.4794H59.227ZM63.6467 12.7888H64.6351C64.7858 12.7888 64.9411 12.7323 65.1011 12.6193C65.2706 12.497 65.3882 12.2993 65.4541 12.0263C65.4824 11.9039 65.4871 11.7815 65.4683 11.6591C65.4588 11.5368 65.4165 11.4332 65.3412 11.3485C65.2659 11.2638 65.1435 11.2214 64.974 11.2214H63.9856L63.6467 12.7888ZM68.9148 18.4794C68.8112 18.4794 68.7359 18.437 68.6888 18.3523C68.6418 18.2581 68.6465 18.164 68.703 18.0699L73.7581 9.06097C73.8146 8.95742 73.904 8.85387 74.0264 8.75032C74.1488 8.64676 74.3041 8.59499 74.4924 8.59499H77.6271C77.8154 8.59499 77.9472 8.64676 78.0225 8.75032C78.1072 8.85387 78.1543 8.95742 78.1637 9.06097L79.4063 18.0699C79.4252 18.1923 79.3922 18.2911 79.3075 18.3664C79.2228 18.4417 79.1286 18.4794 79.0251 18.4794H76.4834C76.3045 18.4794 76.1821 18.4417 76.1163 18.3664C76.0598 18.2817 76.0221 18.2017 76.0033 18.1264L75.8621 17.1944H72.8262L72.2896 18.1264C72.2425 18.2017 72.1719 18.2817 72.0778 18.3664C71.9931 18.4417 71.8566 18.4794 71.6683 18.4794H68.9148ZM74.1253 14.4409H75.7209L75.4808 11.8145L74.1253 14.4409ZM83.5259 18.4794C83.4223 18.4794 83.3376 18.4417 83.2717 18.3664C83.2152 18.2911 83.1964 18.2017 83.2152 18.0981L83.8083 15.3164L81.9726 9.03273C81.935 8.91976 81.9538 8.82092 82.0291 8.73619C82.1138 8.64206 82.2174 8.59499 82.3398 8.59499H84.8532C85.0415 8.59499 85.1733 8.64206 85.2486 8.73619C85.3239 8.83033 85.3663 8.90093 85.3757 8.948L86.1806 11.7862L88.1998 8.948C88.228 8.90093 88.2986 8.83033 88.4116 8.73619C88.5246 8.64206 88.6752 8.59499 88.8635 8.59499H91.6593C91.7911 8.59499 91.8711 8.64676 91.8994 8.75032C91.937 8.85387 91.9229 8.948 91.857 9.03273L87.3384 15.3164L86.7454 18.0981C86.7265 18.2017 86.6701 18.2911 86.5759 18.3664C86.4912 18.4417 86.3971 18.4794 86.2935 18.4794H83.5259Z" fill="#DDDFE1"/>
<path d="M13.8253 2.03489C13.6772 2.11054 13.5024 2.11054 13.3543 2.03489L10.8817 0.772461L8.40905 2.03489C8.26087 2.11054 8.08563 2.11054 7.93754 2.03489L5.46491 0.772461L2.99237 2.03489C2.84419 2.11054 2.6695 2.11054 2.52145 2.03489L0.567993 1.03718V22.1592L2.52136 21.1616C2.66937 21.0859 2.84445 21.0859 2.99262 21.1616L5.46504 22.424L7.93758 21.1615C8.01163 21.1237 8.09244 21.1048 8.17334 21.1048C8.25423 21.1048 8.33505 21.1237 8.40909 21.1615L10.8818 22.424L13.3544 21.1615C13.5026 21.0859 13.6773 21.0859 13.8253 21.1615L15.7787 22.1592V1.03718L13.8253 2.03489ZM10.0401 17.1985H4.92375C4.63729 17.1985 4.40521 16.9663 4.40521 16.68C4.40521 16.3936 4.63733 16.1614 4.92375 16.1614H10.0401C10.3265 16.1614 10.5586 16.3936 10.5586 16.68C10.5586 16.9663 10.3265 17.1985 10.0401 17.1985ZM10.0401 14.2946H4.92375C4.63729 14.2946 4.40521 14.0625 4.40521 13.7761C4.40521 13.4897 4.63733 13.2576 4.92375 13.2576H10.0401C10.3265 13.2576 10.5586 13.4897 10.5586 13.7761C10.5586 14.0625 10.3265 14.2946 10.0401 14.2946ZM10.0401 11.3908H4.92375C4.63729 11.3908 4.40521 11.1586 4.40521 10.8723C4.40521 10.5859 4.63733 10.3537 4.92375 10.3537H10.0401C10.3265 10.3537 10.5586 10.5859 10.5586 10.8723C10.5586 11.1586 10.3265 11.3908 10.0401 11.3908ZM11.5611 6.75847H4.92375C4.63729 6.75847 4.40521 6.52631 4.40521 6.23993C4.40521 5.95356 4.63733 5.72139 4.92375 5.72139H11.5611C11.8476 5.72139 12.0797 5.95356 12.0797 6.23993C12.0797 6.52631 11.8476 6.75847 11.5611 6.75847Z" fill="#DDDFE1"/>
</svg>
