<svg width="99" height="620" viewBox="0 0 99 620" fill="none" xmlns="http://www.w3.org/2000/svg">
<path d="M77.2948 525.323C77.2948 530.748 76.2925 535.258 74.2878 538.855C72.2831 542.393 69.4824 545.075 65.8857 546.903C62.2891 548.731 58.1028 549.733 53.3269 549.91C50.9095 549.969 48.3151 549.999 45.5439 549.999C42.7727 549.999 40.1195 549.969 37.5841 549.91C32.8082 549.733 28.6219 548.731 25.0253 546.903C21.4286 545.075 18.6279 542.393 16.6232 538.855C14.6185 535.258 13.6162 530.748 13.6162 525.323C13.6162 521.255 14.1763 517.688 15.2966 514.622C16.4168 511.556 17.9204 509.02 19.8071 507.016C21.6939 504.952 23.8165 503.389 26.175 502.328C28.4745 501.267 30.8625 500.677 33.3389 500.559C33.8695 500.5 34.3117 500.677 34.6655 501.09C35.0193 501.444 35.1962 501.886 35.1962 502.417V507.281C35.1962 507.812 35.0487 508.283 34.7539 508.696C34.4591 509.05 33.9285 509.315 33.162 509.492C28.563 510.494 25.4085 512.381 23.6986 515.152C21.9887 517.865 21.1338 521.284 21.1338 525.412C21.1338 530.129 22.4899 533.873 25.2021 536.644C27.8554 539.415 32.1301 540.919 38.0263 541.154C42.8612 541.331 47.814 541.331 52.8847 541.154C58.7809 540.919 63.0851 539.415 65.7973 536.644C68.4506 533.873 69.7772 530.129 69.7772 525.412C69.7772 521.284 68.9223 517.865 67.2124 515.152C65.5025 512.381 62.348 510.494 57.749 509.492C56.9825 509.315 56.4519 509.05 56.1571 508.696C55.8622 508.283 55.7148 507.812 55.7148 507.281V502.417C55.7148 501.886 55.8917 501.444 56.2455 501.09C56.5993 500.677 57.0415 500.5 57.5721 500.559C60.0485 500.677 62.466 501.267 64.8244 502.328C67.1239 503.389 69.2171 504.952 71.1039 507.016C72.9906 509.02 74.4942 511.556 75.6144 514.622C76.7347 517.688 77.2948 521.255 77.2948 525.323ZM76.4104 487.734C76.4104 488.323 76.2335 488.825 75.8798 489.237C75.467 489.591 74.9659 489.768 74.3762 489.768H15.6503C15.0607 489.768 14.589 489.591 14.2353 489.237C13.8225 488.825 13.6162 488.323 13.6162 487.734V483.577C13.6162 482.928 13.8225 482.427 14.2353 482.073C14.589 481.72 15.0607 481.543 15.6503 481.543H74.3762C74.9659 481.543 75.467 481.72 75.8798 482.073C76.2335 482.427 76.4104 482.928 76.4104 483.577V487.734ZM76.4104 465.452C76.4104 466.042 76.2335 466.543 75.8798 466.956C75.467 467.31 74.9659 467.487 74.3762 467.487H32.4544C31.8648 467.487 31.3931 467.31 31.0394 466.956C30.6266 466.543 30.4203 466.042 30.4203 465.452V461.207C30.4203 460.618 30.6266 460.146 31.0394 459.792C31.3931 459.438 31.8648 459.261 32.4544 459.261H74.3762C74.9659 459.261 75.467 459.438 75.8798 459.792C76.2335 460.146 76.4104 460.618 76.4104 461.207V465.452ZM21.8413 466.16C21.8413 466.75 21.6644 467.251 21.3107 467.663C20.8979 468.017 20.3968 468.194 19.8071 468.194H15.0312C14.4416 468.194 13.9699 468.017 13.6162 467.663C13.2034 467.251 12.9971 466.75 12.9971 466.16V460.588C12.9971 459.998 13.2034 459.527 13.6162 459.173C13.9699 458.76 14.4416 458.554 15.0312 458.554H19.8071C20.3968 458.554 20.8979 458.76 21.3107 459.173C21.6644 459.527 21.8413 459.998 21.8413 460.588V466.16ZM77.2948 427.321C77.2948 431.508 76.4989 435.134 74.9069 438.2C73.256 441.207 70.927 443.536 67.9199 445.187C64.8539 446.838 61.1983 447.722 56.953 447.84C56.0686 447.899 54.8894 447.928 53.4153 447.928C51.9413 447.928 50.7621 447.899 49.8776 447.84C45.6324 447.722 42.0062 446.838 38.9992 445.187C35.9332 443.536 33.6042 441.207 32.0122 438.2C30.3613 435.134 29.5358 431.508 29.5358 427.321C29.5358 423.901 30.0075 420.983 30.9509 418.565C31.8943 416.089 33.103 414.055 34.5771 412.463C36.0511 410.871 37.6431 409.692 39.353 408.925C41.0628 408.1 42.6843 407.657 44.2173 407.599C44.8069 407.54 45.2786 407.716 45.6324 408.129C45.9862 408.542 46.163 409.043 46.163 409.633V413.878C46.163 414.468 46.0451 414.91 45.8093 415.205C45.5145 415.499 45.0428 415.794 44.3942 416.089C41.5051 417.15 39.4709 418.595 38.2916 420.423C37.1124 422.251 36.5228 424.521 36.5228 427.233C36.5228 430.77 37.6136 433.66 39.7952 435.9C41.9768 438.082 45.485 439.261 50.3198 439.438C52.4425 439.497 54.5061 439.497 56.5108 439.438C61.4047 439.261 64.9424 438.082 67.1239 435.9C69.2466 433.66 70.3079 430.77 70.3079 427.233C70.3079 424.521 69.7183 422.251 68.539 420.423C67.3598 418.595 65.3256 417.15 62.4365 416.089C61.7879 415.794 61.3457 415.499 61.1098 415.205C60.815 414.91 60.6676 414.468 60.6676 413.878V409.633C60.6676 409.043 60.8445 408.542 61.1983 408.129C61.5521 407.716 62.0237 407.54 62.6134 407.599C63.8516 407.657 65.1192 407.923 66.4164 408.395C67.7136 408.866 69.0402 409.633 70.3963 410.694C71.6935 411.696 72.8727 412.964 73.934 414.497C74.9364 416.03 75.7618 417.887 76.4104 420.069C77 422.192 77.2948 424.609 77.2948 427.321ZM76.4104 394.973C76.4104 395.562 76.2335 396.063 75.8798 396.476C75.467 396.83 74.9659 397.007 74.3762 397.007H15.6503C15.0607 397.007 14.589 396.83 14.2353 396.476C13.8225 396.063 13.6162 395.562 13.6162 394.973V390.816C13.6162 390.226 13.8225 389.755 14.2353 389.401C14.589 388.988 15.0607 388.782 15.6503 388.782H46.4284L31.9238 371.358C31.3342 370.651 30.9509 370.12 30.774 369.767C30.5382 369.354 30.4203 368.705 30.4203 367.821V363.133C30.4203 362.603 30.5971 362.16 30.9509 361.807C31.3047 361.453 31.7469 361.276 32.2775 361.276C32.5134 361.276 32.7787 361.364 33.0735 361.541C33.3683 361.659 33.6631 361.925 33.958 362.337L50.9389 382.768L72.9612 360.126C73.5508 359.419 74.0814 359.065 74.5531 359.065C75.0838 359.065 75.526 359.242 75.8798 359.596C76.2335 359.949 76.4104 360.392 76.4104 360.922V365.521C76.4104 366.406 76.322 367.054 76.1451 367.467C75.9092 367.88 75.4965 368.41 74.9069 369.059L56.0686 388.782H74.3762C74.9659 388.782 75.467 388.988 75.8798 389.401C76.2335 389.755 76.4104 390.226 76.4104 390.816V394.973ZM30.6856 331.296C30.6856 331.709 30.5382 332.063 30.2434 332.357C29.9486 332.593 29.5948 332.711 29.1821 332.711C28.7104 332.711 28.2387 332.623 27.767 332.446L15.6503 327.758C15.0607 327.464 14.589 327.139 14.2353 326.785C13.8225 326.432 13.6162 325.901 13.6162 325.193V322.275C13.6162 321.803 13.793 321.449 14.1468 321.214C14.5006 320.919 14.9723 320.83 15.5619 320.948L28.1207 322.894C28.8283 322.953 29.4474 323.189 29.978 323.602C30.4497 324.014 30.6856 324.604 30.6856 325.37V331.296ZM76.4104 306.678C76.4104 307.326 76.2335 307.828 75.8798 308.181C75.467 308.535 74.9659 308.712 74.3762 308.712H16.6232C15.9746 308.712 15.4734 308.535 15.1197 308.181C14.7069 307.828 14.5006 307.326 14.5006 306.678V302.61C14.5006 301.902 14.6775 301.371 15.0312 301.018C15.326 300.664 15.5619 300.457 15.7388 300.398L60.8445 271.036H16.6232C15.9746 271.036 15.4734 270.859 15.1197 270.505C14.7069 270.151 14.5006 269.65 14.5006 269.001V264.756C14.5006 264.108 14.7069 263.606 15.1197 263.253C15.4734 262.84 15.9746 262.633 16.6232 262.633H74.2878C74.8774 262.633 75.3786 262.84 75.7913 263.253C76.204 263.606 76.4104 264.078 76.4104 264.668V268.913C76.4104 269.561 76.2335 270.063 75.8798 270.416C75.526 270.711 75.2901 270.918 75.1722 271.036L30.5087 300.31H74.3762C74.9659 300.31 75.467 300.516 75.8798 300.929C76.2335 301.283 76.4104 301.784 76.4104 302.433V306.678ZM30.6856 248.541C30.6856 249.013 30.5087 249.396 30.1549 249.691C29.8012 249.927 29.3589 250.015 28.8283 249.956L16.181 247.922C15.4734 247.804 14.8838 247.569 14.4121 247.215C13.8815 246.802 13.6162 246.212 13.6162 245.446V239.52C13.6162 239.107 13.793 238.783 14.1468 238.547C14.4416 238.253 14.7659 238.105 15.1197 238.105C15.5914 238.105 16.0631 238.223 16.5348 238.459L28.6514 243.058C29.241 243.294 29.7422 243.618 30.1549 244.031C30.5087 244.385 30.6856 244.945 30.6856 245.711V248.541ZM77.2948 185.601C77.2948 190.73 76.5283 195.035 74.9953 198.513C73.4034 201.992 71.3692 204.675 68.8928 206.562C66.3574 208.389 63.6747 209.362 60.8445 209.48C60.3728 209.48 59.9601 209.303 59.6063 208.949C59.1936 208.537 58.9872 208.065 58.9872 207.534L58.9872 203.024C58.9872 202.316 59.1641 201.786 59.5179 201.432C59.8716 201.078 60.2844 200.842 60.7561 200.724C62.1712 200.43 63.5862 199.722 65.0013 198.602C66.3574 197.422 67.5072 195.801 68.4506 193.737C69.335 191.615 69.7772 188.902 69.7772 185.601C69.7772 180.53 68.8928 176.815 67.1239 174.457C65.2961 172.039 62.8787 170.831 59.8716 170.831C57.808 170.831 56.1571 171.479 54.9189 172.776C53.6217 174.015 52.4719 175.931 51.4696 178.525C50.4672 181.12 49.3765 184.48 48.1972 188.608C46.959 192.912 45.6029 196.479 44.1289 199.309C42.6548 202.139 40.827 204.262 38.6454 205.677C36.4638 207.033 33.6926 207.711 30.3318 207.711C27.1479 207.711 24.3177 206.856 21.8413 205.146C19.306 203.437 17.3013 200.99 15.8272 197.806C14.3532 194.563 13.6162 190.642 13.6162 186.043C13.6162 182.387 14.1173 179.203 15.1197 176.491C16.0631 173.72 17.3602 171.42 19.0112 169.593C20.6031 167.765 22.3425 166.379 24.2293 165.436C26.0571 164.492 27.8554 163.991 29.6243 163.932C30.037 163.932 30.4497 164.08 30.8625 164.374C31.2162 164.669 31.3931 165.141 31.3931 165.789V170.477C31.3931 170.89 31.2752 171.332 31.0394 171.804C30.8035 172.216 30.3613 172.541 29.7127 172.776C27.2953 173.13 25.2611 174.486 23.6102 176.845C21.9592 179.203 21.1338 182.269 21.1338 186.043C21.1338 189.875 21.8708 193 23.3448 195.418C24.8189 197.776 27.1184 198.955 30.2434 198.955C32.2481 198.955 33.9285 198.395 35.2846 197.275C36.5818 196.155 37.7315 194.386 38.7339 191.969C39.7362 189.551 40.7975 186.397 41.9178 182.505C43.215 177.788 44.6006 173.926 46.0746 170.919C47.4897 167.912 49.288 165.701 51.4696 164.286C53.5922 162.812 56.3339 162.075 59.6948 162.075C63.4094 162.075 66.5933 163.048 69.2466 164.994C71.8409 166.939 73.8456 169.681 75.2607 173.219C76.6168 176.697 77.2948 180.825 77.2948 185.601ZM76.4104 149.51C76.4104 150.099 76.2335 150.601 75.8798 151.013C75.467 151.367 74.9659 151.544 74.3762 151.544H15.6503C15.0607 151.544 14.589 151.367 14.2353 151.013C13.8225 150.601 13.6162 150.099 13.6162 149.51V145.088C13.6162 144.439 13.8225 143.938 14.2353 143.584C14.589 143.23 15.0607 143.054 15.6503 143.054H36.2575C34.2528 141.462 32.6313 139.516 31.3931 137.216C30.1549 134.917 29.5358 131.998 29.5358 128.46C29.5358 124.628 30.3908 121.385 32.1007 118.732C33.7516 116.02 36.0806 113.985 39.0876 112.629C42.0357 111.214 45.485 110.507 49.4354 110.507H74.3762C74.9659 110.507 75.467 110.684 75.8798 111.037C76.2335 111.391 76.4104 111.892 76.4104 112.541V116.963C76.4104 117.553 76.2335 118.054 75.8798 118.466C75.467 118.82 74.9659 118.997 74.3762 118.997H49.8776C45.7503 118.997 42.5369 119.999 40.2374 122.004C37.8789 124.009 36.6997 126.957 36.6997 130.848C36.6997 134.504 37.8789 137.452 40.2374 139.693C42.5369 141.933 45.7503 143.054 49.8776 143.054H74.3762C74.9659 143.054 75.467 143.23 75.8798 143.584C76.2335 143.938 76.4104 144.439 76.4104 145.088V149.51ZM77.2948 78.8994C77.2948 83.3805 76.4399 87.1246 74.73 90.1317C73.0201 93.1387 70.6616 95.4382 67.6546 97.0302C64.5886 98.6221 61.1098 99.5066 57.2184 99.6835C56.216 99.7424 54.9483 99.7719 53.4153 99.7719C51.8234 99.7719 50.5557 99.7424 49.6123 99.6835C45.6619 99.5066 42.1831 98.6221 39.1761 97.0302C36.169 95.3792 33.8106 93.0503 32.1007 90.0432C30.3908 87.0362 29.5358 83.3216 29.5358 78.8994C29.5358 74.4773 30.3908 70.7627 32.1007 67.7557C33.8106 64.7486 36.169 62.4491 39.1761 60.8571C42.1831 59.2062 45.6619 58.2923 49.6123 58.1154C50.5557 58.0565 51.8234 58.027 53.4153 58.027C54.9483 58.027 56.216 58.0565 57.2184 58.1154C61.1098 58.2923 64.5886 59.1767 67.6546 60.7687C70.6616 62.3607 73.0201 64.6602 74.73 67.6672C76.4399 70.6743 77.2948 74.4183 77.2948 78.8994ZM70.4848 78.8994C70.4848 75.2438 69.335 72.3252 67.0355 70.1436C64.677 67.962 61.2572 66.7828 56.7762 66.6059C55.8917 66.547 54.7715 66.5175 53.4153 66.5175C52.0592 66.5175 50.9389 66.547 50.0545 66.6059C45.5734 66.7828 42.1831 67.962 39.8836 70.1436C37.5251 72.3252 36.3459 75.2438 36.3459 78.8994C36.3459 82.5551 37.5251 85.5032 39.8836 87.7437C42.1831 89.9253 45.5734 91.075 50.0545 91.193C50.9389 91.2519 52.0592 91.2814 53.4153 91.2814C54.7715 91.2814 55.8917 91.2519 56.7762 91.193C61.2572 91.075 64.677 89.9253 67.0355 87.7437C69.335 85.5032 70.4848 82.5551 70.4848 78.8994ZM93.2145 44.8297C93.2145 45.4193 93.0081 45.9205 92.5954 46.3332C92.2416 46.687 91.77 46.8639 91.1803 46.8639H32.4544C31.8648 46.8639 31.3931 46.687 31.0394 46.3332C30.6266 45.9205 30.4203 45.4193 30.4203 44.8297V40.7613C30.4203 40.1717 30.6266 39.7 31.0394 39.3463C31.3931 38.9335 31.8648 38.7272 32.4544 38.7272H36.3459C34.4002 37.3121 32.7787 35.4253 31.4816 33.0668C30.1844 30.7084 29.5358 27.7603 29.5358 24.2226C29.5358 20.9207 30.096 18.12 31.2162 15.8205C32.3365 13.462 33.8695 11.5458 35.8153 10.0717C37.761 8.53874 39.9721 7.38898 42.4484 6.62248C44.9248 5.85598 47.5781 5.44324 50.4083 5.38428C51.3517 5.32532 52.354 5.29584 53.4153 5.29584C54.4766 5.29584 55.479 5.32532 56.4224 5.38428C59.1936 5.44324 61.8469 5.85598 64.3822 6.62248C66.8586 7.38898 69.0697 8.53874 71.0154 10.0717C72.9022 11.5458 74.4352 13.462 75.6144 15.8205C76.7347 18.12 77.2948 20.9207 77.2948 24.2226C77.2948 27.6423 76.6757 30.5315 75.4375 32.8899C74.1404 35.1894 72.5484 37.0762 70.6616 38.5503H91.1803C91.77 38.5503 92.2416 38.7272 92.5954 39.0809C93.0081 39.4347 93.2145 39.9359 93.2145 40.5844V44.8297ZM70.131 26.0799C70.131 23.0138 69.4824 20.6259 68.1853 18.916C66.8291 17.1472 65.0898 15.8795 62.9671 15.113C60.7856 14.3465 58.4566 13.9043 55.9802 13.7863C54.2703 13.7274 52.5604 13.7274 50.8505 13.7863C48.3741 13.9043 46.0746 14.3465 43.952 15.113C41.7704 15.8795 40.031 17.1472 38.7339 18.916C37.3777 20.6259 36.6997 23.0138 36.6997 26.0799C36.6997 28.969 37.3777 31.3275 38.7339 33.1553C40.09 34.9241 41.8293 36.2508 43.952 37.1352C46.0156 37.9606 48.1383 38.4323 50.3198 38.5503C51.2632 38.6092 52.3835 38.6387 53.6807 38.6387C54.9778 38.6387 56.1276 38.6092 57.1299 38.5503C59.1936 38.4913 61.2278 38.0196 63.2325 37.1352C65.2372 36.1918 66.8881 34.8062 68.1853 32.9784C69.4824 31.1506 70.131 28.8511 70.131 26.0799Z" fill="white"/>
<line x1="83.0726" y1="608.365" x2="66.241" y2="581.434" stroke="white" stroke-width="3.76548" stroke-linecap="round"/>
<line x1="50.4006" y1="617.365" x2="49.3913" y2="585.623" stroke="white" stroke-width="3.76548" stroke-linecap="round"/>
<line x1="35.4316" y1="581.436" x2="18.5977" y2="608.365" stroke="white" stroke-width="3.76548" stroke-linecap="round"/>
</svg>
