<svg width="113" height="21" viewBox="0 0 113 21" fill="none" xmlns="http://www.w3.org/2000/svg">
<path d="M31.8959 14.1196C31.7923 14.1196 31.7076 14.082 31.6417 14.0067C31.5852 13.9314 31.5664 13.8419 31.5852 13.7384L33.5338 4.6165C33.5527 4.51295 33.6044 4.42352 33.6892 4.34821C33.7833 4.2729 33.8821 4.23525 33.9857 4.23525H37.77C38.3631 4.23525 38.9326 4.31997 39.4786 4.48942C40.0246 4.65886 40.5 4.90833 40.9048 5.23781C41.319 5.55787 41.6249 5.96266 41.8226 6.45217C42.0203 6.93227 42.0626 7.48768 41.9497 8.1184C41.8838 8.52319 41.8179 8.88091 41.752 9.19156C41.6861 9.4928 41.6014 9.8364 41.4978 10.2224C41.2719 11.1072 40.9424 11.8415 40.5094 12.4252C40.0764 12.9994 39.5162 13.4277 38.829 13.7101C38.1513 13.9831 37.3134 14.1196 36.3156 14.1196H31.8959ZM35.6237 11.3661H36.5415C36.7486 11.3661 36.9416 11.3285 37.1205 11.2532C37.3087 11.1684 37.4688 11.0414 37.6006 10.8719C37.7418 10.7025 37.8453 10.4859 37.9112 10.2224C37.9865 9.94936 38.0477 9.70461 38.0948 9.48809C38.1513 9.27158 38.1983 9.05506 38.236 8.83855C38.283 8.61262 38.3254 8.37257 38.3631 8.1184C38.429 7.72302 38.3631 7.4359 38.1654 7.25704C37.9771 7.07818 37.7229 6.98875 37.4029 6.98875H36.5556L35.6237 11.3661ZM42.8994 14.1196C42.7958 14.1196 42.7111 14.082 42.6452 14.0067C42.5887 13.9314 42.5699 13.8419 42.5887 13.7384L44.5374 4.6165C44.5562 4.51295 44.608 4.42352 44.6927 4.34821C44.7868 4.2729 44.8857 4.23525 44.9892 4.23525H47.8698C47.9734 4.23525 48.0534 4.2729 48.1099 4.34821C48.1758 4.42352 48.1993 4.51295 48.1805 4.6165L46.2318 13.7384C46.213 13.8419 46.1565 13.9314 46.0624 14.0067C45.9777 14.082 45.8835 14.1196 45.78 14.1196H42.8994ZM52.6311 14.2608C51.5956 14.2608 50.7437 14.1196 50.0753 13.8372C49.4069 13.5548 48.9268 13.183 48.635 12.7217C48.3526 12.2604 48.2584 11.7709 48.3526 11.2532C48.3714 11.1684 48.4138 11.0978 48.4797 11.0414C48.555 10.9755 48.635 10.9425 48.7197 10.9425H51.4026C51.5532 10.9425 51.6615 10.966 51.7274 11.0131C51.8027 11.0508 51.8827 11.1072 51.9674 11.1826C52.0427 11.2485 52.1228 11.3096 52.2075 11.3661C52.3016 11.4132 52.4099 11.4508 52.5323 11.4791C52.6546 11.4979 52.7911 11.5073 52.9418 11.5073C53.2618 11.5073 53.5254 11.4744 53.7325 11.4085C53.9396 11.3332 54.0573 11.2343 54.0855 11.112C54.1138 10.999 54.0808 10.9049 53.9867 10.8295C53.8925 10.7542 53.7184 10.6883 53.4642 10.6319C53.21 10.566 52.857 10.5048 52.4052 10.4483C51.6803 10.3447 51.0731 10.1565 50.5836 9.88347C50.0941 9.60105 49.7458 9.22921 49.5387 8.76794C49.341 8.30667 49.3128 7.76538 49.454 7.14408C49.6517 6.18388 50.16 5.43549 50.979 4.89891C51.798 4.36233 52.8476 4.09404 54.1279 4.09404C54.768 4.09404 55.347 4.18818 55.8647 4.37645C56.3919 4.55531 56.839 4.79536 57.2062 5.0966C57.5827 5.38843 57.8604 5.70378 58.0393 6.04268C58.2181 6.38157 58.2793 6.70634 58.2228 7.017C58.2134 7.10172 58.1711 7.17703 58.0957 7.24292C58.0204 7.29941 57.9451 7.32765 57.8698 7.32765H55.0457C54.9139 7.32765 54.8104 7.30882 54.7351 7.27117C54.6692 7.23351 54.5986 7.17703 54.5233 7.10172C54.4856 7.05465 54.4103 7.00287 54.2973 6.94639C54.1844 6.8805 54.029 6.84755 53.8313 6.84755C53.596 6.84755 53.4171 6.8852 53.2948 6.96051C53.1724 7.02641 53.0971 7.12055 53.0688 7.24292C53.05 7.32765 53.0735 7.40766 53.1394 7.48297C53.2147 7.55828 53.356 7.62418 53.5631 7.68066C53.7796 7.73714 54.0949 7.79363 54.5091 7.85011C55.4317 7.96307 56.1471 8.16076 56.6555 8.44317C57.1732 8.72558 57.5168 9.09272 57.6863 9.54457C57.8557 9.98702 57.8745 10.5142 57.7427 11.1261C57.5262 12.1522 56.9896 12.9335 56.133 13.4701C55.2763 13.9973 54.109 14.2608 52.6311 14.2608ZM59.0735 14.1196C58.9699 14.1196 58.8852 14.082 58.8193 14.0067C58.7628 13.9314 58.744 13.8419 58.7628 13.7384L60.7115 4.6165C60.7303 4.51295 60.7821 4.42352 60.8668 4.34821C60.9609 4.2729 61.0598 4.23525 61.1633 4.23525H65.1594C65.7619 4.23525 66.3173 4.30585 66.8257 4.44706C67.3434 4.58826 67.7812 4.80478 68.1389 5.0966C68.506 5.37901 68.7649 5.73673 68.9155 6.16976C69.0661 6.60279 69.0802 7.11113 68.9579 7.69478C68.7131 8.86208 68.2095 9.71402 67.447 10.2506C66.6845 10.7778 65.6301 11.0414 64.284 11.0414H63.0131L62.4342 13.7384C62.4153 13.8419 62.3589 13.9314 62.2647 14.0067C62.18 14.082 62.0859 14.1196 61.9823 14.1196H59.0735ZM63.4932 8.42905H64.4817C64.6323 8.42905 64.7876 8.37257 64.9476 8.2596C65.1171 8.13722 65.2348 7.93954 65.3006 7.66654C65.3289 7.54416 65.3336 7.42178 65.3148 7.29941C65.3054 7.17703 65.263 7.07348 65.1877 6.98875C65.1124 6.90403 64.99 6.86167 64.8205 6.86167H63.8321L63.4932 8.42905ZM68.7613 14.1196C68.6577 14.1196 68.5824 14.0773 68.5354 13.9925C68.4883 13.8984 68.493 13.8043 68.5495 13.7101L73.6046 4.70123C73.6611 4.59768 73.7505 4.49412 73.8729 4.39057C73.9953 4.28702 74.1506 4.23525 74.3389 4.23525H77.4737C77.6619 4.23525 77.7937 4.28702 77.869 4.39057C77.9538 4.49412 78.0008 4.59768 78.0102 4.70123L79.2528 13.7101C79.2717 13.8325 79.2387 13.9314 79.154 14.0067C79.0693 14.082 78.9751 14.1196 78.8716 14.1196H76.3299C76.151 14.1196 76.0287 14.082 75.9628 14.0067C75.9063 13.9219 75.8686 13.8419 75.8498 13.7666L75.7086 12.8347H72.6727L72.1361 13.7666C72.089 13.8419 72.0184 13.9219 71.9243 14.0067C71.8396 14.082 71.7031 14.1196 71.5148 14.1196H68.7613ZM73.9718 10.0812H75.5674L75.3273 7.45473L73.9718 10.0812ZM83.09 14.1196C82.9864 14.1196 82.9017 14.082 82.8358 14.0067C82.7793 13.9314 82.7605 13.8419 82.7793 13.7384L84.1632 7.27117H81.8191C81.7156 7.27117 81.6309 7.23351 81.565 7.1582C81.5085 7.08289 81.4897 6.99346 81.5085 6.88991L82.0027 4.6165C82.0215 4.51295 82.0733 4.42352 82.158 4.34821C82.2522 4.2729 82.351 4.23525 82.4546 4.23525H90.7292C90.8328 4.23525 90.9128 4.2729 90.9693 4.34821C91.0352 4.42352 91.0587 4.51295 91.0399 4.6165L90.5456 6.88991C90.5268 6.99346 90.4703 7.08289 90.3762 7.1582C90.2915 7.23351 90.1973 7.27117 90.0938 7.27117H87.7498L86.366 13.7384C86.3471 13.8419 86.2906 13.9314 86.1965 14.0067C86.1118 14.082 86.0177 14.1196 85.9141 14.1196H83.09ZM95.3163 14.2608C94.6762 14.2608 94.0737 14.1902 93.5089 14.049C92.9535 13.8984 92.4734 13.6678 92.0686 13.3571C91.6732 13.0465 91.3861 12.6511 91.2072 12.171C91.0378 11.6909 91.0095 11.112 91.1225 10.4342C91.1884 10.0482 91.2684 9.634 91.3625 9.19156C91.4661 8.74912 91.5649 8.3255 91.6591 7.92071C91.885 7.04524 92.2333 6.32509 92.704 5.76027C93.1747 5.19545 93.763 4.77654 94.4691 4.50354C95.1751 4.23054 95.9894 4.09404 96.9119 4.09404C97.4767 4.09404 98.0368 4.16465 98.5923 4.30585C99.1571 4.43764 99.656 4.64945 100.089 4.94128C100.522 5.2331 100.847 5.60965 101.063 6.07092C101.28 6.52278 101.322 7.06877 101.19 7.7089C101.172 7.79363 101.125 7.86893 101.049 7.93483C100.974 7.99131 100.894 8.01955 100.809 8.01955H97.9286C97.778 8.01955 97.6744 7.99131 97.6179 7.93483C97.5615 7.86893 97.5191 7.76068 97.4909 7.61006C97.4532 7.30882 97.3544 7.10643 97.1943 7.00287C97.0437 6.89932 96.846 6.84755 96.6013 6.84755C96.2906 6.84755 96.0223 6.93227 95.7964 7.10172C95.5799 7.26175 95.4198 7.55828 95.3163 7.99131C95.1186 8.76324 94.9492 9.55399 94.8079 10.3636C94.7326 10.7966 94.7703 11.0978 94.9209 11.2673C95.0715 11.4273 95.3022 11.5073 95.6128 11.5073C95.8576 11.5073 96.0835 11.4508 96.2906 11.3379C96.4977 11.2249 96.6766 11.0272 96.8272 10.7448C96.9119 10.5848 96.9966 10.4765 97.0814 10.42C97.1661 10.3636 97.2838 10.3353 97.4344 10.3353H100.315C100.4 10.3353 100.466 10.3683 100.513 10.4342C100.569 10.4906 100.588 10.5613 100.569 10.646C100.419 11.2861 100.178 11.8368 99.849 12.2981C99.5289 12.7499 99.1335 13.1218 98.6629 13.4136C98.2016 13.7054 97.6885 13.9219 97.1237 14.0631C96.5589 14.1949 95.9564 14.2608 95.3163 14.2608ZM101.86 14.1196C101.757 14.1196 101.672 14.0867 101.606 14.0208C101.55 13.9455 101.531 13.8513 101.55 13.7384L103.498 4.6165C103.517 4.51295 103.569 4.42352 103.654 4.34821C103.748 4.2729 103.847 4.23525 103.95 4.23525H106.718C106.821 4.23525 106.901 4.2729 106.958 4.34821C107.024 4.42352 107.047 4.51295 107.029 4.6165L106.393 7.58182H108.681L109.316 4.6165C109.335 4.51295 109.387 4.42352 109.471 4.34821C109.565 4.2729 109.664 4.23525 109.768 4.23525H112.536C112.639 4.23525 112.719 4.2729 112.776 4.34821C112.841 4.42352 112.865 4.51295 112.846 4.6165L110.898 13.7384C110.879 13.8419 110.822 13.9314 110.728 14.0067C110.643 14.082 110.549 14.1196 110.446 14.1196H107.678C107.574 14.1196 107.49 14.082 107.424 14.0067C107.367 13.9314 107.349 13.8419 107.367 13.7384L108.017 10.6883H105.729L105.08 13.7384C105.061 13.8419 105.005 13.9314 104.91 14.0067C104.826 14.082 104.732 14.1196 104.628 14.1196H101.86Z" fill="#043F7C"/>
<path d="M26.9205 10.7484C26.9205 10.7428 26.9202 10.7372 26.9201 10.7316C26.9129 10.3577 26.6476 10.0597 26.3133 10.0597H26.154L23.6934 4.67388C23.5896 4.44647 23.3825 4.30486 23.154 4.30479L18.953 4.3038L19.1133 2.86557C19.159 2.29082 19.0021 1.74813 18.6713 1.33737C18.3411 0.927452 17.88 0.70166 17.373 0.70166H4.33482C4.00699 0.70166 3.72851 0.988826 3.69725 1.35905L3.56656 2.54401H10.9951C11.4775 2.54401 11.8582 2.9867 11.8456 3.53278C11.833 4.07886 11.4317 4.52154 10.9494 4.52154H8.47155C8.47199 4.52296 8.47243 4.52437 8.47286 4.52571H1.19654C0.85542 4.52571 0.571636 4.83872 0.562715 5.22491C0.553795 5.61109 0.823043 5.92411 1.16416 5.92411H10.7972C11.2444 6.00208 11.5785 6.43989 11.5662 6.96994C11.5527 7.55204 11.127 8.02403 10.6138 8.0289H3.97249C3.62795 8.0289 3.34135 8.3451 3.33231 8.73517C3.32326 9.12523 3.59526 9.44143 3.9398 9.44143H10.5028C10.9566 9.51297 11.2973 9.95431 11.2849 10.4895C11.2714 11.0746 10.8415 11.5489 10.3247 11.5489H2.79537V11.5497H2.16274C1.81819 11.5497 1.5316 11.8659 1.52255 12.2559C1.51351 12.646 1.78544 12.9622 2.13005 12.9622H2.67603L2.46249 15.4919C2.4167 16.0666 2.57366 16.6093 2.90454 17.02C3.23468 17.43 3.69576 17.6557 4.20275 17.6557H4.67375C4.89821 19.1088 6.00864 20.2067 7.36692 20.2067C8.72521 20.2067 9.88642 19.1088 10.1779 17.6558H16.0557C16.5309 17.6558 16.9808 17.4501 17.3337 17.1133C17.6563 17.4638 18.084 17.6558 18.551 17.6558H18.6477C18.8721 19.1088 19.9826 20.2067 21.3409 20.2067C22.6992 20.2067 23.8604 19.1088 24.1519 17.6558H24.5399C25.5506 17.6558 26.4469 16.7256 26.538 15.5822L26.9181 10.8145C26.9186 10.8081 26.9184 10.8018 26.9188 10.7953C26.9194 10.7854 26.9206 10.7758 26.9208 10.7659C26.921 10.76 26.9205 10.7543 26.9205 10.7484ZM7.39961 18.7942C6.53965 18.7942 5.85829 18.0022 5.88081 17.0286C5.90333 16.0549 6.62131 15.2629 7.48127 15.2629C8.34123 15.2629 9.02253 16.0549 9.00001 17.0286C8.97749 18.0022 8.25957 18.7942 7.39961 18.7942ZM21.3736 18.7942C20.5136 18.7942 19.8323 18.0022 19.8548 17.0286C19.8773 16.0549 20.5953 15.2629 21.4553 15.2629C22.3152 15.2629 22.9966 16.0549 22.974 17.0286C22.9515 18.0022 22.2336 18.7942 21.3736 18.7942ZM25.295 15.4919C25.2626 15.8992 24.9318 16.2433 24.5726 16.2433H24.153C23.8751 14.8694 22.7965 13.8503 21.4879 13.8503C20.1793 13.8503 19.0535 14.8694 18.7122 16.2433H18.5837C18.4251 16.2433 18.2837 16.176 18.1852 16.0537C18.086 15.9306 18.0394 15.7632 18.0538 15.5822L18.8404 5.71632L20.6469 5.71675L20.3606 9.30823C20.3148 9.88291 20.4716 10.4256 20.8025 10.8364C21.1326 11.2464 21.5938 11.4723 22.1009 11.4723H25.6154L25.295 15.4919Z" fill="#043F7C"/>
</svg>
