<svg width="108" height="23" viewBox="0 0 108 23" fill="none" xmlns="http://www.w3.org/2000/svg">
<path d="M26.7397 16.5967C26.6362 16.5967 26.5515 16.559 26.4856 16.4837C26.4291 16.4084 26.4102 16.319 26.4291 16.2154L28.3777 7.09355C28.3965 6.99 28.4483 6.90057 28.533 6.82526C28.6272 6.74995 28.726 6.7123 28.8296 6.7123H32.6139C33.2069 6.7123 33.7765 6.79702 34.3225 6.96647C34.8685 7.13592 35.3438 7.38538 35.7486 7.71486C36.1628 8.03492 36.4688 8.43971 36.6665 8.92922C36.8642 9.40932 36.9065 9.96473 36.7936 10.5954C36.7277 11.0002 36.6618 11.358 36.5959 11.6686C36.53 11.9698 36.4452 12.3134 36.3417 12.6994C36.1158 13.5843 35.7863 14.3186 35.3533 14.9022C34.9202 15.4764 34.3601 15.9048 33.6729 16.1872C32.9951 16.4602 32.1573 16.5967 31.1595 16.5967H26.7397ZM30.4675 13.8432H31.3854C31.5925 13.8432 31.7855 13.8055 31.9643 13.7302C32.1526 13.6455 32.3126 13.5184 32.4444 13.349C32.5856 13.1795 32.6892 12.963 32.7551 12.6994C32.8304 12.4264 32.8916 12.1817 32.9386 11.9651C32.9951 11.7486 33.0422 11.5321 33.0799 11.3156C33.1269 11.0897 33.1693 10.8496 33.2069 10.5954C33.2728 10.2001 33.2069 9.91296 33.0092 9.7341C32.821 9.55524 32.5668 9.46581 32.2467 9.46581H31.3995L30.4675 13.8432ZM37.7433 16.5967C37.6397 16.5967 37.555 16.559 37.4891 16.4837C37.4326 16.4084 37.4138 16.319 37.4326 16.2154L39.3813 7.09355C39.4001 6.99 39.4519 6.90057 39.5366 6.82526C39.6307 6.74995 39.7296 6.7123 39.8331 6.7123H42.7137C42.8173 6.7123 42.8973 6.74995 42.9538 6.82526C43.0196 6.90057 43.0432 6.99 43.0244 7.09355L41.0757 16.2154C41.0569 16.319 41.0004 16.4084 40.9063 16.4837C40.8215 16.559 40.7274 16.5967 40.6239 16.5967H37.7433ZM47.475 16.7379C46.4395 16.7379 45.5875 16.5967 44.9192 16.3143C44.2508 16.0319 43.7707 15.66 43.4789 15.1987C43.1964 14.7375 43.1023 14.248 43.1964 13.7302C43.2153 13.6455 43.2576 13.5749 43.3235 13.5184C43.3988 13.4525 43.4789 13.4196 43.5636 13.4196H46.2465C46.3971 13.4196 46.5054 13.4431 46.5713 13.4902C46.6466 13.5278 46.7266 13.5843 46.8113 13.6596C46.8866 13.7255 46.9666 13.7867 47.0514 13.8432C47.1455 13.8902 47.2537 13.9279 47.3761 13.9561C47.4985 13.975 47.635 13.9844 47.7856 13.9844C48.1057 13.9844 48.3693 13.9514 48.5764 13.8855C48.7835 13.8102 48.9011 13.7114 48.9294 13.589C48.9576 13.476 48.9247 13.3819 48.8305 13.3066C48.7364 13.2313 48.5623 13.1654 48.3081 13.1089C48.0539 13.043 47.7009 12.9818 47.249 12.9253C46.5242 12.8218 45.917 12.6335 45.4275 12.3605C44.938 12.0781 44.5897 11.7063 44.3826 11.245C44.1849 10.7837 44.1566 10.2424 44.2978 9.62113C44.4955 8.66093 45.0039 7.91255 45.8229 7.37596C46.6419 6.83938 47.6915 6.57109 48.9717 6.57109C49.6119 6.57109 50.1908 6.66523 50.7086 6.8535C51.2357 7.03236 51.6829 7.27241 52.05 7.57365C52.4266 7.86548 52.7043 8.18084 52.8831 8.51973C53.062 8.85862 53.1232 9.18339 53.0667 9.49405C53.0573 9.57877 53.0149 9.65408 52.9396 9.71997C52.8643 9.77646 52.789 9.8047 52.7137 9.8047H49.8896C49.7578 9.8047 49.6542 9.78587 49.5789 9.74822C49.513 9.71056 49.4424 9.65408 49.3671 9.57877C49.3295 9.5317 49.2542 9.47993 49.1412 9.42344C49.0282 9.35755 48.8729 9.3246 48.6752 9.3246C48.4399 9.3246 48.261 9.36225 48.1386 9.43756C48.0163 9.50346 47.9409 9.5976 47.9127 9.71997C47.8939 9.8047 47.9174 9.88471 47.9833 9.96002C48.0586 10.0353 48.1998 10.1012 48.4069 10.1577C48.6234 10.2142 48.9388 10.2707 49.353 10.3272C50.2755 10.4401 50.991 10.6378 51.4993 10.9202C52.0171 11.2026 52.3607 11.5698 52.5301 12.0216C52.6996 12.4641 52.7184 12.9912 52.5866 13.6031C52.3701 14.6292 51.8335 15.4106 50.9769 15.9471C50.1202 16.4743 48.9529 16.7379 47.475 16.7379ZM53.9174 16.5967C53.8138 16.5967 53.7291 16.559 53.6632 16.4837C53.6067 16.4084 53.5879 16.319 53.6067 16.2154L55.5553 7.09355C55.5742 6.99 55.6259 6.90057 55.7107 6.82526C55.8048 6.74995 55.9036 6.7123 56.0072 6.7123H60.0033C60.6058 6.7123 61.1612 6.7829 61.6695 6.92411C62.1873 7.06531 62.625 7.28183 62.9827 7.57365C63.3499 7.85606 63.6088 8.21378 63.7594 8.64681C63.91 9.07984 63.9241 9.58818 63.8017 10.1718C63.557 11.3391 63.0534 12.1911 62.2908 12.7277C61.5283 13.2548 60.474 13.5184 59.1278 13.5184H57.857L57.278 16.2154C57.2592 16.319 57.2027 16.4084 57.1086 16.4837C57.0239 16.559 56.9297 16.5967 56.8262 16.5967H53.9174ZM58.3371 10.9061H59.3255C59.4761 10.9061 59.6315 10.8496 59.7915 10.7367C59.961 10.6143 60.0786 10.4166 60.1445 10.1436C60.1728 10.0212 60.1775 9.89883 60.1586 9.77646C60.1492 9.65408 60.1069 9.55053 60.0316 9.46581C59.9562 9.38108 59.8339 9.33872 59.6644 9.33872H58.676L58.3371 10.9061ZM63.6052 16.5967C63.5016 16.5967 63.4263 16.5543 63.3792 16.4696C63.3322 16.3755 63.3369 16.2813 63.3933 16.1872L68.4485 7.17828C68.505 7.07473 68.5944 6.97118 68.7168 6.86763C68.8392 6.76407 68.9945 6.7123 69.1828 6.7123H72.3175C72.5058 6.7123 72.6376 6.76407 72.7129 6.86763C72.7976 6.97118 72.8447 7.07473 72.8541 7.17828L74.0967 16.1872C74.1155 16.3096 74.0826 16.4084 73.9979 16.4837C73.9132 16.559 73.819 16.5967 73.7155 16.5967H71.1738C70.9949 16.5967 70.8725 16.559 70.8066 16.4837C70.7501 16.399 70.7125 16.319 70.6937 16.2437L70.5525 15.3117H67.5165L66.98 16.2437C66.9329 16.319 66.8623 16.399 66.7682 16.4837C66.6834 16.559 66.5469 16.5967 66.3587 16.5967H63.6052ZM68.8156 12.5582H70.4113L70.1712 9.93178L68.8156 12.5582ZM77.9339 16.5967C77.8303 16.5967 77.7456 16.559 77.6797 16.4837C77.6232 16.4084 77.6044 16.319 77.6232 16.2154L79.007 9.74822H76.663C76.5595 9.74822 76.4747 9.71056 76.4088 9.63525C76.3524 9.55994 76.3335 9.47051 76.3524 9.36696L76.8466 7.09355C76.8654 6.99 76.9172 6.90057 77.0019 6.82526C77.096 6.74995 77.1949 6.7123 77.2984 6.7123H85.5731C85.6766 6.7123 85.7566 6.74995 85.8131 6.82526C85.879 6.90057 85.9026 6.99 85.8837 7.09355L85.3895 9.36696C85.3707 9.47051 85.3142 9.55994 85.2201 9.63525C85.1353 9.71056 85.0412 9.74822 84.9377 9.74822H82.5936L81.2098 16.2154C81.191 16.319 81.1345 16.4084 81.0404 16.4837C80.9557 16.559 80.8615 16.5967 80.758 16.5967H77.9339ZM90.1602 16.7379C89.52 16.7379 88.9176 16.6673 88.3527 16.5261C87.7973 16.3755 87.3172 16.1448 86.9124 15.8342C86.5171 15.5235 86.2299 15.1281 86.0511 14.648C85.8816 14.1679 85.8534 13.589 85.9664 12.9112C86.0323 12.5253 86.1123 12.1111 86.2064 11.6686C86.31 11.2262 86.4088 10.8025 86.5029 10.3978C86.7289 9.52229 87.0772 8.80214 87.5479 8.23732C88.0185 7.6725 88.6069 7.25359 89.3129 6.98059C90.019 6.70759 90.8332 6.57109 91.7558 6.57109C92.3206 6.57109 92.8807 6.6417 93.4361 6.7829C94.0009 6.91469 94.4999 7.1265 94.9329 7.41833C95.3659 7.71015 95.6907 8.0867 95.9072 8.54797C96.1237 8.99983 96.1661 9.54582 96.0343 10.186C96.0155 10.2707 95.9684 10.346 95.8931 10.4119C95.8178 10.4684 95.7378 10.4966 95.6531 10.4966H92.7725C92.6218 10.4966 92.5183 10.4684 92.4618 10.4119C92.4053 10.346 92.363 10.2377 92.3347 10.0871C92.2971 9.78587 92.1982 9.58348 92.0382 9.47993C91.8876 9.37637 91.6899 9.3246 91.4451 9.3246C91.1345 9.3246 90.8662 9.40932 90.6403 9.57877C90.4237 9.7388 90.2637 10.0353 90.1602 10.4684C89.9625 11.2403 89.793 12.031 89.6518 12.8406C89.5765 13.2736 89.6142 13.5749 89.7648 13.7443C89.9154 13.9044 90.146 13.9844 90.4567 13.9844C90.7014 13.9844 90.9274 13.9279 91.1345 13.8149C91.3416 13.702 91.5204 13.5043 91.6711 13.2219C91.7558 13.0618 91.8405 12.9536 91.9252 12.8971C92.01 12.8406 92.1276 12.8124 92.2782 12.8124H95.1588C95.2436 12.8124 95.3095 12.8453 95.3565 12.9112C95.413 12.9677 95.4318 13.0383 95.413 13.123C95.2624 13.7632 95.0223 14.3139 94.6929 14.7751C94.3728 15.227 93.9774 15.5988 93.5067 15.8907C93.0455 16.1825 92.5324 16.399 91.9676 16.5402C91.4028 16.672 90.8003 16.7379 90.1602 16.7379ZM96.7043 16.5967C96.6007 16.5967 96.516 16.5637 96.4501 16.4978C96.3936 16.4225 96.3748 16.3284 96.3936 16.2154L98.3422 7.09355C98.3611 6.99 98.4128 6.90057 98.4976 6.82526C98.5917 6.74995 98.6905 6.7123 98.7941 6.7123H101.562C101.665 6.7123 101.745 6.74995 101.802 6.82526C101.868 6.90057 101.891 6.99 101.872 7.09355L101.237 10.0589H103.524L104.16 7.09355C104.179 6.99 104.231 6.90057 104.315 6.82526C104.409 6.74995 104.508 6.7123 104.612 6.7123H107.379C107.483 6.7123 107.563 6.74995 107.619 6.82526C107.685 6.90057 107.709 6.99 107.69 7.09355L105.741 16.2154C105.723 16.319 105.666 16.4084 105.572 16.4837C105.487 16.559 105.393 16.5967 105.29 16.5967H102.522C102.418 16.5967 102.334 16.559 102.268 16.4837C102.211 16.4084 102.192 16.319 102.211 16.2154L102.861 13.1654H100.573L99.9237 16.2154C99.9049 16.319 99.8484 16.4084 99.7543 16.4837C99.6696 16.559 99.5754 16.5967 99.4719 16.5967H96.7043Z" fill="#DDDFE1"/>
<path d="M21.7642 11.9248C21.7642 11.9186 21.764 11.9124 21.764 11.9062C21.758 11.4911 21.5401 11.1603 21.2655 11.1603H21.1346L19.1134 5.18182C19.0281 4.92938 18.8581 4.77219 18.6703 4.77211L15.2196 4.77101L15.3512 3.17451C15.3888 2.5365 15.2598 1.93409 14.9881 1.47812C14.7168 1.0231 14.3382 0.772461 13.9217 0.772461H3.21173C2.94244 0.772461 2.71369 1.09123 2.68801 1.50219L2.58066 2.81756H8.68268C9.07889 2.81756 9.39169 3.30896 9.38134 3.91514C9.37093 4.52131 9.04133 5.01271 8.64511 5.01271H6.60976C6.61012 5.01428 6.61048 5.01585 6.61084 5.01734H0.633852C0.35365 5.01734 0.120542 5.3648 0.113214 5.79348C0.105886 6.22216 0.327055 6.56963 0.607256 6.56963H8.52013C8.88745 6.65618 9.16186 7.14217 9.15176 7.73055C9.14069 8.37671 8.79106 8.90064 8.36942 8.90605H2.9141C2.63108 8.90605 2.39567 9.25704 2.38824 9.69004C2.38081 10.123 2.60423 10.474 2.88725 10.474H8.27831C8.65101 10.5534 8.9309 11.0433 8.92076 11.6375C8.90964 12.2869 8.55646 12.8134 8.13196 12.8134H1.94718V12.8143H1.42752C1.1445 12.8143 0.909083 13.1653 0.901652 13.5983C0.894222 14.0313 1.11759 14.3823 1.40067 14.3823H1.84915L1.67374 17.1903C1.63613 17.8283 1.76506 18.4307 2.03686 18.8866C2.30804 19.3417 2.68678 19.5923 3.10324 19.5923H3.49013C3.67451 21.2053 4.58665 22.424 5.70238 22.424C6.81812 22.424 7.77197 21.2053 8.01143 19.5924H12.8396C13.23 19.5924 13.5995 19.364 13.8894 18.9901C14.1544 19.3793 14.5057 19.5924 14.8893 19.5924H14.9688C15.1531 21.2053 16.0652 22.424 17.181 22.424C18.2967 22.424 19.2506 21.2053 19.4901 19.5924H19.8087C20.639 19.5924 21.3752 18.5598 21.45 17.2906L21.7623 11.9982C21.7627 11.9911 21.7625 11.984 21.7628 11.9768C21.7633 11.9659 21.7643 11.9553 21.7645 11.9443C21.7646 11.9377 21.7642 11.9314 21.7642 11.9248ZM5.72924 20.856C5.02284 20.856 4.46315 19.9768 4.48165 18.8961C4.50015 17.8153 5.08992 16.9361 5.79631 16.9361C6.50271 16.9361 7.06235 17.8153 7.04385 18.8961C7.02535 19.9768 6.43563 20.856 5.72924 20.856ZM17.2079 20.856C16.5015 20.856 15.9418 19.9768 15.9603 18.8961C15.9788 17.8153 16.5685 16.9361 17.2749 16.9361C17.9813 16.9361 18.541 17.8153 18.5225 18.8961C18.504 19.9768 17.9143 20.856 17.2079 20.856ZM20.4291 17.1903C20.4024 17.6424 20.1307 18.0244 19.8357 18.0244H19.4909C19.2627 16.4993 18.3767 15.3681 17.3017 15.3681C16.2268 15.3681 15.3021 16.4993 15.0217 18.0244H14.9162C14.7859 18.0244 14.6697 17.9497 14.5888 17.8139C14.5074 17.6773 14.469 17.4915 14.4809 17.2905L15.127 6.33898L16.611 6.33945L16.3758 10.3262C16.3381 10.9641 16.467 11.5665 16.7387 12.0225C17.0099 12.4776 17.3888 12.7284 17.8053 12.7284H20.6922L20.4291 17.1903Z" fill="#DDDFE1"/>
</svg>
