<svg width="144" height="19" viewBox="0 0 144 19" fill="none" xmlns="http://www.w3.org/2000/svg">
<path d="M24.8803 14.9437C24.6921 14.9437 24.5509 14.8872 24.4567 14.7743C24.372 14.6519 24.3343 14.5295 24.3438 14.4071L24.8097 5.41236C24.8192 5.31822 24.8615 5.2382 24.9368 5.17231C25.0215 5.097 25.111 5.05934 25.2051 5.05934H27.7609C27.921 5.05934 28.0339 5.08759 28.0998 5.14407C28.1751 5.20055 28.2034 5.29939 28.1845 5.4406L27.8174 9.42259L28.7635 7.65752C28.8011 7.59163 28.8623 7.50691 28.9471 7.40335C29.0318 7.2998 29.1589 7.24803 29.3283 7.24803H30.7686C30.9381 7.24803 31.0416 7.2998 31.0793 7.40335C31.1263 7.50691 31.1546 7.59163 31.164 7.65752L31.3758 9.40847L32.7031 5.4406C32.7878 5.18643 32.9855 5.05934 33.2962 5.05934H35.9932C36.0873 5.05934 36.1532 5.097 36.1909 5.17231C36.238 5.24762 36.2474 5.32764 36.2191 5.41236L33.155 14.4071C33.1173 14.5295 33.0279 14.6519 32.8867 14.7743C32.7455 14.8872 32.5807 14.9437 32.3925 14.9437H30.3732C30.185 14.9437 30.0579 14.8967 29.992 14.8025C29.9261 14.699 29.8837 14.619 29.8649 14.5625L29.1165 11.6678L27.5491 14.5625C27.5209 14.619 27.4503 14.699 27.3373 14.8025C27.2338 14.8967 27.0879 14.9437 26.8996 14.9437H24.8803ZM40.6596 15.0849C40.0383 15.0849 39.4499 15.0049 38.8945 14.8449C38.3485 14.6848 37.8732 14.4448 37.4684 14.1247C37.073 13.8047 36.7812 13.4093 36.5929 12.9386C36.414 12.4585 36.3764 11.9031 36.4799 11.2724C36.5458 10.8864 36.6258 10.4769 36.72 10.0439C36.8141 9.61087 36.9082 9.19196 37.0024 8.78717C37.313 7.55397 37.8826 6.60319 38.711 5.93482C39.5488 5.25703 40.7302 4.91814 42.2552 4.91814C42.8765 4.91814 43.4602 5.00286 44.0062 5.17231C44.5616 5.34176 45.037 5.59122 45.4324 5.9207C45.8371 6.25018 46.129 6.65497 46.3078 7.13506C46.4961 7.61516 46.5385 8.16586 46.4349 8.78717C46.369 9.19196 46.289 9.61087 46.1949 10.0439C46.1007 10.4769 46.0066 10.8864 45.9124 11.2724C45.5924 12.5338 45.0181 13.4846 44.1897 14.1247C43.3613 14.7649 42.1846 15.0849 40.6596 15.0849ZM40.9703 12.3314C41.2809 12.3314 41.5492 12.242 41.7751 12.0631C42.0011 11.8749 42.1611 11.583 42.2552 11.1877C42.3588 10.7829 42.4529 10.3828 42.5376 9.98741C42.6224 9.59204 42.6977 9.20137 42.7636 8.81541C42.8389 8.42003 42.7965 8.13292 42.6365 7.95406C42.4859 7.76578 42.2599 7.67165 41.9587 7.67165C41.6575 7.67165 41.3939 7.76578 41.1679 7.95406C40.942 8.13292 40.7773 8.42003 40.6737 8.81541C40.5796 9.20137 40.4902 9.59204 40.4054 9.98741C40.3207 10.3828 40.2407 10.7829 40.1654 11.1877C40.0995 11.583 40.1371 11.8749 40.2784 12.0631C40.429 12.242 40.6596 12.3314 40.9703 12.3314ZM51.7045 15.0849C51.0832 15.0849 50.4949 15.0049 49.9395 14.8449C49.3935 14.6848 48.9181 14.4448 48.5133 14.1247C48.1179 13.8047 47.8261 13.4093 47.6378 12.9386C47.4589 12.4585 47.4213 11.9031 47.5248 11.2724C47.5907 10.8864 47.6708 10.4769 47.7649 10.0439C47.859 9.61087 47.9532 9.19196 48.0473 8.78717C48.358 7.55397 48.9275 6.60319 49.7559 5.93482C50.5937 5.25703 51.7751 4.91814 53.3001 4.91814C53.9214 4.91814 54.5051 5.00286 55.0511 5.17231C55.6065 5.34176 56.0819 5.59122 56.4773 5.9207C56.8821 6.25018 57.1739 6.65497 57.3527 7.13506C57.541 7.61516 57.5834 8.16586 57.4798 8.78717C57.4139 9.19196 57.3339 9.61087 57.2398 10.0439C57.1456 10.4769 57.0515 10.8864 56.9574 11.2724C56.6373 12.5338 56.0631 13.4846 55.2347 14.1247C54.4063 14.7649 53.2295 15.0849 51.7045 15.0849ZM52.0152 12.3314C52.3258 12.3314 52.5941 12.242 52.82 12.0631C53.046 11.8749 53.206 11.583 53.3001 11.1877C53.4037 10.7829 53.4978 10.3828 53.5826 9.98741C53.6673 9.59204 53.7426 9.20137 53.8085 8.81541C53.8838 8.42003 53.8414 8.13292 53.6814 7.95406C53.5308 7.76578 53.3048 7.67165 53.0036 7.67165C52.7024 7.67165 52.4388 7.76578 52.2129 7.95406C51.9869 8.13292 51.8222 8.42003 51.7186 8.81541C51.6245 9.20137 51.5351 9.59204 51.4504 9.98741C51.3656 10.3828 51.2856 10.7829 51.2103 11.1877C51.1444 11.583 51.1821 11.8749 51.3233 12.0631C51.4739 12.242 51.7045 12.3314 52.0152 12.3314ZM58.132 14.9437C58.0285 14.9437 57.9484 14.9061 57.892 14.8308C57.8261 14.7555 57.8025 14.666 57.8214 14.5625L58.2591 12.5291C58.2873 12.3973 58.3344 12.2938 58.4003 12.2185C58.4756 12.1337 58.5321 12.0725 58.5697 12.0349L63.2578 7.92582H59.7559C59.6523 7.92582 59.5723 7.88816 59.5158 7.81285C59.4593 7.73754 59.4405 7.64811 59.4593 7.54456L59.9112 5.4406C59.93 5.33705 59.9818 5.24762 60.0665 5.17231C60.1607 5.097 60.2595 5.05934 60.3631 5.05934H68.1011C68.2047 5.05934 68.2847 5.097 68.3412 5.17231C68.4071 5.24762 68.4306 5.33705 68.4118 5.4406L67.974 7.44572C67.9552 7.53985 67.9175 7.62458 67.8611 7.69989C67.814 7.7752 67.7575 7.8458 67.6916 7.91169L63.2154 12.049H66.802C66.9056 12.049 66.9856 12.0867 67.0421 12.162C67.108 12.2373 67.1268 12.3267 67.0986 12.4303L66.6467 14.5625C66.6279 14.666 66.5714 14.7555 66.4773 14.8308C66.3925 14.9061 66.2984 14.9437 66.1948 14.9437H58.132ZM68.7561 14.9437C68.6525 14.9437 68.5678 14.9061 68.5019 14.8308C68.4454 14.7555 68.4266 14.666 68.4454 14.5625L70.3941 5.4406C70.4129 5.33705 70.4647 5.24762 70.5494 5.17231C70.6435 5.097 70.7424 5.05934 70.8459 5.05934H78.0897C78.1933 5.05934 78.2733 5.097 78.3298 5.17231C78.3957 5.24762 78.4192 5.33705 78.4004 5.4406L77.9768 7.4316C77.958 7.53515 77.9015 7.62458 77.8073 7.69989C77.7132 7.7752 77.6144 7.81285 77.5108 7.81285H73.2746L73.077 8.70244H77.0025C77.106 8.70244 77.186 8.7401 77.2425 8.81541C77.3084 8.89072 77.3319 8.98015 77.3131 9.0837L76.9177 10.9194C76.8989 11.0229 76.8424 11.1124 76.7483 11.1877C76.6542 11.263 76.5553 11.3006 76.4518 11.3006H72.5263L72.3427 12.1902H76.6918C76.7954 12.1902 76.8754 12.2279 76.9319 12.3032C76.9883 12.3785 77.0072 12.4679 76.9883 12.5715L76.5647 14.5625C76.5459 14.666 76.4894 14.7555 76.3953 14.8308C76.3106 14.9061 76.2164 14.9437 76.1129 14.9437H68.7561ZM78.7254 14.9437C78.6218 14.9437 78.5371 14.9061 78.4712 14.8308C78.4147 14.7555 78.3959 14.666 78.4147 14.5625L80.3634 5.4406C80.3822 5.33705 80.434 5.24762 80.5187 5.17231C80.6128 5.097 80.7117 5.05934 80.8152 5.05934H88.0591C88.1626 5.05934 88.2426 5.097 88.2991 5.17231C88.365 5.24762 88.3886 5.33705 88.3697 5.4406L87.9461 7.4316C87.9273 7.53515 87.8708 7.62458 87.7767 7.69989C87.6825 7.7752 87.5837 7.81285 87.4801 7.81285H83.244L83.0463 8.70244H86.9718C87.0753 8.70244 87.1554 8.7401 87.2118 8.81541C87.2777 8.89072 87.3013 8.98015 87.2824 9.0837L86.8871 10.9194C86.8682 11.0229 86.8118 11.1124 86.7176 11.1877C86.6235 11.263 86.5246 11.3006 86.4211 11.3006H82.4956L82.312 12.1902H86.6611C86.7647 12.1902 86.8447 12.2279 86.9012 12.3032C86.9577 12.3785 86.9765 12.4679 86.9577 12.5715L86.5341 14.5625C86.5152 14.666 86.4587 14.7555 86.3646 14.8308C86.2799 14.9061 86.1857 14.9437 86.0822 14.9437H78.7254ZM88.6947 14.9437C88.5912 14.9437 88.5064 14.9061 88.4406 14.8308C88.3841 14.7555 88.3652 14.666 88.3841 14.5625L90.3327 5.4406C90.3515 5.33705 90.4033 5.24762 90.488 5.17231C90.5822 5.097 90.681 5.05934 90.7846 5.05934H98.0284C98.132 5.05934 98.212 5.097 98.2684 5.17231C98.3343 5.24762 98.3579 5.33705 98.3391 5.4406L97.9154 7.4316C97.8966 7.53515 97.8401 7.62458 97.746 7.69989C97.6519 7.7752 97.553 7.81285 97.4495 7.81285H93.2133L93.0156 8.70244H96.9411C97.0447 8.70244 97.1247 8.7401 97.1812 8.81541C97.2471 8.89072 97.2706 8.98015 97.2518 9.0837L96.8564 10.9194C96.8376 11.0229 96.7811 11.1124 96.6869 11.1877C96.5928 11.263 96.494 11.3006 96.3904 11.3006H92.4649L92.2813 12.1902H96.6305C96.734 12.1902 96.814 12.2279 96.8705 12.3032C96.927 12.3785 96.9458 12.4679 96.927 12.5715L96.5034 14.5625C96.4846 14.666 96.4281 14.7555 96.3339 14.8308C96.2492 14.9061 96.1551 14.9437 96.0515 14.9437H88.6947ZM101.89 14.9437C101.787 14.9437 101.702 14.9061 101.636 14.8308C101.58 14.7555 101.561 14.666 101.58 14.5625L103.528 5.4406C103.547 5.33705 103.599 5.24762 103.684 5.17231C103.778 5.097 103.877 5.05934 103.98 5.05934H111.224C111.327 5.05934 111.408 5.097 111.464 5.17231C111.53 5.24762 111.553 5.33705 111.535 5.4406L111.111 7.4316C111.092 7.53515 111.036 7.62458 110.942 7.69989C110.847 7.7752 110.749 7.81285 110.645 7.81285H106.409L106.211 8.70244H110.137C110.24 8.70244 110.32 8.7401 110.377 8.81541C110.443 8.89072 110.466 8.98015 110.447 9.0837L110.052 10.9194C110.033 11.0229 109.977 11.1124 109.882 11.1877C109.788 11.263 109.69 11.3006 109.586 11.3006H105.66L105.477 12.1902H109.826C109.93 12.1902 110.01 12.2279 110.066 12.3032C110.123 12.3785 110.141 12.4679 110.123 12.5715L109.699 14.5625C109.68 14.666 109.624 14.7555 109.529 14.8308C109.445 14.9061 109.351 14.9437 109.247 14.9437H101.89ZM111.026 14.9437C110.923 14.9437 110.848 14.9014 110.801 14.8166C110.753 14.7225 110.758 14.6284 110.815 14.5342L115.87 5.52532C115.926 5.42177 116.016 5.31822 116.138 5.21467C116.26 5.11112 116.416 5.05934 116.604 5.05934H119.739C119.927 5.05934 120.059 5.11112 120.134 5.21467C120.219 5.31822 120.266 5.42177 120.275 5.52532L121.518 14.5342C121.537 14.6566 121.504 14.7555 121.419 14.8308C121.334 14.9061 121.24 14.9437 121.137 14.9437H118.595C118.416 14.9437 118.294 14.9061 118.228 14.8308C118.171 14.746 118.134 14.666 118.115 14.5907L117.974 13.6588H114.938L114.401 14.5907C114.354 14.666 114.284 14.746 114.189 14.8308C114.105 14.9061 113.968 14.9437 113.78 14.9437H111.026ZM116.237 10.9052H117.833L117.593 8.27883L116.237 10.9052ZM125.355 14.9437C125.252 14.9437 125.167 14.9061 125.101 14.8308C125.045 14.7555 125.026 14.666 125.045 14.5625L126.428 8.09526H124.084C123.981 8.09526 123.896 8.05761 123.83 7.9823C123.774 7.90699 123.755 7.81756 123.774 7.71401L124.268 5.4406C124.287 5.33705 124.338 5.24762 124.423 5.17231C124.517 5.097 124.616 5.05934 124.72 5.05934H132.994C133.098 5.05934 133.178 5.097 133.234 5.17231C133.3 5.24762 133.324 5.33705 133.305 5.4406L132.811 7.71401C132.792 7.81756 132.736 7.90699 132.641 7.9823C132.557 8.05761 132.463 8.09526 132.359 8.09526H130.015L128.631 14.5625C128.612 14.666 128.556 14.7555 128.462 14.8308C128.377 14.9061 128.283 14.9437 128.179 14.9437H125.355ZM137.214 15.0849C136.179 15.0849 135.327 14.9437 134.659 14.6613C133.99 14.3789 133.51 14.0071 133.218 13.5458C132.936 13.0845 132.842 12.595 132.936 12.0773C132.955 11.9925 132.997 11.9219 133.063 11.8654C133.138 11.7996 133.218 11.7666 133.303 11.7666H135.986C136.136 11.7666 136.245 11.7901 136.311 11.8372C136.386 11.8749 136.466 11.9313 136.551 12.0067C136.626 12.0725 136.706 12.1337 136.791 12.1902C136.885 12.2373 136.993 12.2749 137.115 12.3032C137.238 12.322 137.374 12.3314 137.525 12.3314C137.845 12.3314 138.109 12.2985 138.316 12.2326C138.523 12.1573 138.641 12.0584 138.669 11.936C138.697 11.8231 138.664 11.7289 138.57 11.6536C138.476 11.5783 138.302 11.5124 138.047 11.456C137.793 11.3901 137.44 11.3289 136.988 11.2724C136.264 11.1688 135.656 10.9806 135.167 10.7076C134.677 10.4252 134.329 10.0533 134.122 9.59204C133.924 9.13077 133.896 8.58948 134.037 7.96818C134.235 7.00798 134.743 6.25959 135.562 5.72301C136.381 5.18643 137.431 4.91814 138.711 4.91814C139.351 4.91814 139.93 5.01228 140.448 5.20055C140.975 5.37941 141.422 5.61946 141.789 5.9207C142.166 6.21252 142.444 6.52788 142.623 6.86677C142.801 7.20567 142.863 7.53044 142.806 7.84109C142.797 7.92582 142.754 8.00112 142.679 8.06702C142.604 8.1235 142.528 8.15174 142.453 8.15174H139.629C139.497 8.15174 139.394 8.13292 139.318 8.09526C139.252 8.05761 139.182 8.00112 139.106 7.92582C139.069 7.87875 138.994 7.82697 138.881 7.77049C138.768 7.70459 138.612 7.67165 138.415 7.67165C138.179 7.67165 138 7.7093 137.878 7.78461C137.756 7.85051 137.68 7.94464 137.652 8.06702C137.633 8.15174 137.657 8.23176 137.723 8.30707C137.798 8.38238 137.939 8.44828 138.146 8.50476C138.363 8.56124 138.678 8.61772 139.092 8.6742C140.015 8.78717 140.73 8.98486 141.239 9.26727C141.756 9.54968 142.1 9.91681 142.269 10.3687C142.439 10.8111 142.458 11.3383 142.326 11.9502C142.109 12.9763 141.573 13.7576 140.716 14.2942C139.86 14.8213 138.692 15.0849 137.214 15.0849Z" fill="#043F7C"/>
<rect x="0.81897" y="0.0609741" width="18.8274" height="18.8274" rx="9.4137" fill="#043F7C"/>
<g clip-path="url(#clip0_439_1988)">
<path d="M11.725 4.76782H11.1223V13.2071C11.1223 13.489 11.2706 13.7219 11.5672 13.9057C11.8638 14.0896 12.2225 14.1815 12.6434 14.1815C13.0644 14.1815 13.4231 14.0896 13.7197 13.9057C14.0163 13.7219 14.1646 13.489 14.1646 13.2071V9.95271C14.5855 9.71982 14.796 9.43177 14.796 9.08856V6.73514C14.796 6.18355 14.4994 5.71777 13.9063 5.33779C13.3131 4.95781 12.586 4.76782 11.725 4.76782ZM12.9592 13.2071C12.9592 13.3296 12.8539 13.3909 12.6434 13.3909C12.433 13.3909 12.3277 13.3296 12.3277 13.2071V10.2653H12.9592V13.2071ZM13.5619 9.08856C13.5619 9.19888 13.5045 9.29081 13.3897 9.36435C13.2749 9.4379 13.1314 9.47467 12.9592 9.47467H12.3277V5.63197C12.6913 5.70551 12.9879 5.84341 13.2175 6.04566C13.4471 6.24791 13.5619 6.47773 13.5619 6.73514V9.08856ZM5.61188 10.063V13.2071C5.61188 13.489 5.76016 13.7219 6.05673 13.9057C6.3533 14.0896 6.71206 14.1815 7.13299 14.1815C7.55393 14.1815 7.91268 14.0896 8.20925 13.9057C8.50582 13.7219 8.65411 13.489 8.65411 13.2071V10.063C8.65411 9.79336 8.50582 9.56354 8.20925 9.37355C7.91268 9.18356 7.55393 9.08856 7.13299 9.08856C6.71206 9.08856 6.3533 9.18356 6.05673 9.37355C5.76016 9.56354 5.61188 9.79336 5.61188 10.063ZM6.81729 10.063C6.81729 9.92819 6.92252 9.86078 7.13299 9.86078C7.34346 9.86078 7.4487 9.92819 7.4487 10.063V13.2071C7.4487 13.3296 7.34346 13.3909 7.13299 13.3909C6.92252 13.3909 6.81729 13.3296 6.81729 13.2071V10.063ZM8.0514 7.50735H7.4487V4.76782H6.81729V7.50735H6.21458V4.76782H5.61188V7.91185H6.81729V9.08856H7.4487V7.91185H8.65411V4.76782H8.0514V7.50735Z" fill="white"/>
</g>
<defs>
<clipPath id="clip0_439_1988">
<rect width="9.4137" height="9.4137" fill="white" transform="translate(5.52582 4.76782)"/>
</clipPath>
</defs>
</svg>
