<svg width="108" height="23" viewBox="0 0 108 23" fill="none" xmlns="http://www.w3.org/2000/svg">
<path d="M30.0419 16.7379C29.4206 16.7379 28.8322 16.6579 28.2768 16.4978C27.7308 16.3378 27.2554 16.0978 26.8507 15.7777C26.4553 15.4576 26.1635 15.0622 25.9752 14.5916C25.7963 14.1115 25.7587 13.5561 25.8622 12.9253C25.9281 12.5394 26.0081 12.1299 26.1023 11.6969C26.1964 11.2638 26.2905 10.8449 26.3847 10.4401C26.6953 9.20693 27.2649 8.25614 28.0933 7.58777C28.9311 6.90999 30.1125 6.57109 31.6375 6.57109C32.2588 6.57109 32.8425 6.65582 33.3885 6.82526C33.9439 6.99471 34.4193 7.24417 34.8146 7.57365C35.2194 7.90313 35.5113 8.30792 35.6901 8.78802C35.8784 9.26812 35.9207 9.81882 35.8172 10.4401C35.7513 10.8449 35.6713 11.2638 35.5771 11.6969C35.483 12.1299 35.3889 12.5394 35.2947 12.9253C34.9747 14.1868 34.4004 15.1376 33.572 15.7777C32.7436 16.4178 31.5669 16.7379 30.0419 16.7379ZM30.3525 13.9844C30.6632 13.9844 30.9315 13.8949 31.1574 13.7161C31.3833 13.5278 31.5434 13.236 31.6375 12.8406C31.7411 12.4358 31.8352 12.0357 31.9199 11.6404C32.0047 11.245 32.08 10.8543 32.1459 10.4684C32.2212 10.073 32.1788 9.78587 32.0188 9.60701C31.8682 9.41874 31.6422 9.3246 31.341 9.3246C31.0397 9.3246 30.7762 9.41874 30.5502 9.60701C30.3243 9.78587 30.1596 10.073 30.056 10.4684C29.9619 10.8543 29.8724 11.245 29.7877 11.6404C29.703 12.0357 29.623 12.4358 29.5477 12.8406C29.4818 13.236 29.5194 13.5278 29.6606 13.7161C29.8113 13.8949 30.0419 13.9844 30.3525 13.9844ZM36.7518 16.5967C36.6483 16.5967 36.5635 16.559 36.4976 16.4837C36.4411 16.4084 36.4223 16.319 36.4411 16.2154L38.3898 7.09355C38.4086 6.99 38.4604 6.90057 38.5451 6.82526C38.6392 6.74995 38.7381 6.7123 38.8416 6.7123H41.0727C41.261 6.7123 41.388 6.75466 41.4539 6.83938C41.5198 6.92411 41.5622 6.99 41.581 7.03707L43.1484 10.9485L43.9674 7.09355C43.9862 6.99 44.038 6.90057 44.1227 6.82526C44.2169 6.74995 44.3157 6.7123 44.4193 6.7123H46.9751C47.0786 6.7123 47.1586 6.74995 47.2151 6.82526C47.281 6.90057 47.3046 6.99 47.2857 7.09355L45.3371 16.2154C45.3183 16.319 45.2618 16.4084 45.1676 16.4837C45.0829 16.559 44.9888 16.5967 44.8852 16.5967H42.6542C42.4659 16.5967 42.3341 16.5543 42.2588 16.4696C42.1929 16.3755 42.1506 16.3096 42.1317 16.2719L40.522 12.6712L39.7595 16.2154C39.7406 16.319 39.6842 16.4084 39.59 16.4837C39.5053 16.559 39.4112 16.5967 39.3076 16.5967H36.7518ZM53.1702 16.5967C53.0667 16.5967 52.982 16.559 52.9161 16.4837C52.8596 16.4084 52.8408 16.319 52.8596 16.2154L54.2434 9.74822H51.8994C51.7958 9.74822 51.7111 9.71056 51.6452 9.63525C51.5887 9.55994 51.5699 9.47051 51.5887 9.36696L52.083 7.09355C52.1018 6.99 52.1536 6.90057 52.2383 6.82526C52.3324 6.74995 52.4313 6.7123 52.5348 6.7123H60.8095C60.913 6.7123 60.993 6.74995 61.0495 6.82526C61.1154 6.90057 61.1389 6.99 61.1201 7.09355L60.6259 9.36696C60.6071 9.47051 60.5506 9.55994 60.4564 9.63525C60.3717 9.71056 60.2776 9.74822 60.174 9.74822H57.83L56.4462 16.2154C56.4274 16.319 56.3709 16.4084 56.2768 16.4837C56.192 16.559 56.0979 16.5967 55.9944 16.5967H53.1702ZM61.0474 16.5967C60.9439 16.5967 60.8591 16.5637 60.7932 16.4978C60.7368 16.4225 60.7179 16.3284 60.7368 16.2154L62.6854 7.09355C62.7042 6.99 62.756 6.90057 62.8407 6.82526C62.9349 6.74995 63.0337 6.7123 63.1373 6.7123H65.9049C66.0084 6.7123 66.0884 6.74995 66.1449 6.82526C66.2108 6.90057 66.2344 6.99 66.2155 7.09355L65.5801 10.0589H67.8676L68.5031 7.09355C68.5219 6.99 68.5737 6.90057 68.6584 6.82526C68.7525 6.74995 68.8514 6.7123 68.9549 6.7123H71.7225C71.8261 6.7123 71.9061 6.74995 71.9626 6.82526C72.0285 6.90057 72.052 6.99 72.0332 7.09355L70.0846 16.2154C70.0657 16.319 70.0093 16.4084 69.9151 16.4837C69.8304 16.559 69.7363 16.5967 69.6327 16.5967H66.8651C66.7615 16.5967 66.6768 16.559 66.6109 16.4837C66.5544 16.4084 66.5356 16.319 66.5544 16.2154L67.204 13.1654H64.9164L64.2669 16.2154C64.2481 16.319 64.1916 16.4084 64.0974 16.4837C64.0127 16.559 63.9186 16.5967 63.815 16.5967H61.0474ZM72.506 16.5967C72.4025 16.5967 72.3177 16.559 72.2518 16.4837C72.1954 16.4084 72.1765 16.319 72.1954 16.2154L74.144 7.09355C74.1628 6.99 74.2146 6.90057 74.2993 6.82526C74.3935 6.74995 74.4923 6.7123 74.5959 6.7123H81.8397C81.9432 6.7123 82.0233 6.74995 82.0797 6.82526C82.1456 6.90057 82.1692 6.99 82.1503 7.09355L81.7267 9.08455C81.7079 9.1881 81.6514 9.27753 81.5573 9.35284C81.4631 9.42815 81.3643 9.46581 81.2607 9.46581H77.0246L76.8269 10.3554H80.7524C80.856 10.3554 80.936 10.3931 80.9925 10.4684C81.0584 10.5437 81.0819 10.6331 81.0631 10.7367L80.6677 12.5723C80.6489 12.6759 80.5924 12.7653 80.4982 12.8406C80.4041 12.9159 80.3053 12.9536 80.2017 12.9536H76.2762L76.0926 13.8432H80.4418C80.5453 13.8432 80.6253 13.8808 80.6818 13.9561C80.7383 14.0314 80.7571 14.1209 80.7383 14.2244L80.3147 16.2154C80.2958 16.319 80.2394 16.4084 80.1452 16.4837C80.0605 16.559 79.9664 16.5967 79.8628 16.5967H72.506ZM89.9942 16.7379C89.0434 16.7379 88.248 16.5967 87.6078 16.3143C86.9771 16.0319 86.5252 15.6035 86.2522 15.0293C85.9793 14.4551 85.9181 13.7302 86.0687 12.8547C86.1346 12.4688 86.2146 12.0499 86.3087 11.598C86.4123 11.1461 86.5111 10.7178 86.6053 10.313C86.8124 9.47522 87.1748 8.78331 87.6925 8.23732C88.2197 7.68191 88.8646 7.26771 89.6271 6.99471C90.3896 6.7123 91.2321 6.57109 92.1546 6.57109C92.8983 6.57109 93.5479 6.65582 94.1033 6.82526C94.6681 6.9853 95.1294 7.21122 95.4871 7.50305C95.8448 7.79487 96.0943 8.13377 96.2355 8.51973C96.3861 8.89628 96.4237 9.29636 96.3484 9.71997C96.3296 9.8047 96.2825 9.88001 96.2072 9.9459C96.1319 10.0024 96.0519 10.0306 95.9672 10.0306H92.8465C92.743 10.0306 92.663 10.0165 92.6065 9.98826C92.55 9.96002 92.5029 9.92237 92.4653 9.8753C92.4465 9.82823 92.4088 9.76234 92.3523 9.67761C92.3053 9.58348 92.2205 9.50346 92.0982 9.43756C91.9852 9.36225 91.811 9.3246 91.5757 9.3246C91.2274 9.3246 90.9403 9.41403 90.7143 9.59289C90.4978 9.76234 90.3472 10.0259 90.2625 10.3836C90.1683 10.7696 90.0789 11.165 89.9942 11.5698C89.9095 11.9746 89.8295 12.3793 89.7541 12.7841C89.6788 13.2077 89.7212 13.5137 89.8812 13.702C90.0413 13.8902 90.2954 13.9844 90.6437 13.9844C90.8791 13.9844 91.0909 13.9514 91.2792 13.8855C91.4769 13.8196 91.6416 13.7114 91.7734 13.5608C91.9146 13.4101 92.0087 13.2172 92.0558 12.9818V12.9677H91.3921C91.2886 12.9677 91.2086 12.93 91.1521 12.8547C91.0956 12.7794 91.0768 12.69 91.0956 12.5864L91.4204 11.0191C91.4392 10.9155 91.4957 10.8261 91.5898 10.7508C91.684 10.6755 91.7828 10.6378 91.8863 10.6378H95.7695C95.873 10.6378 95.9531 10.6755 96.0095 10.7508C96.066 10.8261 96.0849 10.9155 96.066 11.0191L95.6848 12.8547C95.5153 13.702 95.1576 14.4127 94.6116 14.9869C94.075 15.5612 93.4067 15.9989 92.6065 16.3001C91.8157 16.592 90.945 16.7379 89.9942 16.7379ZM101.233 16.7379C100.612 16.7379 100.023 16.6579 99.4681 16.4978C98.9221 16.3378 98.4467 16.0978 98.0419 15.7777C97.6465 15.4576 97.3547 15.0622 97.1664 14.5916C96.9876 14.1115 96.9499 13.5561 97.0535 12.9253C97.1194 12.5394 97.1994 12.1299 97.2935 11.6969C97.3877 11.2638 97.4818 10.8449 97.5759 10.4401C97.8866 9.20693 98.4561 8.25614 99.2845 7.58777C100.122 6.90999 101.304 6.57109 102.829 6.57109C103.45 6.57109 104.034 6.65582 104.58 6.82526C105.135 6.99471 105.611 7.24417 106.006 7.57365C106.411 7.90313 106.703 8.30792 106.881 8.78802C107.07 9.26812 107.112 9.81882 107.008 10.4401C106.943 10.8449 106.863 11.2638 106.768 11.6969C106.674 12.1299 106.58 12.5394 106.486 12.9253C106.166 14.1868 105.592 15.1376 104.763 15.7777C103.935 16.4178 102.758 16.7379 101.233 16.7379ZM101.544 13.9844C101.854 13.9844 102.123 13.8949 102.349 13.7161C102.575 13.5278 102.735 13.236 102.829 12.8406C102.932 12.4358 103.026 12.0357 103.111 11.6404C103.196 11.245 103.271 10.8543 103.337 10.4684C103.412 10.073 103.37 9.78587 103.21 9.60701C103.059 9.41874 102.833 9.3246 102.532 9.3246C102.231 9.3246 101.967 9.41874 101.741 9.60701C101.516 9.78587 101.351 10.073 101.247 10.4684C101.153 10.8543 101.064 11.245 100.979 11.6404C100.894 12.0357 100.814 12.4358 100.739 12.8406C100.673 13.236 100.711 13.5278 100.852 13.7161C101.003 13.8949 101.233 13.9844 101.544 13.9844Z" fill="#DDDFE1"/>
<path fill-rule="evenodd" clip-rule="evenodd" d="M0.962891 16.3282L6.29182 18.3221V2.23527L0.962891 0.772461V16.3282Z" fill="#DDDFE1"/>
<path fill-rule="evenodd" clip-rule="evenodd" d="M16.533 11.6655C14.6913 11.6655 13.2001 13.3008 13.2001 15.3192C13.2001 15.8407 13.3029 16.3338 13.4802 16.7847L16.5438 22.424L19.5818 16.7847C19.7631 16.3338 19.8633 15.8407 19.8633 15.3192C19.8633 13.3008 18.3707 11.6655 16.533 11.6655ZM16.5547 17.1541C16.0163 17.1545 15.4999 16.9402 15.119 16.5584C14.7381 16.1765 14.5239 15.6585 14.5235 15.1181C14.5231 14.5778 14.7367 14.0595 15.1171 13.6771C15.4975 13.2948 16.0136 13.0798 16.552 13.0794C16.8185 13.0793 17.0825 13.1318 17.3288 13.234C17.5752 13.3362 17.799 13.4861 17.9877 13.6752C18.1763 13.8643 18.3259 14.0888 18.4281 14.3359C18.5303 14.583 18.583 14.8479 18.5831 15.1154C18.5833 15.383 18.531 15.6479 18.4291 15.8952C18.3273 16.1424 18.1779 16.3671 17.9896 16.5564C17.8012 16.7457 17.5775 16.896 17.3313 16.9985C17.0851 17.1011 16.8212 17.1539 16.5547 17.1541Z" fill="#DDDFE1"/>
<path fill-rule="evenodd" clip-rule="evenodd" d="M22.6145 2.10894L15.8904 0.848511V10.1578C16.1015 10.1306 16.3126 10.0953 16.5332 10.0953C19.2084 10.0953 21.3749 12.1883 21.3749 14.7717C21.3749 15.4399 21.2288 16.0701 20.9676 16.6488L20.4466 17.5031L22.6145 18.4498V2.10894Z" fill="#DDDFE1"/>
<path fill-rule="evenodd" clip-rule="evenodd" d="M11.6885 14.7717C11.6885 12.9109 12.8225 11.3164 14.4531 10.5639V1.01831L7.771 2.23528V18.3221L12.7521 17.7123L12.0958 16.6488C11.8283 16.0594 11.6894 15.4194 11.6885 14.7717Z" fill="#DDDFE1"/>
</svg>
