<svg width="233" height="81" viewBox="0 0 233 81" fill="none" xmlns="http://www.w3.org/2000/svg">
<g clip-path="url(#clip0_610_80)">
<path d="M123.276 44.3746C124.513 43.9072 125.795 43.5349 127.113 43.7337C129.85 44.1591 131.426 47.1146 130.399 49.891C129.662 51.8894 128.837 53.8569 128.053 55.8385L122.624 69.4966C122.562 69.6533 122.523 69.8157 122.472 69.9668L122.416 70.048H122.548L130.105 67.4843C131.84 66.8937 133.567 66.278 135.313 65.7098C135.781 65.5559 135.957 65.36 135.909 64.8478C135.439 59.5301 139.047 52.687 144.356 49.9386C154.868 44.4837 166.047 51.1589 167.777 61.201L167.905 61.9762C168.082 63.0398 167.679 63.6919 166.637 63.9942L157.681 66.611L147.39 69.6169L146.87 69.7821C148.035 70.9259 149.568 71.62 151.196 71.7412C152.49 71.8913 153.8 71.7089 155.004 71.2113C156.207 70.7137 157.263 69.9174 158.073 68.8977C158.798 68.0216 159.377 67.9601 160.376 68.4946C161.751 69.2587 163.131 70.02 164.502 70.7896C164.69 70.8696 164.861 70.9859 165.004 71.132C165.147 71.278 165.261 71.4508 165.337 71.6406C165.413 71.8303 165.452 72.0333 165.45 72.2379C165.448 72.4425 165.405 72.6446 165.325 72.8328C165.261 72.9868 165.171 73.1288 165.059 73.2526C163.733 75.1411 162.007 76.7141 160.003 77.8596C158 79.0051 155.769 79.695 153.469 79.8801C150.886 80.1844 148.268 79.8041 145.879 78.7774C143.122 77.5139 140.737 75.5598 138.957 73.1042C138.677 72.7404 138.49 72.634 138.062 72.788C131.425 75.0886 124.788 77.3761 118.151 79.6506C117.335 79.9703 116.499 80.2377 115.649 80.4511C115.031 80.5688 114.394 80.5316 113.794 80.3429C113.194 80.1542 112.65 79.8199 112.21 79.3697C111.771 78.9196 111.45 78.3677 111.276 77.7632C111.102 77.1588 111.08 76.5207 111.213 75.9058C111.683 73.6332 112.721 71.5649 113.561 69.4294C115.568 64.2908 117.63 59.1746 119.662 54.036C119.735 53.8485 119.774 53.6442 119.83 53.4511L123.276 44.3746ZM157.236 58.2482C155.244 56.1547 151.493 55.6285 148.622 56.986C146.531 57.9795 145.204 59.628 144.477 61.9538L157.236 58.2482Z" fill="#ED1C24"/>
<path d="M99.3235 51.6767C107.093 49.3005 115.302 46.8152 123.06 44.4222L123.276 44.3746L119.836 53.4707L107.907 57.1679L105.344 57.9488" fill="#ED1C24"/>
<path d="M179.277 69.7822C182.215 72.6593 187.393 72.4158 190.128 69.312C191.39 67.9126 191.58 67.8454 193.251 68.769C194.483 69.4519 195.709 70.1357 196.932 70.8205C197.117 70.9038 197.284 71.0227 197.424 71.1706C197.563 71.3185 197.672 71.4924 197.744 71.6823C197.817 71.8723 197.851 72.0747 197.845 72.2778C197.839 72.481 197.793 72.681 197.71 72.8664C197.648 73.002 197.568 73.1283 197.472 73.2415C196.148 75.1288 194.425 76.701 192.425 77.846C190.424 78.9911 188.196 79.6809 185.899 79.8662C183.125 80.1461 180.388 79.8662 177.922 78.5872C173.776 76.515 170.595 72.9165 169.047 68.5479C166.307 61.2514 171.247 50.8511 180.309 48.5197C189.372 46.1883 198.588 51.9958 200.161 61.1899C200.209 61.4697 200.251 61.7496 200.298 62.0295C200.48 63.0707 200.058 63.7088 198.994 64.0222L188.157 67.1849L179.277 69.7822ZM189.632 58.2483C187.656 56.1744 183.939 55.6342 181.088 56.9609C178.977 57.9489 177.645 59.6281 176.887 61.9539L189.632 58.2483Z" fill="#ED1C24"/>
<path d="M211.743 69.7905C214.262 72.3346 218.824 72.4913 221.701 70.1291C222.165 69.7228 222.6 69.2841 223.002 68.8165C223.663 68.0972 224.251 67.9769 225.104 68.4499C226.522 69.2391 227.946 70.0302 229.375 70.8232C229.75 70.9909 230.043 71.3005 230.19 71.6841C230.337 72.0677 230.326 72.4939 230.159 72.8692C230.099 73.0011 230.022 73.1244 229.929 73.2358C228.607 75.1234 226.885 76.6963 224.886 77.8423C222.886 78.9883 220.659 79.6794 218.362 79.8661C215.502 80.146 212.728 79.8661 210.159 78.4919C206.11 76.3951 203.009 72.8387 201.482 68.5422C198.723 61.1926 203.721 50.7838 212.862 48.472C216.993 47.4295 221.37 48.0708 225.028 50.2548C228.686 52.4388 231.327 55.9866 232.37 60.1178C232.462 60.4845 232.541 60.8539 232.608 61.2373C232.65 61.478 232.692 61.7075 232.731 61.9566C232.907 63.0762 232.515 63.7031 231.441 64.0166L220.609 67.1848L212.255 69.6337L211.743 69.7905ZM222.068 58.251C220.321 56.4598 217.03 55.6202 214.004 56.7453C211.326 57.7416 209.571 60.3837 209.448 61.9091L222.068 58.251Z" fill="#ED1C24"/>
<path d="M58.7212 49.6363C65.6287 49.0961 74.137 55.2339 74.1454 64.8589C74.1454 73.3057 67.1904 80.1852 58.6596 80.2187C54.5523 80.2098 50.6167 78.5699 47.7184 75.6595C44.8201 72.7491 43.1965 68.8067 43.2047 64.6994C43.2047 64.5315 43.2047 64.3607 43.2047 64.1928C43.5489 55.6509 51.2204 49.0961 58.7212 49.6363ZM58.7212 71.1142C60.3789 71.1079 61.9664 70.4442 63.1352 69.2687C64.304 68.0932 64.9587 66.502 64.9555 64.8443C64.9524 63.1866 64.2917 61.5979 63.1184 60.4268C61.9451 59.2558 60.3551 58.5981 58.6974 58.5981C57.0397 58.5981 55.4498 59.2558 54.2765 60.4268C53.1032 61.5979 52.4425 63.1866 52.4393 64.8443C52.4362 66.502 53.0909 68.0932 54.2597 69.2687C55.4285 70.4442 57.016 71.1079 58.6736 71.1142H58.7212Z" fill="#043F7C"/>
<path d="M91.4673 49.5104C98.3747 48.9702 106.883 55.108 106.891 64.7331C106.891 73.1798 99.9364 80.0593 91.4057 80.0929C87.2984 80.084 83.3628 78.444 80.4645 75.5336C77.5662 72.6233 75.9426 68.6809 75.9507 64.5735C75.9507 64.4056 75.9507 64.2349 75.9507 64.067C76.295 55.525 83.9665 48.9702 91.4673 49.5104ZM91.4673 70.9884C93.125 70.9821 94.7124 70.3183 95.8812 69.1428C97.0501 67.9673 97.7047 66.3761 97.7016 64.7184C97.6984 63.0607 97.0377 61.472 95.8644 60.301C94.6912 59.1299 93.1012 58.4722 91.4435 58.4722C89.7858 58.4722 88.1958 59.1299 87.0225 60.301C85.8493 61.472 85.1885 63.0607 85.1854 64.7184C85.1822 66.3761 85.8369 67.9673 87.0057 69.1428C88.1746 70.3183 89.762 70.9821 91.4197 70.9884H91.4673Z" fill="#043F7C"/>
<path d="M29.0092 63.6108L32.2055 56.054C32.4322 55.5194 32.6757 54.9849 32.8828 54.4531C33.2858 53.2758 34.1401 52.3069 35.2575 51.7595C35.8108 51.4884 36.4121 51.329 37.027 51.2903C37.642 51.2516 38.2585 51.3344 38.8414 51.534C39.4243 51.7335 39.9623 52.046 40.4244 52.4534C40.8866 52.8609 41.264 53.3554 41.5351 53.9087C41.8061 54.462 41.9656 55.0633 42.0043 55.6782C42.0429 56.2931 41.9601 56.9097 41.7606 57.4926C41.6899 57.703 41.6039 57.9078 41.5031 58.1055C39.7846 62.2058 38.0382 66.2948 36.3085 70.4202C35.3308 72.7246 34.3587 75.0317 33.3922 77.3417C33.0559 78.235 32.4553 79.0045 31.6705 79.5477C30.8857 80.0908 29.9539 80.3818 28.9994 80.3818C28.045 80.3818 27.1132 80.0908 26.3284 79.5477C25.5435 79.0045 24.943 78.235 24.6067 77.3417L20.9683 68.6878C20.9067 68.5423 20.8367 68.4079 20.7248 68.1588C20.5877 68.4583 20.4841 68.6682 20.3945 68.8865C19.205 71.7385 18.0016 74.6045 16.7561 77.4592C16.567 78.0541 16.2612 78.6054 15.8565 79.0806C15.4518 79.5559 14.9564 79.9456 14.3992 80.2271C13.842 80.5085 13.2343 80.676 12.6116 80.7197C11.9889 80.7634 11.3637 80.6825 10.7727 80.4816C10.1817 80.2808 9.63667 79.964 9.16954 79.55C8.70242 79.1359 8.32259 78.6328 8.05228 78.0701C7.78197 77.5075 7.62661 76.8965 7.5953 76.2731C7.56398 75.6497 7.65734 75.0262 7.86992 74.4393C7.94529 74.2075 8.03888 73.9819 8.1498 73.7648C9.71153 70.0126 11.2891 66.2808 12.8826 62.5696C14.0189 59.8632 15.1496 57.1511 16.3139 54.4755C16.6203 53.732 17.1109 53.0788 17.7396 52.5775C18.3683 52.0761 19.1143 51.7431 19.9073 51.6098C20.7003 51.4765 21.5142 51.5474 22.2722 51.8156C23.0302 52.0839 23.7075 52.5408 24.2401 53.1433C24.6363 53.614 24.953 54.1462 25.1777 54.719C26.4036 57.5346 27.5903 60.3922 28.7909 63.2273C28.8705 63.3512 28.9434 63.4792 29.0092 63.6108Z" fill="#043F7C"/>
<path d="M5.81839 67.4871C4.77164 65.6762 3.79206 63.941 2.78169 62.2141C2.31149 61.3745 1.79092 60.5712 1.30392 59.7596C0.153618 57.8284 0.117234 55.8776 1.34031 53.9997C1.86067 53.1283 2.63208 52.4344 3.55349 52.0089C4.4749 51.5834 5.50334 51.4462 6.50409 51.6151C7.55951 51.719 8.55631 52.1493 9.35587 52.846C10.1554 53.5428 10.718 54.4713 10.9654 55.5026C11.1719 56.1895 11.2303 56.9124 11.1367 57.6236C11.0431 58.3348 10.7997 59.018 10.4224 59.628C8.98756 62.0928 7.54991 64.5614 6.10946 67.0337C6.0311 67.14 5.95273 67.266 5.81839 67.4871Z" fill="#ED1C24"/>
</g>
<g clip-path="url(#clip1_610_80)">
<path d="M96.6848 17.8697L94.5028 30.3878C94.2337 31.7706 93.1319 32.6114 91.8614 32.6272H60.0494L59.4178 36.1874H89.7368C91.3332 36.3087 92.4162 37.4396 92.4356 38.8861C92.3195 40.4793 91.1887 41.5652 89.7368 41.585H56.2021C54.3884 41.4219 53.307 39.9762 53.5032 38.3694L54.9388 30.5599L52.7567 8.62455L46.5551 6.67232C45.0396 6.0706 44.4211 4.69962 44.7751 3.28441C45.3636 1.80949 46.7738 1.13562 48.163 1.50432L56.0872 4.03091C57.1548 4.43109 57.7689 5.30493 57.9247 6.32782L58.3841 10.6919L94.3304 14.7115C95.9821 15.0692 96.8787 16.3775 96.6848 17.8697ZM64.4189 47.2518C64.4189 49.5272 62.5744 51.3718 60.2989 51.3718C58.0234 51.3718 56.1789 49.5272 56.1789 47.2518C56.1789 44.9763 58.0235 43.1317 60.2989 43.1317C62.5743 43.1317 64.4189 44.9764 64.4189 47.2518ZM89.0154 47.2518C89.0154 49.5272 87.1708 51.3718 84.8953 51.3718C82.6199 51.3718 80.7753 49.5272 80.7753 47.2518C80.7753 44.9763 82.6199 43.1317 84.8953 43.1317C87.1708 43.1317 89.0154 44.9764 89.0154 47.2518Z" fill="#ED1C24"/>
<path d="M74.3076 16.2709C74.4226 16.2709 74.5328 16.3166 74.6142 16.3979C74.6955 16.4792 74.7412 16.5895 74.7412 16.7045V18.1498C74.7412 18.2648 74.6955 18.3751 74.6142 18.4564C74.5328 18.5378 74.4226 18.5834 74.3076 18.5834C74.1926 18.5834 74.0823 18.5378 74.001 18.4564C73.9196 18.3751 73.874 18.2648 73.874 18.1498V16.7045C73.874 16.5895 73.9196 16.4792 74.001 16.3979C74.0823 16.3166 74.1926 16.2709 74.3076 16.2709ZM71.544 17.4098C71.6253 17.3286 71.7355 17.283 71.8504 17.283C71.9654 17.283 72.0756 17.3286 72.1569 17.4098L73.1686 18.4216C73.2112 18.4613 73.2454 18.5091 73.2691 18.5623C73.2928 18.6155 73.3055 18.6729 73.3066 18.7312C73.3076 18.7894 73.2969 18.8472 73.2751 18.9012C73.2533 18.9552 73.2208 19.0042 73.1796 19.0454C73.1384 19.0866 73.0894 19.119 73.0354 19.1409C72.9814 19.1627 72.9236 19.1734 72.8654 19.1723C72.8071 19.1713 72.7497 19.1586 72.6965 19.1349C72.6434 19.1112 72.5955 19.077 72.5558 19.0344L71.544 18.0226C71.4628 17.9413 71.4172 17.8311 71.4172 17.7162C71.4172 17.6013 71.4628 17.4911 71.544 17.4098ZM77.0711 17.4098C77.1523 17.4911 77.1979 17.6013 77.1979 17.7162C77.1979 17.8311 77.1523 17.9413 77.0711 18.0226L76.0593 19.0344C76.0196 19.077 75.9718 19.1112 75.9186 19.1349C75.8654 19.1586 75.808 19.1713 75.7498 19.1723C75.6915 19.1734 75.6337 19.1627 75.5797 19.1409C75.5257 19.119 75.4767 19.0866 75.4355 19.0454C75.3943 19.0042 75.3619 18.9552 75.3401 18.9012C75.3182 18.8472 75.3075 18.7894 75.3086 18.7312C75.3096 18.6729 75.3223 18.6155 75.346 18.5623C75.3697 18.5091 75.4039 18.4613 75.4465 18.4216L76.4583 17.4098C76.5396 17.3286 76.6498 17.283 76.7647 17.283C76.8796 17.283 76.9898 17.3286 77.0711 17.4098ZM70.4051 20.1733C70.4051 20.0583 70.4508 19.9481 70.5321 19.8667C70.6134 19.7854 70.7237 19.7397 70.8387 19.7397H72.2841C72.3991 19.7397 72.5093 19.7854 72.5907 19.8667C72.672 19.9481 72.7177 20.0583 72.7177 20.1733C72.7177 20.2883 72.672 20.3986 72.5907 20.48C72.5093 20.5613 72.3991 20.607 72.2841 20.607H70.8387C70.7237 20.607 70.6134 20.5613 70.5321 20.48C70.4508 20.3986 70.4051 20.2883 70.4051 20.1733ZM73.874 20.5994C73.874 19.9479 74.6383 19.5964 75.1326 20.0207L80.0242 24.2134C80.5504 24.6644 80.2509 25.5264 79.5588 25.5547L77.3388 25.6432C77.1 25.6524 76.8757 25.7588 76.7161 25.9363L75.2048 27.6256C74.7383 28.1477 73.874 27.817 73.874 27.1168V20.6V20.5994Z" fill="white"/>
<circle cx="85.1567" cy="47.4405" r="4.70685" fill="white"/>
<circle cx="60.6811" cy="47.4405" r="4.70685" fill="white"/>
</g>
<defs>
<clipPath id="clip0_610_80">
<rect width="232.337" height="36.9749" fill="white" transform="translate(0.433411 43.6749)"/>
</clipPath>
<clipPath id="clip1_610_80">
<rect width="52.0329" height="52.0329" fill="white" transform="translate(44.6778 0.371948)"/>
</clipPath>
</defs>
</svg>
