<svg width="234" height="38" viewBox="0 0 234 38" fill="none" xmlns="http://www.w3.org/2000/svg">
<g clip-path="url(#clip0_439_2684)">
<path d="M123.687 1.14949C124.924 0.682094 126.206 0.309854 127.524 0.508569C130.261 0.933986 131.837 3.88952 130.81 6.66593C130.074 8.66427 129.248 10.6318 128.464 12.6134L123.035 26.2715C122.973 26.4282 122.934 26.5906 122.884 26.7417L122.828 26.8229H122.959L130.516 24.2592C132.251 23.6686 133.978 23.0529 135.725 22.4847C136.192 22.3308 136.368 22.1349 136.321 21.6227C135.85 16.305 139.458 9.46193 144.767 6.71351C155.28 1.25865 166.458 7.93378 168.188 17.9759L168.317 18.7511C168.493 19.8147 168.09 20.4668 167.049 20.7691L158.093 23.3859L147.801 26.3919L147.281 26.557C148.446 27.7008 149.979 28.3949 151.608 28.5161C152.901 28.6662 154.211 28.4838 155.415 27.9862C156.618 27.4886 157.675 26.6923 158.484 25.6726C159.209 24.7965 159.789 24.735 160.788 25.2695C162.162 26.0336 163.542 26.7949 164.913 27.5646C165.101 27.6445 165.272 27.7609 165.415 27.9069C165.559 28.0529 165.672 28.2257 165.748 28.4155C165.825 28.6053 165.863 28.8082 165.861 29.0128C165.859 29.2174 165.816 29.4195 165.736 29.6077C165.672 29.7618 165.582 29.9037 165.47 30.0275C164.144 31.916 162.418 33.489 160.415 34.6345C158.412 35.78 156.18 36.4699 153.88 36.6551C151.297 36.9593 148.68 36.579 146.29 35.5523C143.533 34.2888 141.149 32.3347 139.369 29.8792C139.089 29.5153 138.901 29.409 138.473 29.5629C131.836 31.8635 125.199 34.1511 118.562 36.4255C117.746 36.7452 116.91 37.0126 116.06 37.226C115.442 37.3437 114.805 37.3065 114.205 37.1178C113.605 36.9291 113.061 36.5948 112.622 36.1446C112.182 35.6945 111.861 35.1426 111.687 34.5382C111.513 33.9337 111.491 33.2956 111.624 32.6808C112.094 30.4081 113.133 28.3398 113.972 26.2043C115.979 21.0657 118.042 15.9495 120.074 10.8109C120.146 10.6234 120.186 10.4191 120.242 10.226L123.687 1.14949ZM157.648 15.0231C155.655 12.9296 151.904 12.4035 149.033 13.7609C146.942 14.7545 145.615 16.4029 144.888 18.7287L157.648 15.0231Z" fill="#ED1C24"/>
<path d="M99.7347 8.45156C107.504 6.07538 115.713 3.59005 123.471 1.19708L123.687 1.1495L120.247 10.2456L108.319 13.9428L105.755 14.7237" fill="#ED1C24"/>
<path d="M179.688 26.557C182.627 29.4342 187.804 29.1907 190.539 26.0868C191.801 24.6874 191.991 24.6202 193.662 25.5438C194.894 26.2267 196.121 26.9106 197.343 27.5953C197.528 27.6786 197.695 27.7975 197.835 27.9454C197.974 28.0933 198.083 28.2672 198.156 28.4572C198.228 28.6471 198.262 28.8495 198.256 29.0527C198.25 29.2558 198.204 29.4558 198.121 29.6413C198.06 29.7769 197.98 29.9031 197.883 30.0163C196.56 31.9036 194.837 33.4758 192.836 34.6209C190.836 35.766 188.607 36.4557 186.31 36.6411C183.536 36.9209 180.799 36.6411 178.333 35.362C174.188 33.2898 171.006 29.6913 169.458 25.3227C166.718 18.0263 171.658 7.62592 180.721 5.29453C189.783 2.96313 199 8.77063 200.573 17.9647C200.62 18.2446 200.662 18.5244 200.71 18.8043C200.892 19.8455 200.469 20.4836 199.406 20.7971L188.569 23.9597L179.688 26.557ZM190.044 15.0231C188.068 12.9492 184.351 12.4091 181.499 13.7357C179.388 14.7237 178.056 16.403 177.298 18.7288L190.044 15.0231Z" fill="#ED1C24"/>
<path d="M212.154 26.5654C214.673 29.1095 219.235 29.2662 222.112 26.904C222.576 26.4977 223.011 26.0591 223.414 25.5914C224.074 24.8721 224.662 24.7518 225.516 25.2248C226.934 26.014 228.357 26.8051 229.786 27.5981C230.161 27.7658 230.455 28.0754 230.602 28.459C230.748 28.8426 230.737 29.2688 230.57 29.6441C230.51 29.776 230.433 29.8994 230.341 30.0107C229.019 31.8983 227.297 33.4712 225.297 34.6172C223.298 35.7633 221.07 36.4543 218.773 36.6411C215.913 36.9209 213.139 36.6411 210.57 35.2668C206.521 33.17 203.42 29.6136 201.894 25.3171C199.134 17.9675 204.133 7.55874 213.274 5.24693C217.405 4.2044 221.781 4.84568 225.439 7.02969C229.098 9.2137 231.739 12.7615 232.781 16.8927C232.874 17.2594 232.952 17.6288 233.019 18.0123C233.061 18.2529 233.103 18.4825 233.142 18.7315C233.319 19.8511 232.927 20.478 231.852 20.7915L221.021 23.9597L212.666 26.4086L212.154 26.5654ZM222.479 15.0259C220.732 13.2347 217.441 12.3951 214.415 13.5202C211.737 14.5166 209.982 17.1586 209.859 18.684L222.479 15.0259Z" fill="#ED1C24"/>
<path d="M59.1325 6.41124C66.04 5.87107 74.5483 12.0088 74.5567 21.6339C74.5567 30.0807 67.6017 36.9601 59.071 36.9937C54.9636 36.9848 51.028 35.3448 48.1297 32.4345C45.2314 29.5241 43.6078 25.5817 43.616 21.4744C43.616 21.3064 43.616 21.1357 43.616 20.9678C43.9602 12.4259 51.6318 5.87107 59.1325 6.41124ZM59.1325 27.8892C60.7902 27.8829 62.3777 27.2192 63.5465 26.0437C64.7153 24.8682 65.37 23.2769 65.3668 21.6193C65.3637 19.9616 64.703 18.3728 63.5297 17.2018C62.3564 16.0307 60.7664 15.373 59.1087 15.373C57.4511 15.373 55.8611 16.0307 54.6878 17.2018C53.5145 18.3728 52.8538 19.9616 52.8506 21.6193C52.8475 23.2769 53.5022 24.8682 54.671 26.0437C55.8398 27.2192 57.4273 27.8829 59.085 27.8892H59.1325Z" fill="#043F7C"/>
<path d="M91.8786 6.28529C98.786 5.74512 107.294 11.8829 107.303 21.508C107.303 29.9547 100.348 36.8342 91.817 36.8678C87.7097 36.8589 83.774 35.2189 80.8758 32.3085C77.9775 29.3982 76.3539 25.4558 76.362 21.3484C76.362 21.1805 76.362 21.0098 76.362 20.8418C76.7063 12.2999 84.3778 5.74512 91.8786 6.28529ZM91.8786 27.7633C93.5363 27.757 95.1237 27.0932 96.2925 25.9177C97.4613 24.7422 98.116 23.151 98.1129 21.4933C98.1097 19.8356 97.449 18.2469 96.2757 17.0758C95.1024 15.9048 93.5125 15.2471 91.8548 15.2471C90.1971 15.2471 88.6071 15.9048 87.4338 17.0758C86.2605 18.2469 85.5998 19.8356 85.5967 21.4933C85.5935 23.151 86.2482 24.7422 87.417 25.9177C88.5858 27.0932 90.1733 27.757 91.831 27.7633H91.8786Z" fill="#043F7C"/>
<path d="M29.4205 20.3857L32.6168 12.8289C32.8435 12.2943 33.087 11.7598 33.2941 11.228C33.6971 10.0507 34.5513 9.08178 35.6688 8.53434C36.2221 8.26327 36.8234 8.10384 37.4383 8.06515C38.0533 8.02646 38.6698 8.10926 39.2527 8.30884C39.8356 8.50841 40.3735 8.82085 40.8357 9.22831C41.2979 9.63577 41.6753 10.1303 41.9464 10.6836C42.2174 11.2369 42.3769 11.8382 42.4155 12.4531C42.4542 13.068 42.3714 13.6846 42.1719 14.2675C42.1012 14.4779 42.0152 14.6827 41.9144 14.8804C40.1959 18.9807 38.4494 23.0697 36.7198 27.1951C35.7421 29.4995 34.77 31.8066 33.8034 34.1166C33.4672 35.0098 32.8666 35.7794 32.0818 36.3226C31.297 36.8657 30.3652 37.1567 29.4107 37.1567C28.4563 37.1567 27.5245 36.8657 26.7397 36.3226C25.9548 35.7794 25.3542 35.0098 25.018 34.1166L21.3796 25.4627C21.318 25.3171 21.248 25.1828 21.1361 24.9337C20.9989 25.2332 20.8954 25.4431 20.8058 25.6614C19.6163 28.5134 18.4129 31.3793 17.1674 34.2341C16.9783 34.829 16.6725 35.3802 16.2678 35.8555C15.8631 36.3308 15.3677 36.7205 14.8105 37.002C14.2533 37.2834 13.6456 37.4509 13.0229 37.4946C12.4002 37.5383 11.775 37.4574 11.184 37.2565C10.593 37.0557 10.048 36.7389 9.58083 36.3248C9.11371 35.9108 8.73387 35.4077 8.46356 34.845C8.19325 34.2824 8.03789 33.6714 8.00658 33.048C7.97527 32.4245 8.06863 31.8011 8.2812 31.2142C8.35658 30.9823 8.45016 30.7568 8.56108 30.5397C10.1228 26.7874 11.7004 23.0557 13.2938 19.3445C14.4302 16.6381 15.5609 13.926 16.7252 11.2504C17.0316 10.5069 17.5222 9.85372 18.1509 9.35236C18.7796 8.85099 19.5256 8.51798 20.3186 8.38469C21.1116 8.2514 21.9254 8.32224 22.6835 8.59053C23.4415 8.85881 24.1188 9.31571 24.6514 9.91815C25.0476 10.3888 25.3643 10.9211 25.589 11.4939C26.8148 14.3095 28.0015 17.167 29.2022 20.0022C29.2818 20.126 29.3547 20.254 29.4205 20.3857Z" fill="#043F7C"/>
<path d="M6.22973 24.262C5.18298 22.4512 4.2034 20.7159 3.19304 18.989C2.72284 18.1494 2.20226 17.3461 1.71527 16.5345C0.564964 14.6033 0.52858 12.6526 1.75166 10.7746C2.27202 9.90321 3.04343 9.20933 3.96484 8.78384C4.88625 8.35834 5.91469 8.22106 6.91544 8.38999C7.97086 8.49396 8.96766 8.92422 9.76721 9.62095C10.5668 10.3177 11.1294 11.2462 11.3767 12.2775C11.5833 12.9644 11.6417 13.6874 11.5481 14.3985C11.4545 15.1097 11.211 15.7929 10.8338 16.4029C9.39891 18.8678 7.96126 21.3363 6.52081 23.8086C6.44244 23.9149 6.36407 24.0409 6.22973 24.262Z" fill="#ED1C24"/>
</g>
<defs>
<clipPath id="clip0_439_2684">
<rect width="232.337" height="36.9749" fill="white" transform="translate(0.844727 0.449812)"/>
</clipPath>
</defs>
</svg>
