<svg width="40" height="14" viewBox="0 0 40 14" fill="none" xmlns="http://www.w3.org/2000/svg">
<path d="M0.82204 7.00321C0.82204 5.88732 0.82204 4.77143 0.82204 3.65554C0.833537 3.323 1.01669 2.9936 1.3635 2.68172C1.99371 2.08074 3.1624 1.55848 4.71208 1.18533C5.72172 0.937506 6.87204 0.760468 8.09337 0.664943C8.79725 0.608496 9.51884 0.580172 10.2429 0.580571C16.9237 0.584562 23.6023 0.585288 30.2787 0.582748C31.1208 0.588604 31.9556 0.636307 32.7554 0.724276C34.0682 0.857972 35.2752 1.08724 36.2888 1.39544C37.1483 1.6538 37.8581 1.96248 38.3827 2.30612C38.8075 2.58273 39.1084 2.87854 39.2758 3.18414C39.3541 3.32019 39.3968 3.45824 39.4034 3.59675C39.41 5.8699 39.41 8.14306 39.4034 10.4162C39.3822 10.6876 39.2394 10.9563 38.9797 11.2137C38.6736 11.5466 38.1983 11.8595 37.5746 12.139C36.6961 12.5385 35.5457 12.8631 34.2178 13.0862C33.2673 13.2504 32.2354 13.356 31.1719 13.3981C30.7718 13.4143 30.3693 13.4232 29.9662 13.4248C23.3138 13.4248 16.6614 13.4248 10.0089 13.4248C9.14723 13.4196 8.29265 13.3717 7.47338 13.2827C6.16092 13.1488 4.95449 12.9193 3.94159 12.611C2.37786 12.1405 1.3278 11.5106 0.956179 10.8201C0.878174 10.6782 0.837126 10.5343 0.833491 10.3901C0.817133 9.26113 0.82204 8.13217 0.82204 7.00321ZM25.6869 10.3449C26.1056 10.351 26.523 10.3259 26.9088 10.2714C27.437 10.2029 27.9054 10.0916 28.2715 9.94754C28.6772 9.79404 28.8604 9.60297 29.0992 9.42062C29.3135 9.25732 29.5147 9.08912 29.7274 8.92418C29.9842 8.72278 30.2476 8.52301 30.5044 8.3216C30.7613 8.1202 31.0099 7.9226 31.2635 7.72283C31.517 7.52306 31.7738 7.32492 32.029 7.12406C32.3268 6.89036 32.6239 6.65702 32.9206 6.42404C33.2085 6.19923 33.498 5.97442 33.7843 5.74906C34.0411 5.54766 34.2865 5.34462 34.5531 5.14485C34.9003 4.89887 34.9513 4.61799 34.6955 4.35991C34.3029 3.96744 33.4931 3.70943 32.2695 3.61689C30.9608 3.51727 29.8632 3.65336 28.9815 3.98432C28.5071 4.16231 28.3189 4.39039 28.0376 4.6016C27.7775 4.79756 27.5354 4.99624 27.2851 5.19329C27.0348 5.39034 26.7633 5.59937 26.5048 5.80295C26.2643 5.99184 26.0271 6.18399 25.785 6.37069C25.7762 6.37738 25.763 6.3833 25.7462 6.38802C25.7295 6.39274 25.7098 6.39612 25.6885 6.39791C25.6574 6.39791 25.61 6.38321 25.5936 6.37178C25.5037 6.30211 25.43 6.23189 25.3335 6.16167C25.0838 5.96426 24.833 5.76684 24.581 5.56943C24.2844 5.33827 23.9878 5.10729 23.6911 4.87649C23.3803 4.63589 23.1055 4.38658 22.7473 4.15687C22.5173 4.00633 22.1814 3.87652 21.768 3.77851C21.3547 3.68051 20.8764 3.61721 20.3736 3.59403C19.6822 3.55299 18.9695 3.58815 18.3436 3.69418C17.576 3.82313 16.9784 4.04176 16.6652 4.3082C16.41 4.51015 16.1614 4.7121 15.9062 4.9135C15.6133 5.14267 15.3123 5.37075 15.0212 5.59991C14.73 5.82908 14.447 6.05933 14.1542 6.2885C13.827 6.54706 13.4818 6.80508 13.1514 7.06418C12.821 7.32329 12.4971 7.58675 12.1699 7.84803C11.738 8.18933 11.2914 8.52845 10.8759 8.87193C10.7193 9.00037 10.6443 9.13824 10.6559 9.2768C10.6674 9.41537 10.7652 9.55164 10.943 9.677C11.1427 9.83723 11.4571 9.97878 11.8588 10.0893C12.2606 10.1998 12.7374 10.276 13.2479 10.3112C14.3799 10.3983 15.3598 10.2986 16.2251 10.051C16.8124 9.88276 17.0692 9.6487 17.3572 9.42116C17.6451 9.19363 17.9461 8.95848 18.2421 8.72713L19.0094 8.12292C19.2482 7.93567 19.4838 7.74787 19.7242 7.56062C19.7406 7.54864 19.7864 7.53395 19.8207 7.53395C19.8419 7.53523 19.8618 7.53818 19.8789 7.54253C19.8959 7.54688 19.9097 7.55252 19.9189 7.55898C20.1234 7.71793 20.3229 7.87797 20.5258 8.03746C20.7744 8.23523 21.0247 8.43283 21.2766 8.63024C21.5335 8.8311 21.7936 9.03196 22.0504 9.23282C22.2598 9.39612 22.4332 9.56541 22.6802 9.72273C23.31 10.1244 24.316 10.3351 25.6836 10.3449H25.6869ZM9.32843 8.07447C9.37992 8.04843 9.42742 8.02154 9.47075 7.99391C9.64578 7.85402 9.81427 7.71303 9.99095 7.57314C10.6175 7.0767 11.2407 6.57972 11.8754 6.08437C12.0914 5.91508 12.3351 5.75015 12.5723 5.58358C12.7443 5.47994 12.9004 5.37348 13.0402 5.2646C13.2494 5.07984 13.3182 4.88073 13.2402 4.685C13.1623 4.48926 12.9402 4.30298 12.5936 4.14272C12.3205 4.00388 11.9651 3.88508 11.549 3.79363C11.1329 3.70217 10.6651 3.63999 10.1742 3.6109C9.66138 3.57327 9.13023 3.5729 8.61699 3.60982C8.10374 3.64673 7.62048 3.72007 7.2002 3.82483C6.76162 3.92991 6.39492 4.06471 6.12424 4.22037C5.85356 4.37602 5.68504 4.54899 5.62979 4.72788C5.52836 4.99679 5.79337 5.24228 6.04856 5.48996C6.19088 5.62713 6.37573 5.75886 6.55077 5.89277C6.91065 6.17691 7.26945 6.46105 7.62715 6.7452C8.05683 7.08559 8.48706 7.4258 8.91783 7.76583C9.04216 7.86109 9.1763 7.95798 9.32025 8.07447H9.32843Z" fill="#053F7C"/>
<path d="M25.6837 10.3448C24.3161 10.335 23.3101 10.1243 22.6803 9.72259C22.4333 9.56582 22.2599 9.39599 22.0505 9.23268C21.7936 9.03182 21.5335 8.83096 21.2767 8.6301C21.0199 8.42924 20.7745 8.23491 20.5259 8.03732C20.323 7.87783 20.1234 7.71779 19.919 7.55885C19.9097 7.55238 19.896 7.54674 19.879 7.54239C19.8619 7.53804 19.842 7.5351 19.8208 7.53381C19.7865 7.53381 19.7407 7.5485 19.7243 7.56048C19.4838 7.74773 19.2483 7.93553 19.0094 8.12278L18.2422 8.72699C17.9456 8.95852 17.6506 9.18986 17.3572 9.42103C17.0693 9.64856 16.8125 9.88262 16.2252 10.0508C15.3599 10.2985 14.38 10.3981 13.248 10.311C12.7375 10.2759 12.2606 10.1997 11.8589 10.0892C11.4572 9.97864 11.1428 9.83709 10.9431 9.67686C10.7642 9.55154 10.6655 9.41524 10.6531 9.27657C10.6407 9.1379 10.715 8.99988 10.8711 8.87124C11.2866 8.52777 11.7332 8.18864 12.1651 7.84734C12.4922 7.58606 12.8194 7.32424 13.1466 7.0635C13.4737 6.80276 13.8173 6.54638 14.1493 6.28782C14.4422 6.05865 14.7235 5.82839 15.0163 5.59923C15.3092 5.37006 15.6085 5.14198 15.9013 4.91282C16.1565 4.71141 16.4052 4.50946 16.6604 4.30751C16.9744 4.04089 17.5733 3.82224 18.342 3.6935C18.9679 3.58747 19.6807 3.5523 20.3721 3.59334C20.8764 3.61617 21.3566 3.67935 21.7714 3.77748C22.1862 3.8756 22.5234 4.00574 22.7539 4.15673C23.1121 4.38916 23.387 4.63575 23.6978 4.87635C23.9955 5.10715 24.2921 5.33813 24.5877 5.56929C24.8396 5.7667 25.0904 5.96412 25.3401 6.16153C25.4285 6.23175 25.5037 6.30197 25.6002 6.37164C25.6166 6.38308 25.664 6.39777 25.6951 6.39777C25.7164 6.39598 25.7361 6.3926 25.7528 6.38788C25.7696 6.38316 25.7828 6.37724 25.7916 6.37056C26.0337 6.18167 26.2709 5.98952 26.5114 5.80281C26.7699 5.59923 27.0316 5.39673 27.2917 5.19315C27.5518 4.98957 27.7825 4.79742 28.0442 4.60146C28.3256 4.39025 28.5137 4.16218 28.9881 3.98418C29.8698 3.65322 30.9642 3.51714 32.2761 3.61675C33.4997 3.70929 34.3095 3.9673 34.7021 4.35977C34.958 4.61895 34.9047 4.90096 34.5532 5.14743C34.2866 5.3472 34.0412 5.55024 33.7844 5.75164C33.4981 5.977 33.2086 6.20181 32.9206 6.42662C32.6327 6.65143 32.3268 6.89312 32.0291 7.12664C31.7739 7.32532 31.5171 7.52401 31.2635 7.72541C31.01 7.92682 30.7597 8.12441 30.5045 8.32418C30.2493 8.52396 29.9843 8.72536 29.7275 8.92677C29.5148 9.09007 29.3136 9.25881 29.0993 9.4232C28.8605 9.60556 28.6773 9.79662 28.2716 9.95012C27.9054 10.0941 27.4371 10.2055 26.9089 10.274C26.5214 10.3277 26.1028 10.3518 25.6837 10.3448Z" fill="#FDFDFD"/>
<path d="M9.32038 8.07463C9.16989 7.95814 9.04229 7.86125 8.91797 7.76381C8.48719 7.42414 8.05697 7.08393 7.62729 6.74318C7.26958 6.45903 6.91351 6.17489 6.55908 5.89074C6.3955 5.75684 6.19919 5.62511 6.05688 5.48793C5.80005 5.24244 5.53668 4.99803 5.6381 4.72586C5.69335 4.54697 5.86187 4.374 6.13255 4.21835C6.40323 4.06269 6.76993 3.92789 7.20851 3.8228C7.62832 3.71881 8.11044 3.64608 8.62216 3.60954C9.13388 3.57301 9.66323 3.57352 10.1743 3.61106C10.6638 3.64049 11.13 3.70283 11.5446 3.79427C11.9592 3.88572 12.3134 4.00433 12.5855 4.14287C12.9321 4.30313 13.1543 4.48942 13.2322 4.68515C13.3101 4.88089 13.2414 5.08 13.0321 5.26475C12.8924 5.37363 12.7362 5.4801 12.5643 5.58374C12.3271 5.7503 12.0833 5.91524 11.8674 6.08453C11.2327 6.57988 10.6094 7.07686 9.9829 7.57329C9.80623 7.71319 9.63774 7.85417 9.4627 7.99407C9.41937 8.0217 9.37187 8.04859 9.32038 8.07463Z" fill="#FB5657"/>
</svg>
