<svg width="67" height="11" viewBox="0 0 67 11" fill="none" xmlns="http://www.w3.org/2000/svg">
<path d="M35.2915 0.459379C35.6424 0.326814 36.006 0.221239 36.3798 0.277599C37.1562 0.398256 37.6031 1.23651 37.3118 2.02396C37.103 2.59074 36.8688 3.14878 36.6466 3.71079L35.1066 7.58454C35.0891 7.629 35.078 7.67504 35.0637 7.7179L35.0478 7.74092H35.0851L37.2284 7.0138C37.7206 6.84631 38.2103 6.67167 38.7057 6.51053C38.8382 6.46687 38.8882 6.41131 38.8748 6.26604C38.7414 4.75782 39.7646 2.81697 41.2704 2.03746C44.252 0.490338 47.4224 2.38355 47.913 5.23172L47.9495 5.4516C47.9995 5.75324 47.8852 5.9382 47.5899 6.02393L45.0497 6.76613L42.1309 7.61868L41.9833 7.66551C42.3138 7.98992 42.7486 8.18678 43.2105 8.22117C43.5774 8.26373 43.949 8.212 44.2903 8.07087C44.6316 7.92974 44.9312 7.70389 45.1609 7.41467C45.3665 7.16621 45.5308 7.14875 45.8142 7.30036C46.2039 7.51707 46.5953 7.73299 46.9842 7.95128C47.0376 7.97397 47.086 8.00696 47.1267 8.04837C47.1673 8.08978 47.1994 8.1388 47.2211 8.19263C47.2428 8.24645 47.2536 8.30402 47.253 8.36204C47.2524 8.42006 47.2404 8.47739 47.2176 8.53076C47.1994 8.57445 47.1739 8.61473 47.1422 8.64983C46.7661 9.18545 46.2765 9.63158 45.7084 9.95647C45.1402 10.2814 44.5074 10.477 43.8551 10.5295C43.1225 10.6158 42.38 10.508 41.7023 10.2168C40.9203 9.85844 40.2441 9.3042 39.7392 8.60776C39.6598 8.50456 39.6066 8.4744 39.4852 8.51805C37.6028 9.17056 35.7205 9.81936 33.8381 10.4645C33.6066 10.5551 33.3696 10.6309 33.1284 10.6915C32.9532 10.7249 32.7724 10.7143 32.6022 10.6608C32.432 10.6073 32.2778 10.5125 32.1532 10.3848C32.0285 10.2571 31.9375 10.1006 31.8881 9.92915C31.8388 9.75772 31.8326 9.57673 31.8702 9.40235C32.0036 8.75778 32.2981 8.17116 32.5362 7.56549C33.1054 6.10807 33.6904 4.657 34.2667 3.19958C34.2874 3.1464 34.2985 3.08845 34.3144 3.03368L35.2915 0.459379ZM44.9235 4.39426C44.3583 3.80049 43.2946 3.65126 42.4802 4.03625C41.8872 4.31805 41.511 4.7856 41.3046 5.44525L44.9235 4.39426Z" fill="#ED1C24"/>
<path d="M28.4982 2.53038C30.7018 1.85644 33.03 1.15155 35.2304 0.472845L35.2915 0.459351L34.3159 3.03921L30.9328 4.08782L30.2056 4.30929" fill="#ED1C24"/>
<path d="M51.1747 7.66545C52.0082 8.48148 53.4767 8.41242 54.2522 7.53209C54.6102 7.13519 54.6642 7.11614 55.1381 7.37809C55.4874 7.57178 55.8354 7.76573 56.182 7.95995C56.2346 7.98356 56.282 8.0173 56.3215 8.05924C56.3611 8.10118 56.392 8.1505 56.4125 8.20438C56.433 8.25826 56.4427 8.31566 56.441 8.37328C56.4393 8.4309 56.4263 8.48763 56.4027 8.54022C56.3853 8.57868 56.3626 8.61449 56.3352 8.64659C55.9599 9.18187 55.4711 9.62778 54.9038 9.95255C54.3364 10.2773 53.7044 10.473 53.0528 10.5255C52.2661 10.6049 51.4898 10.5255 50.7905 10.1628C49.6146 9.57503 48.7124 8.55442 48.2733 7.31538C47.4962 5.24594 48.8973 2.29618 51.4676 1.63494C54.0379 0.973701 56.6519 2.62084 57.098 5.22848C57.1115 5.30786 57.1234 5.38724 57.1369 5.46662C57.1885 5.76191 57.0687 5.9429 56.767 6.03181L53.6934 6.9288L51.1747 7.66545ZM54.1117 4.39419C53.5513 3.80599 52.4971 3.65278 51.6883 4.02904C51.0897 4.30926 50.7119 4.78554 50.4968 5.44519L54.1117 4.39419Z" fill="#ED1C24"/>
<path d="M60.3828 7.66794C61.0972 8.3895 62.3911 8.43396 63.2071 7.76399C63.3388 7.64874 63.4621 7.52433 63.5763 7.3917C63.7636 7.18769 63.9303 7.15355 64.1724 7.28771C64.5746 7.51156 64.9784 7.73594 65.3837 7.96085C65.4901 8.00841 65.5732 8.09622 65.6149 8.20501C65.6566 8.3138 65.6534 8.43468 65.606 8.54112C65.5891 8.57855 65.5672 8.61353 65.5409 8.64511C65.1659 9.18048 64.6775 9.62658 64.1105 9.95162C63.5434 10.2767 62.9116 10.4726 62.2601 10.5256C61.4489 10.605 60.6622 10.5256 59.9335 10.1359C58.7852 9.54115 57.9056 8.53248 57.4727 7.3139C56.69 5.22938 58.1078 2.27723 60.7003 1.62155C61.872 1.32586 63.1132 1.50774 64.1508 2.12718C65.1884 2.74661 65.9374 3.75286 66.2331 4.92456C66.2593 5.02855 66.2815 5.13333 66.3006 5.24208C66.3125 5.31035 66.3244 5.37544 66.3355 5.44609C66.3855 5.76361 66.2744 5.94142 65.9696 6.03032L62.8976 6.92891L60.5281 7.62348L60.3828 7.66794ZM63.3111 4.39509C62.8158 3.88706 61.8823 3.64892 61.0242 3.96803C60.2645 4.25062 59.7668 4.99997 59.7319 5.43259L63.3111 4.39509Z" fill="#ED1C24"/>
<path d="M16.9824 1.95174C18.9416 1.79853 21.3547 3.53934 21.3571 6.26923C21.3571 8.66492 19.3845 10.6161 16.965 10.6256C15.8001 10.6231 14.6838 10.158 13.8618 9.33251C13.0398 8.50707 12.5793 7.38891 12.5816 6.22398C12.5816 6.17635 12.5816 6.12793 12.5816 6.0803C12.6793 3.65762 14.8551 1.79853 16.9824 1.95174ZM16.9824 8.04338C17.4526 8.04159 17.9028 7.85334 18.2343 7.51994C18.5659 7.18654 18.7515 6.73523 18.7506 6.26507C18.7497 5.79491 18.5623 5.34432 18.2296 5.01218C17.8968 4.68004 17.4459 4.4935 16.9757 4.4935C16.5055 4.4935 16.0546 4.68004 15.7218 5.01218C15.3891 5.34432 15.2017 5.79491 15.2008 6.26507C15.1999 6.73523 15.3856 7.18654 15.7171 7.51994C16.0486 7.85334 16.4988 8.04159 16.969 8.04338H16.9824Z" fill="#043F7C"/>
<path d="M26.2699 1.91597C28.229 1.76277 30.6422 3.50357 30.6446 6.23346C30.6446 8.62915 28.672 10.5803 26.2525 10.5898C25.0875 10.5873 23.9713 10.1222 23.1493 9.29674C22.3273 8.4713 21.8668 7.35315 21.8691 6.18821C21.8691 6.14058 21.8691 6.09216 21.8691 6.04453C21.9667 3.62185 24.1425 1.76277 26.2699 1.91597ZM26.2699 8.00761C26.7401 8.00582 27.1903 7.81757 27.5218 7.48417C27.8533 7.15077 28.039 6.69946 28.0381 6.2293C28.0372 5.75915 27.8498 5.30855 27.5171 4.97641C27.1843 4.64428 26.7333 4.45774 26.2632 4.45774C25.793 4.45774 25.3421 4.64428 25.0093 4.97641C24.6765 5.30855 24.4891 5.75915 24.4882 6.2293C24.4873 6.69946 24.673 7.15077 25.0045 7.48417C25.336 7.81757 25.7863 8.00582 26.2564 8.00761H26.2699Z" fill="#043F7C"/>
<path d="M8.55544 5.91521L9.46196 3.77195C9.52626 3.62033 9.59532 3.46871 9.65406 3.31789C9.76838 2.98399 10.0107 2.70918 10.3276 2.55391C10.4845 2.47703 10.6551 2.43181 10.8295 2.42084C11.0039 2.40987 11.1787 2.43335 11.3441 2.48996C11.5094 2.54656 11.662 2.63517 11.793 2.75074C11.9241 2.8663 12.0312 3.00656 12.108 3.16349C12.1849 3.32042 12.2301 3.49096 12.2411 3.66536C12.2521 3.83977 12.2286 4.01463 12.172 4.17996C12.152 4.23963 12.1276 4.29773 12.099 4.3538C11.6116 5.51672 11.1162 6.67647 10.6257 7.84653C10.3484 8.50009 10.0727 9.15445 9.79853 9.8096C9.70317 10.063 9.53283 10.2812 9.31023 10.4353C9.08764 10.5893 8.82336 10.6719 8.55266 10.6719C8.28195 10.6719 8.01768 10.5893 7.79508 10.4353C7.57249 10.2812 7.40215 10.063 7.30679 9.8096L6.27484 7.35517C6.25738 7.31389 6.23753 7.27579 6.20578 7.20514C6.16689 7.29008 6.13752 7.34961 6.11211 7.41153C5.77475 8.22041 5.43341 9.03326 5.08017 9.84294C5.02655 10.0117 4.93981 10.168 4.82503 10.3028C4.71024 10.4376 4.56973 10.5481 4.4117 10.628C4.25367 10.7078 4.08131 10.7553 3.9047 10.7677C3.72809 10.7801 3.55078 10.7571 3.38315 10.7002C3.21552 10.6432 3.06094 10.5534 2.92845 10.4359C2.79597 10.3185 2.68824 10.1758 2.61157 10.0162C2.53491 9.85663 2.49084 9.68335 2.48196 9.50653C2.47308 9.32971 2.49956 9.15289 2.55985 8.98643C2.58123 8.92067 2.60777 8.8567 2.63923 8.79512C3.08217 7.7309 3.52961 6.6725 3.98155 5.61992C4.30383 4.85231 4.62453 4.08312 4.95475 3.32424C5.04165 3.11338 5.18081 2.92812 5.35912 2.78592C5.53743 2.64372 5.74901 2.54927 5.97392 2.51147C6.19883 2.47367 6.42966 2.49376 6.64466 2.56985C6.85966 2.64594 7.05174 2.77553 7.2028 2.94639C7.31518 3.07989 7.405 3.23085 7.46872 3.3933C7.81641 4.19187 8.15298 5.00234 8.49352 5.80646C8.51608 5.84158 8.53675 5.87788 8.55544 5.91521Z" fill="#043F7C"/>
<path d="M1.97805 7.01462C1.68117 6.50103 1.40334 6.00888 1.11678 5.5191C0.983416 5.28096 0.835769 5.05314 0.697648 4.82294C0.371395 4.27521 0.361076 3.72193 0.707967 3.18929C0.855554 2.94216 1.07434 2.74536 1.33567 2.62468C1.59701 2.504 1.8887 2.46506 2.17253 2.51297C2.47187 2.54246 2.75459 2.66449 2.98136 2.8621C3.20813 3.05971 3.36769 3.32307 3.43785 3.61556C3.49644 3.81039 3.513 4.01543 3.48646 4.21713C3.45991 4.41883 3.39085 4.6126 3.28385 4.78563C2.8769 5.4847 2.46915 6.18484 2.06061 6.88603C2.03838 6.91619 2.01615 6.95191 1.97805 7.01462Z" fill="#ED1C24"/>
</svg>
