<svg width="28" height="22" viewBox="0 0 28 22" fill="none" xmlns="http://www.w3.org/2000/svg">
<path d="M9.41742 2.6272H26.2724M9.41742 11.0505H19.9518M9.41742 19.4822H26.2724" stroke="#354454" stroke-width="3.13503" stroke-linecap="round" stroke-linejoin="round"/>
<path fill-rule="evenodd" clip-rule="evenodd" d="M3.09467 4.73401C4.1481 4.73401 5.20154 3.68058 5.20154 2.62714C5.20154 1.5737 4.1481 0.520264 3.09467 0.520264C2.04123 0.520264 0.989899 1.5737 0.989899 2.62714C0.989899 3.68058 2.04123 4.73401 3.09467 4.73401ZM3.09467 13.1615C4.1481 13.1615 5.20154 12.1081 5.20154 11.0546C5.20154 10.0012 4.1481 8.94776 3.09467 8.94776C2.04123 8.94776 0.989899 10.0012 0.989899 11.0546C0.989899 12.1081 2.04123 13.1615 3.09467 13.1615ZM3.09467 21.589C4.1481 21.589 5.20154 20.5356 5.20154 19.4821C5.20154 18.4287 4.1481 17.3753 3.09467 17.3753C2.04123 17.3753 0.989899 18.4287 0.989899 19.4821C0.989899 20.5356 2.04123 21.589 3.09467 21.589Z" fill="#354454"/>
</svg>
