<svg width="49" height="48" viewBox="0 0 49 48" fill="none" xmlns="http://www.w3.org/2000/svg">
<circle cx="24.5141" cy="24.34" r="23.5342" fill="#55A9FF"/>
<path d="M24.5141 25.9091C25.3806 25.9091 26.0831 25.2067 26.0831 24.3402C26.0831 23.4737 25.3806 22.7712 24.5141 22.7712C23.6476 22.7712 22.9452 23.4737 22.9452 24.3402C22.9452 25.2067 23.6476 25.9091 24.5141 25.9091Z" fill="white"/>
<path d="M30.7899 25.9091C31.6564 25.9091 32.3588 25.2067 32.3588 24.3402C32.3588 23.4737 31.6564 22.7712 30.7899 22.7712C29.9234 22.7712 29.2209 23.4737 29.2209 24.3402C29.2209 25.2067 29.9234 25.9091 30.7899 25.9091Z" fill="white"/>
<path d="M18.2383 25.9091C19.1048 25.9091 19.8072 25.2067 19.8072 24.3402C19.8072 23.4737 19.1048 22.7712 18.2383 22.7712C17.3718 22.7712 16.6693 23.4737 16.6693 24.3402C16.6693 25.2067 17.3718 25.9091 18.2383 25.9091Z" fill="white"/>
<path d="M35.6066 13.2476C33.0322 10.6565 29.6346 9.04474 25.9993 8.6902C22.364 8.33566 18.7189 9.26057 15.6925 11.3055C12.666 13.3504 10.4479 16.3871 9.42042 19.8921C8.39296 23.3972 8.62059 27.1509 10.0641 30.5061C10.2145 30.8179 10.2639 31.1689 10.2053 31.5102L8.82459 38.1468C8.7714 38.4013 8.78226 38.665 8.8562 38.9142C8.93014 39.1634 9.06485 39.3903 9.24821 39.5746C9.39852 39.7238 9.57749 39.8411 9.77433 39.9193C9.97117 39.9974 10.1818 40.035 10.3935 40.0296H10.7073L17.4224 38.6803C17.7637 38.6393 18.1098 38.6879 18.4266 38.8215C21.7818 40.265 25.5354 40.4926 29.0405 39.4651C32.5455 38.4377 35.5823 36.2195 37.6272 33.1931C39.6721 30.1666 40.597 26.5216 40.2424 22.8863C39.8879 19.251 38.2761 15.8533 35.685 13.279L35.6066 13.2476ZM36.9088 26.364C36.602 28.2373 35.8744 30.0167 34.7806 31.5681C33.6868 33.1195 32.2554 34.4027 30.594 35.3209C28.9326 36.2392 27.0846 36.7687 25.1891 36.8696C23.2935 36.9704 21.3998 36.64 19.6503 35.9032C19.0299 35.6393 18.3634 35.5007 17.6892 35.4953C17.3946 35.4974 17.1008 35.5236 16.8105 35.5738L12.3861 36.4681L13.2804 32.0436C13.4585 31.0854 13.3437 30.0958 12.9509 29.2038C12.2141 27.4544 11.8837 25.5607 11.9846 23.6651C12.0855 21.7695 12.615 19.9215 13.5332 18.2602C14.4515 16.5988 15.7346 15.1674 17.2861 14.0736C18.8375 12.9798 20.6168 12.2521 22.4901 11.9454C24.4565 11.6227 26.4714 11.7728 28.3682 12.3832C30.265 12.9937 31.9892 14.047 33.3982 15.456C34.8072 16.865 35.8605 18.5892 36.471 20.486C37.0814 22.3828 37.2315 24.3977 36.9088 26.364Z" fill="white"/>
</svg>
