<svg width="160" height="23" viewBox="0 0 160 23" fill="none" xmlns="http://www.w3.org/2000/svg">
<path d="M25.7815 16.5967C25.6779 16.5967 25.5932 16.559 25.5273 16.4837C25.4708 16.4084 25.452 16.319 25.4708 16.2154L27.4195 7.09355C27.4383 6.99 27.4901 6.90057 27.5748 6.82526C27.6689 6.74995 27.7678 6.7123 27.8713 6.7123H30.1024C30.2906 6.7123 30.4224 6.76407 30.4977 6.86763C30.573 6.97118 30.6201 7.04648 30.6389 7.09355L31.9663 10.4825L34.7339 7.09355C34.7716 7.04648 34.8469 6.97118 34.9598 6.86763C35.0728 6.76407 35.2234 6.7123 35.4117 6.7123H37.6427C37.7463 6.7123 37.8263 6.74995 37.8828 6.82526C37.9487 6.90057 37.9722 6.99 37.9534 7.09355L36.0047 16.2154C35.9859 16.319 35.9294 16.4084 35.8353 16.4837C35.7506 16.559 35.6564 16.5967 35.5529 16.5967H32.9971C32.8935 16.5967 32.8088 16.559 32.7429 16.4837C32.6864 16.4084 32.6676 16.319 32.6864 16.2154L33.5054 12.3464L32.2628 13.8714C32.1969 13.9467 32.1122 14.0267 32.0086 14.1115C31.9145 14.1868 31.7968 14.2244 31.6556 14.2244H30.6672C30.526 14.2244 30.4224 14.1868 30.3565 14.1115C30.3 14.0267 30.2577 13.9467 30.2294 13.8714L29.6081 12.3464L28.7891 16.2154C28.7703 16.319 28.7138 16.4084 28.6197 16.4837C28.535 16.559 28.4408 16.5967 28.3373 16.5967H25.7815ZM42.761 16.7379C42.1397 16.7379 41.5513 16.6579 40.9959 16.4978C40.4499 16.3378 39.9745 16.0978 39.5697 15.7777C39.1744 15.4576 38.8825 15.0622 38.6943 14.5916C38.5154 14.1115 38.4778 13.5561 38.5813 12.9253C38.6472 12.5394 38.7272 12.1299 38.8214 11.6969C38.9155 11.2638 39.0096 10.8449 39.1038 10.4401C39.4144 9.20693 39.9839 8.25614 40.8124 7.58777C41.6502 6.90999 42.8316 6.57109 44.3566 6.57109C44.9779 6.57109 45.5616 6.65582 46.1076 6.82526C46.663 6.99471 47.1384 7.24417 47.5337 7.57365C47.9385 7.90313 48.2303 8.30792 48.4092 8.78802C48.5975 9.26812 48.6398 9.81882 48.5363 10.4401C48.4704 10.8449 48.3904 11.2638 48.2962 11.6969C48.2021 12.1299 48.108 12.5394 48.0138 12.9253C47.6938 14.1868 47.1195 15.1376 46.2911 15.7777C45.4627 16.4178 44.286 16.7379 42.761 16.7379ZM43.0716 13.9844C43.3823 13.9844 43.6506 13.8949 43.8765 13.7161C44.1024 13.5278 44.2625 13.236 44.3566 12.8406C44.4602 12.4358 44.5543 12.0357 44.639 11.6404C44.7237 11.245 44.7991 10.8543 44.8649 10.4684C44.9403 10.073 44.8979 9.78587 44.7379 9.60701C44.5872 9.41874 44.3613 9.3246 44.0601 9.3246C43.7588 9.3246 43.4953 9.41874 43.2693 9.60701C43.0434 9.78587 42.8787 10.073 42.7751 10.4684C42.681 10.8543 42.5915 11.245 42.5068 11.6404C42.4221 12.0357 42.3421 12.4358 42.2668 12.8406C42.2009 13.236 42.2385 13.5278 42.3797 13.7161C42.5304 13.8949 42.761 13.9844 43.0716 13.9844ZM49.4709 16.5967C49.3673 16.5967 49.2826 16.559 49.2167 16.4837C49.1602 16.4084 49.1414 16.319 49.1602 16.2154L51.1089 7.09355C51.1277 6.99 51.1795 6.90057 51.2642 6.82526C51.3583 6.74995 51.4572 6.7123 51.5607 6.7123H53.7918C53.9801 6.7123 54.1071 6.75466 54.173 6.83938C54.2389 6.92411 54.2813 6.99 54.3001 7.03707L55.8675 10.9485L56.6865 7.09355C56.7053 6.99 56.7571 6.90057 56.8418 6.82526C56.936 6.74995 57.0348 6.7123 57.1383 6.7123H59.6942C59.7977 6.7123 59.8777 6.74995 59.9342 6.82526C60.0001 6.90057 60.0236 6.99 60.0048 7.09355L58.0562 16.2154C58.0374 16.319 57.9809 16.4084 57.8867 16.4837C57.802 16.559 57.7079 16.5967 57.6043 16.5967H55.3733C55.185 16.5967 55.0532 16.5543 54.9779 16.4696C54.912 16.3755 54.8696 16.3096 54.8508 16.2719L53.2411 12.6712L52.4786 16.2154C52.4597 16.319 52.4033 16.4084 52.3091 16.4837C52.2244 16.559 52.1303 16.5967 52.0267 16.5967H49.4709ZM60.4744 16.5967C60.3709 16.5967 60.2862 16.559 60.2203 16.4837C60.1638 16.4084 60.145 16.319 60.1638 16.2154L62.1124 7.09355C62.1312 6.99 62.183 6.90057 62.2677 6.82526C62.3619 6.74995 62.4607 6.7123 62.5643 6.7123H69.8081C69.9117 6.7123 69.9917 6.74995 70.0482 6.82526C70.1141 6.90057 70.1376 6.99 70.1188 7.09355L69.6952 9.08455C69.6763 9.1881 69.6198 9.27753 69.5257 9.35284C69.4316 9.42815 69.3327 9.46581 69.2292 9.46581H64.993L64.7953 10.3554H68.7208C68.8244 10.3554 68.9044 10.3931 68.9609 10.4684C69.0268 10.5437 69.0503 10.6331 69.0315 10.7367L68.6361 12.5723C68.6173 12.6759 68.5608 12.7653 68.4667 12.8406C68.3725 12.9159 68.2737 12.9536 68.1701 12.9536H64.2446L64.0611 13.8432H68.4102C68.5137 13.8432 68.5937 13.8808 68.6502 13.9561C68.7067 14.0314 68.7255 14.1209 68.7067 14.2244L68.2831 16.2154C68.2643 16.319 68.2078 16.4084 68.1137 16.4837C68.0289 16.559 67.9348 16.5967 67.8312 16.5967H60.4744ZM72.9149 16.5967C72.8113 16.5967 72.7266 16.559 72.6607 16.4837C72.6042 16.4084 72.5854 16.319 72.6042 16.2154L73.1973 13.4337L71.3616 7.15004C71.3239 7.03707 71.3428 6.93823 71.4181 6.8535C71.5028 6.75937 71.6064 6.7123 71.7287 6.7123H74.2422C74.4305 6.7123 74.5623 6.75937 74.6376 6.8535C74.7129 6.94764 74.7552 7.01824 74.7646 7.06531L75.5695 9.90354L77.5888 7.06531C77.617 7.01824 77.6876 6.94764 77.8006 6.8535C77.9135 6.75937 78.0641 6.7123 78.2524 6.7123H81.0483C81.1801 6.7123 81.2601 6.76407 81.2883 6.86763C81.326 6.97118 81.3119 7.06531 81.246 7.15004L76.7274 13.4337L76.1343 16.2154C76.1155 16.319 76.059 16.4084 75.9649 16.4837C75.8802 16.559 75.786 16.5967 75.6825 16.5967H72.9149ZM84.246 16.5967C84.1425 16.5967 84.0578 16.559 83.9919 16.4837C83.9354 16.4084 83.9166 16.319 83.9354 16.2154L85.884 7.09355C85.9028 6.99 85.9546 6.90057 86.0393 6.82526C86.1335 6.74995 86.2323 6.7123 86.3359 6.7123H88.5669C88.7552 6.7123 88.887 6.76407 88.9623 6.86763C89.0376 6.97118 89.0847 7.04648 89.1035 7.09355L90.4308 10.4825L93.1985 7.09355C93.2361 7.04648 93.3114 6.97118 93.4244 6.86763C93.5374 6.76407 93.688 6.7123 93.8763 6.7123H96.1073C96.2108 6.7123 96.2909 6.74995 96.3473 6.82526C96.4132 6.90057 96.4368 6.99 96.4179 7.09355L94.4693 16.2154C94.4505 16.319 94.394 16.4084 94.2999 16.4837C94.2151 16.559 94.121 16.5967 94.0175 16.5967H91.4616C91.3581 16.5967 91.2734 16.559 91.2075 16.4837C91.151 16.4084 91.1322 16.319 91.151 16.2154L91.97 12.3464L90.7274 13.8714C90.6615 13.9467 90.5767 14.0267 90.4732 14.1115C90.3791 14.1868 90.2614 14.2244 90.1202 14.2244H89.1317C88.9905 14.2244 88.887 14.1868 88.8211 14.1115C88.7646 14.0267 88.7223 13.9467 88.694 13.8714L88.0727 12.3464L87.2537 16.2154C87.2349 16.319 87.1784 16.4084 87.0843 16.4837C86.9995 16.559 86.9054 16.5967 86.8019 16.5967H84.246ZM96.0574 16.5967C95.9539 16.5967 95.8786 16.5543 95.8315 16.4696C95.7844 16.3755 95.7891 16.2813 95.8456 16.1872L100.901 7.17828C100.957 7.07473 101.047 6.97118 101.169 6.86763C101.291 6.76407 101.447 6.7123 101.635 6.7123H104.77C104.958 6.7123 105.09 6.76407 105.165 6.86763C105.25 6.97118 105.297 7.07473 105.306 7.17828L106.549 16.1872C106.568 16.3096 106.535 16.4084 106.45 16.4837C106.365 16.559 106.271 16.5967 106.168 16.5967H103.626C103.447 16.5967 103.325 16.559 103.259 16.4837C103.202 16.399 103.165 16.319 103.146 16.2437L103.005 15.3117H99.9688L99.4322 16.2437C99.3852 16.319 99.3146 16.399 99.2204 16.4837C99.1357 16.559 98.9992 16.5967 98.8109 16.5967H96.0574ZM101.268 12.5582H102.864L102.623 9.93178L101.268 12.5582ZM110.386 16.5967C110.283 16.5967 110.198 16.559 110.132 16.4837C110.075 16.4084 110.057 16.319 110.075 16.2154L111.459 9.74822H109.115C109.012 9.74822 108.927 9.71056 108.861 9.63525C108.805 9.55994 108.786 9.47051 108.805 9.36696L109.299 7.09355C109.318 6.99 109.369 6.90057 109.454 6.82526C109.548 6.74995 109.647 6.7123 109.751 6.7123H118.025C118.129 6.7123 118.209 6.74995 118.265 6.82526C118.331 6.90057 118.355 6.99 118.336 7.09355L117.842 9.36696C117.823 9.47051 117.766 9.55994 117.672 9.63525C117.588 9.71056 117.493 9.74822 117.39 9.74822H115.046L113.662 16.2154C113.643 16.319 113.587 16.4084 113.493 16.4837C113.408 16.559 113.314 16.5967 113.21 16.5967H110.386ZM120.452 16.5967C120.348 16.5967 120.264 16.559 120.198 16.4837C120.141 16.4084 120.123 16.319 120.141 16.2154L121.525 9.74822H119.181C119.078 9.74822 118.993 9.71056 118.927 9.63525C118.87 9.55994 118.852 9.47051 118.87 9.36696L119.365 7.09355C119.384 6.99 119.435 6.90057 119.52 6.82526C119.614 6.74995 119.713 6.7123 119.817 6.7123H128.091C128.195 6.7123 128.275 6.74995 128.331 6.82526C128.397 6.90057 128.421 6.99 128.402 7.09355L127.908 9.36696C127.889 9.47051 127.832 9.55994 127.738 9.63525C127.653 9.71056 127.559 9.74822 127.456 9.74822H125.112L123.728 16.2154C123.709 16.319 123.653 16.4084 123.559 16.4837C123.474 16.559 123.38 16.5967 123.276 16.5967H120.452ZM128.329 16.5967C128.226 16.5967 128.141 16.559 128.075 16.4837C128.019 16.4084 128 16.319 128.019 16.2154L129.967 7.09355C129.986 6.99 130.038 6.90057 130.122 6.82526C130.217 6.74995 130.315 6.7123 130.419 6.7123H137.663C137.766 6.7123 137.846 6.74995 137.903 6.82526C137.969 6.90057 137.992 6.99 137.973 7.09355L137.55 9.08455C137.531 9.1881 137.475 9.27753 137.38 9.35284C137.286 9.42815 137.187 9.46581 137.084 9.46581H132.848L132.65 10.3554H136.576C136.679 10.3554 136.759 10.3931 136.816 10.4684C136.882 10.5437 136.905 10.6331 136.886 10.7367L136.491 12.5723C136.472 12.6759 136.416 12.7653 136.321 12.8406C136.227 12.9159 136.128 12.9536 136.025 12.9536H132.099L131.916 13.8432H136.265C136.368 13.8432 136.448 13.8808 136.505 13.9561C136.561 14.0314 136.58 14.1209 136.561 14.2244L136.138 16.2154C136.119 16.319 136.063 16.4084 135.968 16.4837C135.884 16.559 135.79 16.5967 135.686 16.5967H128.329ZM138.496 16.5967C138.393 16.5967 138.313 16.559 138.256 16.4837C138.2 16.4084 138.181 16.319 138.2 16.2154L140.134 7.09355C140.153 6.99 140.209 6.90057 140.304 6.82526C140.398 6.74995 140.497 6.7123 140.6 6.7123H144.78C146.135 6.7123 147.129 7.01824 147.759 7.63013C148.39 8.24202 148.592 9.07984 148.366 10.1436C148.235 10.7743 147.976 11.325 147.59 11.7957C147.204 12.257 146.761 12.6288 146.262 12.9112L147.307 16.1307C147.317 16.1589 147.322 16.1825 147.322 16.2013C147.331 16.2201 147.331 16.2484 147.322 16.286C147.303 16.3708 147.256 16.4461 147.18 16.512C147.105 16.5684 147.025 16.5967 146.94 16.5967H144.046C143.857 16.5967 143.725 16.5496 143.65 16.4555C143.584 16.3613 143.542 16.2813 143.523 16.2154L142.888 13.5184H142.309L141.73 16.2154C141.711 16.319 141.654 16.4084 141.56 16.4837C141.466 16.559 141.367 16.5967 141.264 16.5967H138.496ZM142.874 10.8355H143.904C144.121 10.8355 144.3 10.7649 144.441 10.6237C144.582 10.4731 144.672 10.3036 144.709 10.1153C144.747 9.92708 144.733 9.75292 144.667 9.59289C144.601 9.42344 144.45 9.33872 144.215 9.33872H143.184L142.874 10.8355ZM153.036 16.7379C152 16.7379 151.148 16.5967 150.48 16.3143C149.812 16.0319 149.332 15.66 149.04 15.1987C148.757 14.7375 148.663 14.248 148.757 13.7302C148.776 13.6455 148.818 13.5749 148.884 13.5184C148.96 13.4525 149.04 13.4196 149.124 13.4196H151.807C151.958 13.4196 152.066 13.4431 152.132 13.4902C152.207 13.5278 152.287 13.5843 152.372 13.6596C152.447 13.7255 152.527 13.7867 152.612 13.8432C152.706 13.8902 152.815 13.9279 152.937 13.9561C153.059 13.975 153.196 13.9844 153.346 13.9844C153.667 13.9844 153.93 13.9514 154.137 13.8855C154.344 13.8102 154.462 13.7114 154.49 13.589C154.518 13.476 154.486 13.3819 154.391 13.3066C154.297 13.2313 154.123 13.1654 153.869 13.1089C153.615 13.043 153.262 12.9818 152.81 12.9253C152.085 12.8218 151.478 12.6335 150.988 12.3605C150.499 12.0781 150.151 11.7063 149.943 11.245C149.746 10.7837 149.717 10.2424 149.859 9.62113C150.056 8.66093 150.565 7.91255 151.384 7.37596C152.203 6.83938 153.252 6.57109 154.533 6.57109C155.173 6.57109 155.752 6.66523 156.269 6.8535C156.797 7.03236 157.244 7.27241 157.611 7.57365C157.987 7.86548 158.265 8.18084 158.444 8.51973C158.623 8.85862 158.684 9.18339 158.628 9.49405C158.618 9.57877 158.576 9.65408 158.5 9.71997C158.425 9.77646 158.35 9.8047 158.275 9.8047H155.45C155.319 9.8047 155.215 9.78587 155.14 9.74822C155.074 9.71056 155.003 9.65408 154.928 9.57877C154.89 9.5317 154.815 9.47993 154.702 9.42344C154.589 9.35755 154.434 9.3246 154.236 9.3246C154.001 9.3246 153.822 9.36225 153.699 9.43756C153.577 9.50346 153.502 9.5976 153.474 9.71997C153.455 9.8047 153.478 9.88471 153.544 9.96002C153.619 10.0353 153.761 10.1012 153.968 10.1577C154.184 10.2142 154.5 10.2707 154.914 10.3272C155.836 10.4401 156.552 10.6378 157.06 10.9202C157.578 11.2026 157.922 11.5698 158.091 12.0216C158.26 12.4641 158.279 12.9912 158.147 13.6031C157.931 14.6292 157.394 15.4106 156.538 15.9471C155.681 16.4743 154.514 16.7379 153.036 16.7379Z" fill="#DDDFE1"/>
<path d="M0.097781 17.0348V7.40378H18.385C18.8656 7.40378 18.8534 7.40378 18.8715 6.81992C18.8794 6.56368 18.8185 6.51502 18.6176 6.51502C12.8243 6.52237 7.03092 6.52432 1.23755 6.52086C0.8571 6.52086 0.476646 6.52086 0.0961914 6.5241V3.88638C0.180442 3.88184 0.264693 3.8734 0.348415 3.8734H19.0818C19.2408 3.8734 19.4453 3.81502 19.5529 3.91038C19.6604 4.00574 19.5831 4.26459 19.5852 4.45142C19.5852 4.56624 19.6048 4.61814 19.7087 4.62658C19.9206 4.64474 20.1283 4.69145 20.3387 4.71091C21.2617 4.80887 21.8404 5.67752 21.7355 6.80176C21.6904 7.28182 21.6592 7.76317 21.6226 8.24388C21.5043 9.80645 21.3861 11.3692 21.2681 12.9322C21.1473 14.5294 21.0256 16.1264 20.903 17.7231C20.8225 18.7708 20.7599 19.8211 20.6529 20.8642C20.5469 21.8762 19.8666 22.5094 19.0431 22.4147C18.7697 22.3829 18.4974 22.3407 18.2245 22.3025C16.6571 22.0862 15.0899 21.87 13.5228 21.6537C11.8293 21.4206 10.1358 21.1899 8.44234 20.9615C6.46218 20.6904 4.48254 20.4114 2.50132 20.1467C1.68053 20.0371 1.1692 19.3034 1.14641 18.5282C1.14218 18.3854 1.07488 18.342 0.987451 18.2979C0.664485 18.1368 0.40068 17.8369 0.245618 17.4545C0.186801 17.315 0.184681 17.1516 0.097781 17.0348ZM10.1507 18.4425H3.76614C3.18328 18.4425 2.5967 18.449 2.01171 18.4386C1.85804 18.4354 1.84586 18.5113 1.88772 18.6501C1.93208 18.8154 2.01563 18.9609 2.12774 19.0679C2.23985 19.1748 2.37543 19.2385 2.51722 19.2508C3.67818 19.4137 4.84021 19.5687 6.00171 19.7277L9.9684 20.2739L13.9144 20.8182L17.5038 21.3125C18.0422 21.3865 18.5805 21.4688 19.12 21.5344C19.5645 21.5882 19.8782 21.2749 19.9445 20.7306C19.9672 20.5438 19.9757 20.3537 19.99 20.1649L20.3541 15.4C20.46 13.9923 20.5672 12.5843 20.6757 11.1761C20.7923 9.64838 20.9126 8.12062 21.0228 6.59157C21.0609 6.05702 20.7774 5.65935 20.3424 5.59772C20.1675 5.57372 19.9874 5.57891 19.8178 5.52766C19.6059 5.46279 19.5841 5.56334 19.5841 5.78715C19.5894 9.35083 19.5907 12.9141 19.5879 16.4769C19.5879 16.8071 19.5645 17.1334 19.44 17.4325C19.1438 18.1461 18.6579 18.4477 18.0146 18.4464C15.3935 18.4395 12.7722 18.4382 10.1507 18.4425ZM14.5286 15.7944H17.2956C17.6591 15.7944 17.7772 15.6504 17.7772 15.2106C17.7772 13.9862 17.7772 12.7621 17.7772 11.5381C17.7772 11.1054 17.6612 10.9543 17.3147 10.9543C15.4626 10.9517 13.6104 10.9517 11.7583 10.9543C11.4086 10.9543 11.2867 11.1035 11.2857 11.529C11.2836 12.7621 11.2836 13.9946 11.2857 15.2268C11.2857 15.6504 11.4113 15.7957 11.7626 15.7964C12.6842 15.7959 13.6062 15.7953 14.5286 15.7944ZM4.22025 11.8138C4.99547 11.8138 5.77015 11.8138 6.54537 11.8138C6.79176 11.8138 6.93907 11.6523 6.94861 11.398C6.95815 11.1437 6.80289 10.9536 6.55703 10.9329C6.51517 10.929 6.47225 10.9329 6.43038 10.9329H2.05516C2.01277 10.9329 1.97038 10.9296 1.92852 10.9329C1.69802 10.9556 1.53853 11.1424 1.54171 11.3831C1.54489 11.6238 1.70067 11.8112 1.93806 11.8125C2.69897 11.8164 3.45934 11.8132 4.22025 11.8138ZM3.34701 10.0493C3.79794 10.0493 4.24781 10.0493 4.69979 10.0493C4.98646 10.0493 5.14754 9.88322 5.1433 9.60232C5.1396 9.33309 4.9801 9.16897 4.70721 9.16832C3.79794 9.16572 2.88884 9.16572 1.97992 9.16832C1.71498 9.16832 1.54383 9.34477 1.54065 9.60621C1.53747 9.86765 1.70862 10.0467 1.9725 10.0486C2.42926 10.0493 2.88866 10.0493 3.34701 10.0493ZM7.66713 10.0493C8.11823 10.0493 8.56916 10.0493 9.01991 10.0493C9.30711 10.0493 9.47667 9.88646 9.47985 9.61594C9.48303 9.34542 9.3087 9.16897 9.02786 9.16832C8.126 9.16572 7.22397 9.16572 6.32176 9.16832C6.03668 9.16832 5.87507 9.33828 5.87878 9.61853C5.88249 9.89878 6.03774 10.0473 6.31381 10.0493C6.76527 10.0493 7.2162 10.0493 7.66713 10.0493ZM8.56421 11.8132C8.74755 11.8132 8.93036 11.8203 9.11317 11.8132C9.32512 11.8028 9.46607 11.6354 9.47879 11.4025C9.48477 11.2933 9.45601 11.1855 9.39852 11.1017C9.34103 11.0179 9.25928 10.9646 9.1704 10.953C8.77812 10.9118 8.38369 10.9118 7.99141 10.953C7.90294 10.9631 7.82096 11.0142 7.76219 11.0958C7.70341 11.1774 7.67226 11.2834 7.67507 11.3922C7.67919 11.5054 7.71906 11.6122 7.78628 11.6902C7.8535 11.7681 7.94282 11.8111 8.03539 11.8099C8.21237 11.8197 8.38882 11.8119 8.56421 11.8125V11.8132Z" fill="#DDDFE1"/>
<path d="M0.0978615 2.17436C0.190061 2.07835 0.178403 1.9272 0.228742 1.81042C0.493682 1.17532 0.917587 0.826305 1.50046 0.780894C1.55662 0.772461 1.61332 0.772461 1.66949 0.772461C7.11737 0.772461 12.5649 0.772461 18.0121 0.772461C18.6548 0.772461 19.1434 1.07412 19.4385 1.78642C19.5768 2.11857 19.5885 2.48056 19.589 2.84514C19.589 2.96646 19.545 2.99305 19.4608 2.98657C19.4046 2.98203 19.3479 2.98657 19.2917 2.98657C12.9773 2.98657 6.66291 2.98657 0.348495 2.98657C0.264774 2.98657 0.180523 2.99695 0.0968018 3.00279L0.0978615 2.17436Z" fill="#DDDFE1"/>
<path d="M14.5364 11.8378C15.3106 11.8378 16.0853 11.8424 16.86 11.834C17.0073 11.834 17.064 11.858 17.0613 12.0656C17.0497 12.9446 17.0523 13.8243 17.0613 14.7039C17.0613 14.8726 17.0269 14.9161 16.8886 14.9154C15.3187 14.9089 13.7485 14.9089 12.1779 14.9154C12.0343 14.9154 12.0068 14.8622 12.0078 14.6994C12.0142 13.8204 12.0153 12.9407 12.0078 12.0617C12.0078 11.8807 12.0449 11.8314 12.1938 11.8333C12.9738 11.843 13.7549 11.8378 14.5364 11.8378Z" fill="#DDDFE1"/>
</svg>
