<svg width="150" height="24" viewBox="0 0 150 24" fill="none" xmlns="http://www.w3.org/2000/svg">
<path d="M26.1112 14.1196C26.0076 14.1196 25.9229 14.082 25.857 14.0067C25.8005 13.9314 25.7817 13.8419 25.8005 13.7384L27.7492 4.6165C27.768 4.51295 27.8198 4.42352 27.9045 4.34821C27.9986 4.2729 28.0975 4.23525 28.201 4.23525H30.4321C30.6203 4.23525 30.7521 4.28702 30.8274 4.39057C30.9028 4.49412 30.9498 4.56943 30.9687 4.6165L32.296 8.00543L35.0636 4.6165C35.1013 4.56943 35.1766 4.49412 35.2895 4.39057C35.4025 4.28702 35.5531 4.23525 35.7414 4.23525H37.9724C38.076 4.23525 38.156 4.2729 38.2125 4.34821C38.2784 4.42352 38.3019 4.51295 38.2831 4.6165L36.3345 13.7384C36.3156 13.8419 36.2592 13.9314 36.165 14.0067C36.0803 14.082 35.9862 14.1196 35.8826 14.1196H33.3268C33.2232 14.1196 33.1385 14.082 33.0726 14.0067C33.0161 13.9314 32.9973 13.8419 33.0161 13.7384L33.8351 9.86934L32.5925 11.3944C32.5266 11.4697 32.4419 11.5497 32.3383 11.6344C32.2442 11.7097 32.1265 11.7474 31.9853 11.7474H30.9969C30.8557 11.7474 30.7521 11.7097 30.6862 11.6344C30.6298 11.5497 30.5874 11.4697 30.5592 11.3944L29.9379 9.86934L29.1189 13.7384C29.1 13.8419 29.0436 13.9314 28.9494 14.0067C28.8647 14.082 28.7706 14.1196 28.667 14.1196H26.1112ZM43.0907 14.2608C42.4694 14.2608 41.881 14.1808 41.3256 14.0208C40.7796 13.8608 40.3042 13.6207 39.8995 13.3006C39.5041 12.9806 39.2123 12.5852 39.024 12.1145C38.8451 11.6344 38.8075 11.079 38.911 10.4483C38.9769 10.0623 39.0569 9.65283 39.1511 9.2198C39.2452 8.78677 39.3393 8.36786 39.4335 7.96307C39.7441 6.72988 40.3137 5.77909 41.1421 5.11072C41.9799 4.43294 43.1613 4.09404 44.6863 4.09404C45.3076 4.09404 45.8913 4.17877 46.4373 4.34821C46.9927 4.51766 47.4681 4.76712 47.8634 5.0966C48.2682 5.42608 48.5601 5.83087 48.7389 6.31097C48.9272 6.79107 48.9696 7.34177 48.866 7.96307C48.8001 8.36786 48.7201 8.78677 48.626 9.2198C48.5318 9.65283 48.4377 10.0623 48.3435 10.4483C48.0235 11.7097 47.4492 12.6605 46.6208 13.3006C45.7924 13.9408 44.6157 14.2608 43.0907 14.2608ZM43.4013 11.5073C43.712 11.5073 43.9803 11.4179 44.2062 11.239C44.4321 11.0508 44.5922 10.7589 44.6863 10.3636C44.7899 9.95878 44.884 9.55869 44.9687 9.16332C45.0535 8.76794 45.1288 8.37727 45.1947 7.99131C45.27 7.59594 45.2276 7.30882 45.0676 7.12996C44.917 6.94169 44.691 6.84755 44.3898 6.84755C44.0885 6.84755 43.825 6.94169 43.599 7.12996C43.3731 7.30882 43.2084 7.59594 43.1048 7.99131C43.0107 8.37727 42.9213 8.76794 42.8365 9.16332C42.7518 9.55869 42.6718 9.95878 42.5965 10.3636C42.5306 10.7589 42.5682 11.0508 42.7094 11.239C42.8601 11.4179 43.0907 11.5073 43.4013 11.5073ZM49.8006 14.1196C49.6971 14.1196 49.6123 14.082 49.5464 14.0067C49.49 13.9314 49.4711 13.8419 49.49 13.7384L51.4386 4.6165C51.4574 4.51295 51.5092 4.42352 51.5939 4.34821C51.6881 4.2729 51.7869 4.23525 51.8904 4.23525H54.1215C54.3098 4.23525 54.4369 4.27761 54.5027 4.36233C54.5686 4.44706 54.611 4.51295 54.6298 4.56002L56.1972 8.47141L57.0162 4.6165C57.035 4.51295 57.0868 4.42352 57.1715 4.34821C57.2657 4.2729 57.3645 4.23525 57.4681 4.23525H60.0239C60.1274 4.23525 60.2074 4.2729 60.2639 4.34821C60.3298 4.42352 60.3534 4.51295 60.3345 4.6165L58.3859 13.7384C58.3671 13.8419 58.3106 13.9314 58.2164 14.0067C58.1317 14.082 58.0376 14.1196 57.934 14.1196H55.703C55.5147 14.1196 55.3829 14.0773 55.3076 13.9925C55.2417 13.8984 55.1994 13.8325 55.1805 13.7949L53.5708 10.1941L52.8083 13.7384C52.7895 13.8419 52.733 13.9314 52.6388 14.0067C52.5541 14.082 52.46 14.1196 52.3564 14.1196H49.8006ZM60.8041 14.1196C60.7006 14.1196 60.6159 14.082 60.55 14.0067C60.4935 13.9314 60.4747 13.8419 60.4935 13.7384L62.4421 4.6165C62.461 4.51295 62.5127 4.42352 62.5975 4.34821C62.6916 4.2729 62.7904 4.23525 62.894 4.23525H70.1378C70.2414 4.23525 70.3214 4.2729 70.3779 4.34821C70.4438 4.42352 70.4673 4.51295 70.4485 4.6165L70.0249 6.6075C70.006 6.71105 69.9496 6.80048 69.8554 6.87579C69.7613 6.9511 69.6624 6.98875 69.5589 6.98875H65.3227L65.125 7.87835H69.0505C69.1541 7.87835 69.2341 7.916 69.2906 7.99131C69.3565 8.06662 69.38 8.15605 69.3612 8.2596L68.9658 10.0953C68.947 10.1988 68.8905 10.2883 68.7964 10.3636C68.7022 10.4389 68.6034 10.4765 68.4998 10.4765H64.5743L64.3908 11.3661H68.7399C68.8434 11.3661 68.9235 11.4038 68.9799 11.4791C69.0364 11.5544 69.0553 11.6438 69.0364 11.7474L68.6128 13.7384C68.594 13.8419 68.5375 13.9314 68.4434 14.0067C68.3586 14.082 68.2645 14.1196 68.161 14.1196H60.8041ZM73.2446 14.1196C73.141 14.1196 73.0563 14.082 72.9904 14.0067C72.9339 13.9314 72.9151 13.8419 72.9339 13.7384L73.527 10.9566L71.6913 4.67298C71.6537 4.56002 71.6725 4.46118 71.7478 4.37645C71.8325 4.28232 71.9361 4.23525 72.0584 4.23525H74.5719C74.7602 4.23525 74.892 4.28232 74.9673 4.37645C75.0426 4.47059 75.0849 4.54119 75.0944 4.58826L75.8992 7.42649L77.9185 4.58826C77.9467 4.54119 78.0173 4.47059 78.1303 4.37645C78.2432 4.28232 78.3939 4.23525 78.5821 4.23525H81.378C81.5098 4.23525 81.5898 4.28702 81.618 4.39057C81.6557 4.49412 81.6416 4.58826 81.5757 4.67298L77.0571 10.9566L76.4641 13.7384C76.4452 13.8419 76.3887 13.9314 76.2946 14.0067C76.2099 14.082 76.1157 14.1196 76.0122 14.1196H73.2446ZM84.5758 14.1196C84.4722 14.1196 84.3875 14.082 84.3216 14.0067C84.2651 13.9314 84.2463 13.8419 84.2651 13.7384L86.2137 4.6165C86.2326 4.51295 86.2843 4.42352 86.3691 4.34821C86.4632 4.2729 86.562 4.23525 86.6656 4.23525H88.8966C89.0849 4.23525 89.2167 4.28702 89.292 4.39057C89.3673 4.49412 89.4144 4.56943 89.4332 4.6165L90.7605 8.00543L93.5282 4.6165C93.5658 4.56943 93.6411 4.49412 93.7541 4.39057C93.8671 4.28702 94.0177 4.23525 94.206 4.23525H96.437C96.5406 4.23525 96.6206 4.2729 96.6771 4.34821C96.743 4.42352 96.7665 4.51295 96.7477 4.6165L94.799 13.7384C94.7802 13.8419 94.7237 13.9314 94.6296 14.0067C94.5449 14.082 94.4507 14.1196 94.3472 14.1196H91.7913C91.6878 14.1196 91.6031 14.082 91.5372 14.0067C91.4807 13.9314 91.4619 13.8419 91.4807 13.7384L92.2997 9.86934L91.0571 11.3944C90.9912 11.4697 90.9065 11.5497 90.8029 11.6344C90.7088 11.7097 90.5911 11.7474 90.4499 11.7474H89.4615C89.3203 11.7474 89.2167 11.7097 89.1508 11.6344C89.0943 11.5497 89.052 11.4697 89.0237 11.3944L88.4024 9.86934L87.5834 13.7384C87.5646 13.8419 87.5081 13.9314 87.414 14.0067C87.3293 14.082 87.2351 14.1196 87.1316 14.1196H84.5758ZM96.3871 14.1196C96.2836 14.1196 96.2083 14.0773 96.1612 13.9925C96.1141 13.8984 96.1189 13.8043 96.1753 13.7101L101.23 4.70123C101.287 4.59768 101.376 4.49412 101.499 4.39057C101.621 4.28702 101.776 4.23525 101.965 4.23525H105.1C105.288 4.23525 105.42 4.28702 105.495 4.39057C105.58 4.49412 105.627 4.59768 105.636 4.70123L106.879 13.7101C106.898 13.8325 106.865 13.9314 106.78 14.0067C106.695 14.082 106.601 14.1196 106.497 14.1196H103.956C103.777 14.1196 103.655 14.082 103.589 14.0067C103.532 13.9219 103.494 13.8419 103.476 13.7666L103.334 12.8347H100.299L99.762 13.7666C99.7149 13.8419 99.6443 13.9219 99.5501 14.0067C99.4654 14.082 99.3289 14.1196 99.1406 14.1196H96.3871ZM101.598 10.0812H103.193L102.953 7.45473L101.598 10.0812ZM110.716 14.1196C110.612 14.1196 110.528 14.082 110.462 14.0067C110.405 13.9314 110.386 13.8419 110.405 13.7384L111.789 7.27117H109.445C109.341 7.27117 109.257 7.23351 109.191 7.1582C109.134 7.08289 109.116 6.99346 109.134 6.88991L109.629 4.6165C109.647 4.51295 109.699 4.42352 109.784 4.34821C109.878 4.2729 109.977 4.23525 110.08 4.23525H118.355C118.459 4.23525 118.539 4.2729 118.595 4.34821C118.661 4.42352 118.685 4.51295 118.666 4.6165L118.172 6.88991C118.153 6.99346 118.096 7.08289 118.002 7.1582C117.917 7.23351 117.823 7.27117 117.72 7.27117H115.376L113.992 13.7384C113.973 13.8419 113.917 13.9314 113.822 14.0067C113.738 14.082 113.644 14.1196 113.54 14.1196H110.716ZM120.782 14.1196C120.678 14.1196 120.593 14.082 120.528 14.0067C120.471 13.9314 120.452 13.8419 120.471 13.7384L121.855 7.27117H119.511C119.407 7.27117 119.323 7.23351 119.257 7.1582C119.2 7.08289 119.181 6.99346 119.2 6.88991L119.694 4.6165C119.713 4.51295 119.765 4.42352 119.85 4.34821C119.944 4.2729 120.043 4.23525 120.146 4.23525H128.421C128.524 4.23525 128.604 4.2729 128.661 4.34821C128.727 4.42352 128.75 4.51295 128.732 4.6165L128.237 6.88991C128.219 6.99346 128.162 7.08289 128.068 7.1582C127.983 7.23351 127.889 7.27117 127.785 7.27117H125.441L124.058 13.7384C124.039 13.8419 123.982 13.9314 123.888 14.0067C123.804 14.082 123.709 14.1196 123.606 14.1196H120.782ZM128.659 14.1196C128.555 14.1196 128.471 14.082 128.405 14.0067C128.348 13.9314 128.329 13.8419 128.348 13.7384L130.297 4.6165C130.316 4.51295 130.367 4.42352 130.452 4.34821C130.546 4.2729 130.645 4.23525 130.749 4.23525H137.993C138.096 4.23525 138.176 4.2729 138.233 4.34821C138.299 4.42352 138.322 4.51295 138.303 4.6165L137.88 6.6075C137.861 6.71105 137.804 6.80048 137.71 6.87579C137.616 6.9511 137.517 6.98875 137.414 6.98875H133.177L132.98 7.87835H136.905C137.009 7.87835 137.089 7.916 137.145 7.99131C137.211 8.06662 137.235 8.15605 137.216 8.2596L136.821 10.0953C136.802 10.1988 136.745 10.2883 136.651 10.3636C136.557 10.4389 136.458 10.4765 136.355 10.4765H132.429L132.245 11.3661H136.595C136.698 11.3661 136.778 11.4038 136.835 11.4791C136.891 11.5544 136.91 11.6438 136.891 11.7474L136.468 13.7384C136.449 13.8419 136.392 13.9314 136.298 14.0067C136.213 14.082 136.119 14.1196 136.016 14.1196H128.659ZM138.826 14.1196C138.722 14.1196 138.642 14.082 138.586 14.0067C138.529 13.9314 138.511 13.8419 138.529 13.7384L140.464 4.6165C140.483 4.51295 140.539 4.42352 140.633 4.34821C140.727 4.2729 140.826 4.23525 140.93 4.23525H145.11C146.465 4.23525 147.458 4.54119 148.089 5.15308C148.72 5.76497 148.922 6.60279 148.696 7.66654C148.564 8.29726 148.305 8.84796 147.92 9.31864C147.534 9.77992 147.091 10.1518 146.592 10.4342L147.637 13.6537C147.647 13.6819 147.651 13.7054 147.651 13.7243C147.661 13.7431 147.661 13.7713 147.651 13.809C147.632 13.8937 147.585 13.969 147.51 14.0349C147.435 14.0914 147.355 14.1196 147.27 14.1196H144.375C144.187 14.1196 144.055 14.0726 143.98 13.9784C143.914 13.8843 143.872 13.8043 143.853 13.7384L143.217 11.0414H142.638L142.059 13.7384C142.041 13.8419 141.984 13.9314 141.89 14.0067C141.796 14.082 141.697 14.1196 141.594 14.1196H138.826ZM143.203 8.35845H144.234C144.451 8.35845 144.629 8.28784 144.771 8.14664C144.912 7.99602 145.001 7.82657 145.039 7.6383C145.077 7.45003 145.062 7.27587 144.997 7.11584C144.931 6.94639 144.78 6.86167 144.545 6.86167H143.514L143.203 8.35845Z" fill="#043F7C"/>
<path d="M0.427493 18.0951V7.59231H18.7147C19.1953 7.59231 19.1831 7.59231 19.2012 6.95561C19.2091 6.67617 19.1482 6.62311 18.9474 6.62311C13.154 6.63112 7.36063 6.63325 1.56727 6.62947C1.18681 6.62947 0.806358 6.62947 0.425903 6.63301V3.75652C0.510154 3.75157 0.594405 3.74238 0.678127 3.74238H19.4115C19.5705 3.74238 19.775 3.67871 19.8826 3.7827C19.9902 3.8867 19.9128 4.16897 19.9149 4.37271C19.9149 4.49793 19.9345 4.55453 20.0384 4.56372C20.2503 4.58353 20.458 4.63447 20.6684 4.65569C21.5915 4.76252 22.1701 5.70979 22.0652 6.9358C22.0201 7.45931 21.9889 7.98424 21.9523 8.50846C21.834 10.2125 21.7158 11.9167 21.5978 13.6212C21.477 15.3629 21.3553 17.1044 21.2327 18.8457C21.1522 19.9882 21.0897 21.1336 20.9826 22.2712C20.8766 23.3748 20.1963 24.0652 19.3728 23.962C19.0994 23.9273 18.8271 23.8813 18.5542 23.8396C16.9868 23.6038 15.4196 23.3679 13.8525 23.1321C12.159 22.8779 10.4656 22.6263 8.77205 22.3773C6.79189 22.0816 4.81226 21.7774 2.83103 21.4887C2.01025 21.3692 1.49891 20.569 1.47613 19.7236C1.47189 19.568 1.40459 19.5206 1.31716 19.4725C0.994197 19.2969 0.730392 18.9698 0.57533 18.5528C0.516513 18.4007 0.514393 18.2224 0.427493 18.0951ZM10.4804 19.6303H4.09586C3.51299 19.6303 2.92641 19.6373 2.34142 19.626C2.18776 19.6225 2.17557 19.7052 2.21743 19.8566C2.26179 20.0369 2.34534 20.1955 2.45745 20.3122C2.56956 20.4288 2.70514 20.4983 2.84693 20.5117C4.0079 20.6893 5.16992 20.8584 6.33142 21.0317L10.2981 21.6274L14.2441 22.2209L17.8335 22.76C18.3719 22.8407 18.9103 22.9305 19.4497 23.002C19.8942 23.0607 20.2079 22.719 20.2742 22.1254C20.297 21.9217 20.3054 21.7144 20.3197 21.5085L20.6838 16.3123C20.7897 14.7772 20.897 13.2418 21.0054 11.7061C21.122 10.0401 21.2423 8.37404 21.3525 6.70658C21.3906 6.12365 21.1071 5.68998 20.6721 5.62277C20.4973 5.5966 20.3171 5.60226 20.1475 5.54637C19.9356 5.47563 19.9139 5.58528 19.9139 5.82935C19.9192 9.7156 19.9204 13.6014 19.9176 17.4867C19.9176 17.8468 19.8942 18.2026 19.7697 18.5288C19.4735 19.3069 18.9876 19.6359 18.3443 19.6345C15.7232 19.627 13.1019 19.6255 10.4804 19.6303ZM14.8583 16.7424H17.6253C17.9888 16.7424 18.107 16.5854 18.107 16.1057C18.107 14.7706 18.107 13.4356 18.107 12.1009C18.107 11.629 17.9909 11.4642 17.6444 11.4642C15.7923 11.4613 13.9402 11.4613 12.088 11.4642C11.7383 11.4642 11.6165 11.6269 11.6154 12.091C11.6133 13.4356 11.6133 14.7798 11.6154 16.1234C11.6154 16.5854 11.741 16.7439 12.0923 16.7446C13.0139 16.7441 13.9359 16.7434 14.8583 16.7424ZM4.54996 12.4015C5.32518 12.4015 6.09986 12.4015 6.87508 12.4015C7.12148 12.4015 7.26878 12.2254 7.27832 11.9481C7.28786 11.6708 7.1326 11.4635 6.88674 11.4408C6.84488 11.4366 6.80196 11.4408 6.7601 11.4408H2.38487C2.34248 11.4408 2.30009 11.4373 2.25823 11.4408C2.02773 11.4656 1.86824 11.6693 1.87142 11.9318C1.8746 12.1943 2.03038 12.3987 2.26777 12.4001C3.02868 12.4044 3.78906 12.4008 4.54996 12.4015ZM3.67672 10.4773C4.12765 10.4773 4.57752 10.4773 5.02951 10.4773C5.31617 10.4773 5.47726 10.2962 5.47302 9.98985C5.46931 9.69626 5.30981 9.51728 5.03692 9.51657C4.12765 9.51374 3.21855 9.51374 2.30963 9.51657C2.04469 9.51657 1.87354 9.709 1.87036 9.9941C1.86718 10.2792 2.03833 10.4745 2.30221 10.4766C2.75897 10.4773 3.21837 10.4773 3.67672 10.4773ZM7.99684 10.4773C8.44794 10.4773 8.89887 10.4773 9.34962 10.4773C9.63682 10.4773 9.80638 10.2997 9.80956 10.0047C9.81274 9.7097 9.63841 9.51728 9.35757 9.51657C8.45571 9.51374 7.55368 9.51374 6.65147 9.51657C6.36639 9.51657 6.20478 9.70192 6.20849 10.0075C6.2122 10.3132 6.36745 10.4752 6.64352 10.4773C7.09498 10.4773 7.54591 10.4773 7.99684 10.4773ZM8.89393 12.4008C9.07726 12.4008 9.26007 12.4086 9.44288 12.4008C9.65483 12.3895 9.79578 12.207 9.8085 11.953C9.81448 11.8339 9.78572 11.7164 9.72823 11.625C9.67074 11.5336 9.58899 11.4755 9.50011 11.4628C9.10783 11.4178 8.7134 11.4178 8.32112 11.4628C8.23265 11.4739 8.15067 11.5296 8.0919 11.6186C8.03312 11.7076 8.00197 11.8231 8.00479 11.9417C8.0089 12.0652 8.04877 12.1817 8.11599 12.2667C8.18321 12.3517 8.27253 12.3985 8.36511 12.3973C8.54208 12.4079 8.71854 12.3994 8.89393 12.4001V12.4008Z" fill="#043F7C"/>
<path d="M0.427451 1.88964C0.519651 1.78493 0.507993 1.6201 0.558332 1.49276C0.823272 0.800165 1.24718 0.419558 1.83005 0.370037C1.88621 0.36084 1.94291 0.36084 1.99908 0.36084C7.44696 0.36084 12.8945 0.36084 18.3417 0.36084C18.9844 0.36084 19.473 0.689803 19.7681 1.46658C19.9064 1.8288 19.9181 2.22355 19.9186 2.62114C19.9186 2.75343 19.8746 2.78244 19.7904 2.77536C19.7342 2.77041 19.6775 2.77536 19.6213 2.77536C13.3069 2.77536 6.9925 2.77536 0.678085 2.77536C0.594364 2.77536 0.510113 2.78668 0.426392 2.79305L0.427451 1.88964Z" fill="#043F7C"/>
<path d="M14.8661 12.4279C15.6403 12.4279 16.415 12.4328 17.1897 12.4236C17.337 12.4236 17.3937 12.4498 17.391 12.6762C17.3794 13.6348 17.382 14.5941 17.391 15.5534C17.391 15.7373 17.3566 15.7847 17.2183 15.784C15.6484 15.7769 14.0782 15.7769 12.5076 15.784C12.364 15.784 12.3365 15.726 12.3376 15.5484C12.3439 14.5898 12.345 13.6305 12.3376 12.6719C12.3376 12.4746 12.3746 12.4208 12.5235 12.4229C13.3035 12.4335 14.0846 12.4279 14.8661 12.4279Z" fill="#043F7C"/>
</svg>
