<svg width="85" height="20" viewBox="0 0 85 20" fill="none" xmlns="http://www.w3.org/2000/svg">
<g clip-path="url(#clip0_439_1974)">
<path d="M0.77475 9.46686V4.64234C0.782595 4.16381 0.868887 3.68528 1.03363 3.23813C1.33957 2.3752 1.89655 1.62211 2.6418 1.08082C3.12817 0.719963 3.67731 0.468931 4.26566 0.327725C4.60299 0.249278 4.94815 0.202209 5.29332 0.202209C8.50183 0.217899 11.7025 0.217899 14.9031 0.210054C15.3032 0.217899 15.7111 0.288502 16.0877 0.414018C16.7153 0.610136 17.2958 0.939616 17.7822 1.37892C18.5274 2.05357 19.0295 2.96356 19.2178 3.95984C19.257 4.15596 19.2727 4.35208 19.2805 4.55604C19.2805 7.83515 19.2805 11.1064 19.2805 14.3855C19.2727 14.7777 19.2021 15.1621 19.0765 15.5308C18.9275 16.0094 18.7 16.4644 18.4019 16.8645C17.9783 17.4371 17.4291 17.9078 16.7937 18.2294C16.3387 18.4648 15.8445 18.6217 15.3346 18.6766C15.1463 18.7001 14.9502 18.7158 14.7541 18.7158H5.1835C4.76773 18.708 4.3598 18.6374 3.96756 18.5118C3.33998 18.3157 2.75947 17.9862 2.2731 17.5469C1.52 16.8723 1.01794 15.9623 0.845352 14.966C0.806129 14.7621 0.790439 14.5581 0.782595 14.3463C0.77475 12.7224 0.77475 11.0907 0.77475 9.46686ZM12.6988 14.2835C12.9027 14.2914 13.0988 14.2522 13.2871 14.1737C13.5382 14.0717 13.7657 13.9148 13.9382 13.7109C14.1344 13.4912 14.2206 13.2166 14.3383 12.9499C14.4403 12.7146 14.5344 12.4714 14.6364 12.2361C14.7619 11.9458 14.8874 11.6555 15.013 11.3653C15.1385 11.075 15.2562 10.7926 15.3738 10.5024C15.4915 10.2121 15.617 9.9297 15.7425 9.63944L16.1661 8.62747C16.3073 8.30583 16.4407 7.97635 16.5819 7.65472C16.7074 7.36446 16.8251 7.07421 16.9506 6.78395C17.1154 6.43094 17.1389 6.02301 17.0212 5.65431C16.8329 5.08949 16.4407 4.71294 15.8602 4.57958C15.2326 4.43837 14.707 4.63449 14.2834 5.11302C14.0559 5.3719 13.9696 5.70138 13.8284 5.99948C13.7029 6.28189 13.5852 6.5643 13.4676 6.85455C13.3499 7.14481 13.2165 7.44291 13.091 7.73317C12.9733 8.00773 12.8635 8.2823 12.7458 8.54902C12.738 8.56471 12.7223 8.5804 12.6988 8.58824C12.6831 8.58824 12.6595 8.56471 12.6517 8.54902C12.6046 8.44704 12.5732 8.34506 12.5262 8.24308C12.4085 7.96066 12.283 7.67041 12.1653 7.388C12.0241 7.05852 11.8829 6.72119 11.7417 6.39171C11.5927 6.04655 11.4593 5.68569 11.2867 5.35621C11.0592 4.9169 10.6356 4.61096 10.1492 4.5482C9.81974 4.48544 9.47457 4.54035 9.17647 4.6894C8.80777 4.87768 8.52536 5.19147 8.37631 5.57586C8.25079 5.86612 8.13312 6.15637 8.01545 6.44663C7.87425 6.77611 7.73304 7.10559 7.59184 7.43507C7.45063 7.76454 7.31727 8.09402 7.17606 8.43135C7.01917 8.8079 6.85443 9.1766 6.69753 9.5453C6.54064 9.91401 6.38374 10.2984 6.22685 10.6749C6.02289 11.1692 5.80323 11.6555 5.60711 12.1498C5.45806 12.5263 5.46591 12.9421 5.63849 13.3108C5.83461 13.7815 6.25038 14.1188 6.7446 14.2208C7.28589 14.3463 7.75657 14.2051 8.17235 13.8442C8.45476 13.601 8.58027 13.2637 8.71363 12.9342C8.84699 12.6048 8.99604 12.2674 9.13725 11.9301L9.50595 11.0593C9.62362 10.7926 9.73345 10.5181 9.85112 10.2513C9.85897 10.2356 9.8825 10.2121 9.89819 10.2121C9.92172 10.2121 9.93741 10.2278 9.94526 10.2513C10.0394 10.4788 10.1414 10.7142 10.2355 10.9417C10.3532 11.2241 10.4709 11.5143 10.5964 11.7967C10.7219 12.087 10.8474 12.3773 10.9651 12.6675C11.0671 12.9029 11.1455 13.146 11.271 13.3735C11.5613 13.9619 12.0477 14.2678 12.6988 14.2835ZM4.85402 11.0123C4.87755 10.973 4.90109 10.9338 4.92462 10.8946C5.01091 10.6906 5.08936 10.4867 5.17565 10.2906C5.47375 9.57668 5.77185 8.86281 6.0778 8.14894C6.17978 7.90575 6.29745 7.67041 6.41512 7.42722C6.50142 7.27817 6.57202 7.12128 6.64262 6.96438C6.84658 6.42309 6.76814 5.81905 6.43081 5.34836C6.16409 4.94044 5.74832 4.66587 5.26979 4.57958C4.77557 4.46975 4.24997 4.57958 3.84205 4.88552C3.41843 5.19147 3.14386 5.66215 3.08895 6.18775C3.04188 6.57214 3.1674 6.92516 3.29291 7.28602C3.36352 7.48213 3.44981 7.67041 3.5361 7.86653C3.70868 8.27445 3.88127 8.68238 4.05385 9.09815L4.67359 10.573C4.72066 10.6985 4.78342 10.8397 4.85402 11.0123Z" fill="#053F7C"/>
<path d="M12.6987 14.2835C12.0398 14.2678 11.5613 13.9619 11.2553 13.3892C11.1376 13.1617 11.0513 12.9186 10.9494 12.6832C10.8239 12.393 10.6983 12.1027 10.5807 11.8124C10.463 11.5222 10.3375 11.2398 10.2198 10.9574C10.1257 10.7299 10.0237 10.4945 9.92955 10.267C9.92171 10.2513 9.90602 10.2357 9.88248 10.2278C9.86679 10.2278 9.84326 10.2513 9.83541 10.267C9.71774 10.5338 9.60792 10.8083 9.49024 11.075L9.12154 11.9458C8.98034 12.2831 8.83913 12.6126 8.69793 12.9499C8.55672 13.2794 8.43905 13.6167 8.15664 13.8599C7.74087 14.2208 7.27018 14.362 6.72889 14.2365C6.23467 14.1345 5.8189 13.7893 5.62278 13.3265C5.4502 12.9578 5.43451 12.542 5.59141 12.1655C5.78752 11.6712 6.00718 11.1849 6.21114 10.6906L6.68182 9.561C6.83872 9.18445 7.00346 8.81575 7.16035 8.44705C7.30156 8.11757 7.43492 7.78809 7.57613 7.45076C7.71733 7.11344 7.85854 6.79181 7.99974 6.46233C8.12526 6.17207 8.24293 5.88182 8.3606 5.59156C8.50965 5.20717 8.79991 4.89338 9.16077 4.7051C9.45887 4.55605 9.80403 4.50114 10.1335 4.5639C10.6277 4.62666 11.0513 4.9326 11.2788 5.37191C11.4514 5.70923 11.5848 6.06225 11.7338 6.40741C11.875 6.73689 12.0163 7.07422 12.1575 7.4037C12.2751 7.68611 12.4006 7.97636 12.5183 8.25877C12.5575 8.36076 12.5968 8.46274 12.6438 8.56472C12.6517 8.58041 12.6752 8.60394 12.6909 8.60394C12.7144 8.5961 12.7301 8.58041 12.738 8.56472C12.8556 8.29015 12.9655 8.01559 13.0831 7.74887C13.2087 7.45861 13.3342 7.16051 13.4597 6.87025C13.5852 6.58 13.695 6.29759 13.8205 6.01518C13.9539 5.70923 14.048 5.37975 14.2755 5.12872C14.6992 4.65019 15.2248 4.45407 15.8523 4.59528C16.4407 4.72864 16.8251 5.09734 17.0134 5.67001C17.1389 6.04656 17.1075 6.44664 16.9428 6.8075C16.8172 7.09775 16.6996 7.38801 16.5741 7.67826C16.4328 7.9999 16.2995 8.32938 16.1583 8.65101C16.0171 8.97265 15.8759 9.32566 15.7347 9.66298C15.6091 9.95324 15.4915 10.2356 15.366 10.5259C15.2404 10.8162 15.1228 11.0986 15.0051 11.3888C14.8874 11.6791 14.7541 11.9693 14.6286 12.2596C14.5266 12.4949 14.4324 12.7381 14.3305 12.9735C14.2128 13.2402 14.1265 13.5148 13.9304 13.7344C13.7578 13.9462 13.5303 14.1031 13.2793 14.2051C13.0988 14.26 12.9027 14.2914 12.6987 14.2835Z" fill="#FDFDFD"/>
<path d="M4.85401 11.0123C4.78341 10.8475 4.72065 10.7063 4.6579 10.5651C4.45393 10.0788 4.24212 9.58453 4.03816 9.09031C3.86558 8.68239 3.69299 8.27446 3.52825 7.85869C3.4498 7.67042 3.35567 7.4743 3.28506 7.27818C3.15955 6.92516 3.03403 6.57215 3.0811 6.17991C3.13601 5.66216 3.41058 5.18363 3.8342 4.88553C4.24212 4.57959 4.75988 4.46976 5.2541 4.57959C5.72478 4.66588 6.1484 4.94044 6.40727 5.34837C6.7446 5.81906 6.82305 6.4231 6.61908 6.96439C6.54848 7.12128 6.47788 7.27818 6.39158 7.42723C6.28176 7.67042 6.16409 7.90576 6.05426 8.14894C5.74831 8.86282 5.45021 9.57669 5.15211 10.2984C5.06582 10.5024 4.98737 10.7063 4.90108 10.9025C4.90108 10.9338 4.87755 10.9731 4.85401 11.0123Z" fill="#ED1C24"/>
</g>
<path d="M27.2006 5.83342H29.6576L32.3405 12.936H32.4534L35.1363 5.83342H37.6074V15.9437H35.7153V10.9592L35.8282 9.27883H35.7153L33.1453 15.9437H31.6627L29.0786 9.27883H28.9656L29.0786 10.9592V15.9437H27.2006V5.83342ZM45.1143 16.1697C44.1258 16.1697 43.2268 15.939 42.4172 15.4777C41.6171 15.0071 40.9863 14.3669 40.5251 13.5574C40.0638 12.7478 39.8332 11.8582 39.8332 10.8886C39.8332 9.91896 40.0638 9.02937 40.5251 8.21979C40.9863 7.41021 41.6171 6.77479 42.4172 6.31351C43.2268 5.84283 44.1258 5.60749 45.1143 5.60749C46.1027 5.60749 46.997 5.84283 47.7972 6.31351C48.6067 6.77479 49.2422 7.41021 49.7034 8.21979C50.1647 9.02937 50.3953 9.91896 50.3953 10.8886C50.3953 11.8582 50.1647 12.7478 49.7034 13.5574C49.2422 14.3669 48.6067 15.0071 47.7972 15.4777C46.997 15.939 46.1027 16.1697 45.1143 16.1697ZM45.1143 14.3622C45.7356 14.3622 46.3051 14.2163 46.8228 13.9245C47.3406 13.6327 47.7454 13.2232 48.0372 12.696C48.3384 12.1688 48.4891 11.5664 48.4891 10.8886C48.4891 10.2108 48.3384 9.60831 48.0372 9.08114C47.7454 8.55397 47.3406 8.14448 46.8228 7.85265C46.3051 7.56083 45.7356 7.41492 45.1143 7.41492C44.4929 7.41492 43.9234 7.56083 43.4057 7.85265C42.8973 8.14448 42.4925 8.55397 42.1913 9.08114C41.8995 9.60831 41.7536 10.2108 41.7536 10.8886C41.7536 11.5664 41.8995 12.1688 42.1913 12.696C42.4925 13.2232 42.8973 13.6327 43.4057 13.9245C43.9234 14.2163 44.4929 14.3622 45.1143 14.3622ZM51.3777 5.83342H53.4393L55.5291 11.9335L55.8963 13.2185H56.0092L56.4046 11.9335L58.5792 5.83342H60.6408L56.9553 15.9437H54.9502L51.3777 5.83342ZM62.5554 5.83342H64.4617V15.9437H62.5554V5.83342ZM67.3261 5.83342H73.7368V7.64085H69.2324V9.98486H73.285V11.7923H69.2324V14.1363H73.7368V15.9437H67.3261V5.83342ZM79.3112 16.1697C78.4263 16.1697 77.645 15.9202 76.9672 15.4213C76.2894 14.9223 75.814 14.2163 75.541 13.3032L77.3344 12.5972C77.4756 13.1337 77.7156 13.5621 78.0545 13.8821C78.3934 14.2022 78.817 14.3622 79.3254 14.3622C79.749 14.3622 80.1114 14.2587 80.4126 14.0516C80.7139 13.8351 80.8645 13.5385 80.8645 13.162C80.8645 12.7854 80.7186 12.4795 80.4268 12.2441C80.1443 11.9994 79.636 11.7405 78.9017 11.4675L78.2804 11.2416C77.6309 11.0157 77.0755 10.6721 76.6142 10.2108C76.1529 9.7401 75.9223 9.15174 75.9223 8.44572C75.9223 7.91855 76.0588 7.43845 76.3318 7.00542C76.6048 6.57239 76.9908 6.2335 77.4897 5.98874C77.9886 5.73457 78.5534 5.60749 79.1841 5.60749C80.0973 5.60749 80.8174 5.824 81.3446 6.25703C81.8718 6.68065 82.2342 7.17957 82.4319 7.75381L80.7515 8.45984C80.648 8.14919 80.4644 7.89031 80.2008 7.68321C79.9467 7.46669 79.6172 7.35843 79.2124 7.35843C78.7982 7.35843 78.4546 7.45728 78.1816 7.65497C77.918 7.84324 77.7862 8.0927 77.7862 8.40335C77.7862 8.70459 77.9133 8.96347 78.1675 9.17998C78.4216 9.38709 78.8405 9.58948 79.4242 9.78717L80.0596 9.99898C80.9351 10.3002 81.6035 10.7003 82.0647 11.1992C82.5354 11.6887 82.7708 12.3336 82.7708 13.1337C82.7708 13.7927 82.6013 14.3528 82.2624 14.8141C81.9235 15.2659 81.4858 15.6048 80.9492 15.8308C80.422 16.0567 79.8761 16.1697 79.3112 16.1697Z" fill="#043F7C"/>
<defs>
<clipPath id="clip0_439_1974">
<rect width="18.8274" height="18.8274" fill="white" transform="translate(0.625702 0.0609741)"/>
</clipPath>
</defs>
</svg>
