<svg width="89" height="23" viewBox="0 0 89 23" fill="none" xmlns="http://www.w3.org/2000/svg">
<path d="M27.3414 16.5967C27.2379 16.5967 27.1531 16.559 27.0872 16.4837C27.0308 16.4084 27.0119 16.319 27.0308 16.2154L28.9794 7.09355C28.9982 6.99 29.05 6.90057 29.1347 6.82526C29.2289 6.74995 29.3277 6.7123 29.4313 6.7123H31.6623C31.8506 6.7123 31.9824 6.76407 32.0577 6.86763C32.133 6.97118 32.1801 7.04648 32.1989 7.09355L33.5262 10.4825L36.2938 7.09355C36.3315 7.04648 36.4068 6.97118 36.5198 6.86763C36.6327 6.76407 36.7833 6.7123 36.9716 6.7123H39.2027C39.3062 6.7123 39.3862 6.74995 39.4427 6.82526C39.5086 6.90057 39.5321 6.99 39.5133 7.09355L37.5647 16.2154C37.5459 16.319 37.4894 16.4084 37.3952 16.4837C37.3105 16.559 37.2164 16.5967 37.1128 16.5967H34.557C34.4535 16.5967 34.3687 16.559 34.3028 16.4837C34.2464 16.4084 34.2275 16.319 34.2464 16.2154L35.0653 12.3464L33.8227 13.8714C33.7568 13.9467 33.6721 14.0267 33.5686 14.1115C33.4744 14.1868 33.3568 14.2244 33.2156 14.2244H32.2271C32.0859 14.2244 31.9824 14.1868 31.9165 14.1115C31.86 14.0267 31.8176 13.9467 31.7894 13.8714L31.1681 12.3464L30.3491 16.2154C30.3303 16.319 30.2738 16.4084 30.1796 16.4837C30.0949 16.559 30.0008 16.5967 29.8972 16.5967H27.3414ZM44.3209 16.7379C43.6996 16.7379 43.1113 16.6579 42.5559 16.4978C42.0099 16.3378 41.5345 16.0978 41.1297 15.7777C40.7343 15.4576 40.4425 15.0622 40.2542 14.5916C40.0753 14.1115 40.0377 13.5561 40.1412 12.9253C40.2071 12.5394 40.2872 12.1299 40.3813 11.6969C40.4754 11.2638 40.5696 10.8449 40.6637 10.4401C40.9744 9.20693 41.5439 8.25614 42.3723 7.58777C43.2101 6.90999 44.3915 6.57109 45.9165 6.57109C46.5378 6.57109 47.1215 6.65582 47.6675 6.82526C48.2229 6.99471 48.6983 7.24417 49.0937 7.57365C49.4985 7.90313 49.7903 8.30792 49.9691 8.78802C50.1574 9.26812 50.1998 9.81882 50.0962 10.4401C50.0303 10.8449 49.9503 11.2638 49.8562 11.6969C49.762 12.1299 49.6679 12.5394 49.5738 12.9253C49.2537 14.1868 48.6795 15.1376 47.8511 15.7777C47.0227 16.4178 45.8459 16.7379 44.3209 16.7379ZM44.6316 13.9844C44.9422 13.9844 45.2105 13.8949 45.4364 13.7161C45.6624 13.5278 45.8224 13.236 45.9165 12.8406C46.0201 12.4358 46.1142 12.0357 46.199 11.6404C46.2837 11.245 46.359 10.8543 46.4249 10.4684C46.5002 10.073 46.4578 9.78587 46.2978 9.60701C46.1472 9.41874 45.9213 9.3246 45.62 9.3246C45.3188 9.3246 45.0552 9.41874 44.8293 9.60701C44.6033 9.78587 44.4386 10.073 44.335 10.4684C44.2409 10.8543 44.1515 11.245 44.0668 11.6404C43.982 12.0357 43.902 12.4358 43.8267 12.8406C43.7608 13.236 43.7985 13.5278 43.9397 13.7161C44.0903 13.8949 44.3209 13.9844 44.6316 13.9844ZM53.3748 16.5967C53.1866 16.5967 53.0501 16.5449 52.9653 16.4414C52.8806 16.3378 52.8383 16.2343 52.8383 16.1307L52.0899 7.12179C52.0805 6.99 52.1134 6.89116 52.1887 6.82526C52.2734 6.74995 52.3676 6.7123 52.4711 6.7123H54.9987C55.187 6.7123 55.3188 6.76407 55.3941 6.86763C55.4788 6.97118 55.5259 7.07473 55.5353 7.17828L55.7612 12.4311L58.2182 7.17828C58.2653 7.07473 58.35 6.97118 58.4724 6.86763C58.6041 6.76407 58.7642 6.7123 58.9525 6.7123H61.7201C61.833 6.7123 61.9084 6.75466 61.946 6.83938C61.9837 6.92411 61.979 7.01824 61.9319 7.12179L57.371 16.1307C57.3145 16.2343 57.225 16.3378 57.1027 16.4414C56.9803 16.5449 56.825 16.5967 56.6367 16.5967H53.3748ZM61.8413 16.5967C61.7378 16.5967 61.653 16.559 61.5871 16.4837C61.5307 16.4084 61.5118 16.319 61.5307 16.2154L63.4793 7.09355C63.4981 6.99 63.5499 6.90057 63.6346 6.82526C63.7288 6.74995 63.8276 6.7123 63.9312 6.7123H66.8118C66.9153 6.7123 66.9953 6.74995 67.0518 6.82526C67.1177 6.90057 67.1412 6.99 67.1224 7.09355L65.1738 16.2154C65.1549 16.319 65.0985 16.4084 65.0043 16.4837C64.9196 16.559 64.8255 16.5967 64.7219 16.5967H61.8413ZM67.591 16.5967C67.4875 16.5967 67.4028 16.559 67.3369 16.4837C67.2804 16.4084 67.2615 16.319 67.2804 16.2154L69.229 7.09355C69.2478 6.99 69.2996 6.90057 69.3843 6.82526C69.4785 6.74995 69.5773 6.7123 69.6809 6.7123H76.9247C77.0283 6.7123 77.1083 6.74995 77.1648 6.82526C77.2307 6.90057 77.2542 6.99 77.2354 7.09355L76.8117 9.08455C76.7929 9.1881 76.7364 9.27753 76.6423 9.35284C76.5482 9.42815 76.4493 9.46581 76.3458 9.46581H72.1096L71.9119 10.3554H75.8374C75.941 10.3554 76.021 10.3931 76.0775 10.4684C76.1434 10.5437 76.1669 10.6331 76.1481 10.7367L75.7527 12.5723C75.7339 12.6759 75.6774 12.7653 75.5833 12.8406C75.4891 12.9159 75.3903 12.9536 75.2867 12.9536H71.3612L71.1776 13.8432H75.5268C75.6303 13.8432 75.7103 13.8808 75.7668 13.9561C75.8233 14.0314 75.8421 14.1209 75.8233 14.2244L75.3997 16.2154C75.3809 16.319 75.3244 16.4084 75.2302 16.4837C75.1455 16.559 75.0514 16.5967 74.9478 16.5967H67.591ZM81.5423 16.7379C80.5068 16.7379 79.6549 16.5967 78.9865 16.3143C78.3182 16.0319 77.8381 15.66 77.5462 15.1987C77.2638 14.7375 77.1697 14.248 77.2638 13.7302C77.2826 13.6455 77.325 13.5749 77.3909 13.5184C77.4662 13.4525 77.5462 13.4196 77.631 13.4196H80.3139C80.4645 13.4196 80.5727 13.4431 80.6386 13.4902C80.7139 13.5278 80.794 13.5843 80.8787 13.6596C80.954 13.7255 81.034 13.7867 81.1187 13.8432C81.2129 13.8902 81.3211 13.9279 81.4435 13.9561C81.5659 13.975 81.7024 13.9844 81.853 13.9844C82.1731 13.9844 82.4366 13.9514 82.6437 13.8855C82.8508 13.8102 82.9685 13.7114 82.9968 13.589C83.025 13.476 82.9921 13.3819 82.8979 13.3066C82.8038 13.2313 82.6296 13.1654 82.3755 13.1089C82.1213 13.043 81.7683 12.9818 81.3164 12.9253C80.5916 12.8218 79.9844 12.6335 79.4949 12.3605C79.0054 12.0781 78.657 11.7063 78.4499 11.245C78.2523 10.7837 78.224 10.2424 78.3652 9.62113C78.5629 8.66093 79.0712 7.91255 79.8902 7.37596C80.7092 6.83938 81.7589 6.57109 83.0391 6.57109C83.6793 6.57109 84.2582 6.66523 84.7759 6.8535C85.3031 7.03236 85.7503 7.27241 86.1174 7.57365C86.4939 7.86548 86.7717 8.18084 86.9505 8.51973C87.1294 8.85862 87.1906 9.18339 87.1341 9.49405C87.1247 9.57877 87.0823 9.65408 87.007 9.71997C86.9317 9.77646 86.8564 9.8047 86.7811 9.8047H83.957C83.8252 9.8047 83.7216 9.78587 83.6463 9.74822C83.5804 9.71056 83.5098 9.65408 83.4345 9.57877C83.3968 9.5317 83.3215 9.47993 83.2086 9.42344C83.0956 9.35755 82.9403 9.3246 82.7426 9.3246C82.5072 9.3246 82.3284 9.36225 82.206 9.43756C82.0836 9.50346 82.0083 9.5976 81.9801 9.71997C81.9613 9.8047 81.9848 9.88471 82.0507 9.96002C82.126 10.0353 82.2672 10.1012 82.4743 10.1577C82.6908 10.2142 83.0062 10.2707 83.4204 10.3272C84.3429 10.4401 85.0584 10.6378 85.5667 10.9202C86.0845 11.2026 86.4281 11.5698 86.5975 12.0216C86.7669 12.4641 86.7858 12.9912 86.654 13.6031C86.4375 14.6292 85.9009 15.4106 85.0442 15.9471C84.1876 16.4743 83.0203 16.7379 81.5423 16.7379Z" fill="#DDDFE1"/>
<path d="M11.5405 18.8154H18.7577V20.6197H11.5405C6.55795 20.6197 2.51904 16.5808 2.51904 11.5982C2.51904 6.61569 6.55795 2.57678 11.5405 2.57678C16.5231 2.57678 20.562 6.61569 20.562 11.5982C20.5648 13.5507 19.9314 15.4509 18.7577 17.0111H16.3147C17.5815 15.8939 18.4163 14.3677 18.6738 12.6983C18.9312 11.0289 18.595 9.32206 17.7236 7.87505C16.8522 6.42804 15.5009 5.3325 13.905 4.77922C12.309 4.22595 10.5696 4.24997 8.98951 4.84712C7.40945 5.44427 6.0889 6.57671 5.25781 8.04723C4.42672 9.51776 4.13775 11.2332 4.44121 12.8948C4.74467 14.5565 5.62135 16.0591 6.91857 17.1409C8.21579 18.2227 9.85137 18.8153 11.5405 18.8154ZM11.5405 9.79395C11.062 9.79395 10.603 9.60385 10.2647 9.26548C9.9263 8.92711 9.73621 8.46819 9.73621 7.98966C9.73621 7.51113 9.9263 7.0522 10.2647 6.71383C10.603 6.37546 11.062 6.18537 11.5405 6.18537C12.019 6.18537 12.478 6.37546 12.8163 6.71383C13.1547 7.0522 13.3448 7.51113 13.3448 7.98966C13.3448 8.46819 13.1547 8.92711 12.8163 9.26548C12.478 9.60385 12.019 9.79395 11.5405 9.79395ZM7.93192 13.4025C7.45339 13.4025 6.99446 13.2124 6.65609 12.8741C6.31772 12.5357 6.12763 12.0768 6.12763 11.5982C6.12763 11.1197 6.31772 10.6608 6.65609 10.3224C6.99446 9.98404 7.45339 9.79395 7.93192 9.79395C8.41045 9.79395 8.86937 9.98404 9.20774 10.3224C9.54611 10.6608 9.73621 11.1197 9.73621 11.5982C9.73621 12.0768 9.54611 12.5357 9.20774 12.8741C8.86937 13.2124 8.41045 13.4025 7.93192 13.4025ZM15.1491 13.4025C14.6706 13.4025 14.2116 13.2124 13.8733 12.8741C13.5349 12.5357 13.3448 12.0768 13.3448 11.5982C13.3448 11.1197 13.5349 10.6608 13.8733 10.3224C14.2116 9.98404 14.6706 9.79395 15.1491 9.79395C15.6276 9.79395 16.0865 9.98404 16.4249 10.3224C16.7633 10.6608 16.9534 11.1197 16.9534 11.5982C16.9534 12.0768 16.7633 12.5357 16.4249 12.8741C16.0865 13.2124 15.6276 13.4025 15.1491 13.4025ZM11.5405 17.0111C11.062 17.0111 10.603 16.821 10.2647 16.4827C9.9263 16.1443 9.73621 15.6854 9.73621 15.2068C9.73621 14.7283 9.9263 14.2694 10.2647 13.931C10.603 13.5926 11.062 13.4025 11.5405 13.4025C12.019 13.4025 12.478 13.5926 12.8163 13.931C13.1547 14.2694 13.3448 14.7283 13.3448 15.2068C13.3448 15.6854 13.1547 16.1443 12.8163 16.4827C12.478 16.821 12.019 17.0111 11.5405 17.0111Z" fill="#DDDFE1"/>
</svg>
