<svg width="15" height="15" viewBox="0 0 15 15" fill="none" xmlns="http://www.w3.org/2000/svg">
<path d="M14.4429 8.46548H12.3953V6.06162H14.4429C14.7506 6.06162 15 5.75727 15 5.38137C15 5.00543 14.7506 4.70089 14.4429 4.70089H12.3953V1.36542C12.3953 0.878526 12.3166 0.521157 12.1613 0.303463C12.0137 0.0963669 11.8197 0 11.551 0C11.2947 0 11.108 0.0957023 10.9632 0.301506C10.8098 0.519421 10.7319 0.877455 10.7319 1.36564V4.7013H6.88025L5.24257 1.67413C5.10242 1.40397 4.97063 1.1509 4.84265 0.90799C4.72743 0.689226 4.61505 0.511114 4.5089 0.37812C4.41493 0.260375 4.30784 0.169251 4.18258 0.0992099C4.0644 0.0333038 3.91414 0.000221552 3.73638 0.000221552C3.50966 0.000221552 3.30385 0.0760966 3.10678 0.231982C2.91176 0.386169 2.77695 0.576798 2.69462 0.814799C2.62234 1.04098 2.58411 1.38757 2.58411 1.83496V4.70108H0.556853C0.249243 4.70112 0 5.00565 0 5.38155C0 5.75746 0.249243 6.06181 0.556883 6.06181H2.58414V8.46592H0.556883C0.249243 8.46592 0 8.77038 0 9.1464C0 9.52219 0.249243 9.82643 0.556883 9.82643H2.58414V13.6347C2.58414 14.1072 2.66542 14.4609 2.8264 14.6857C2.97949 14.9001 3.17361 14.9996 3.43721 14.9996C3.69153 14.9996 3.88413 14.8996 4.04384 14.6849C4.20739 14.4649 4.29012 14.1114 4.29012 13.6347V9.82643H7.77542L9.66149 13.3593C9.79264 13.5928 9.92805 13.8285 10.0631 14.0596C10.1849 14.2672 10.3179 14.45 10.4581 14.6028C10.5844 14.741 10.7199 14.8422 10.8606 14.904C11.0055 14.9677 11.1749 15 11.3628 15C11.8729 15 12.3953 14.8093 12.3953 13.3947V9.82643H14.4429C14.7505 9.82643 14.9999 9.52175 14.9999 9.14595C15 8.77016 14.7506 8.46548 14.4429 8.46548ZM10.7319 6.06159V8.46544H8.91705L7.6167 6.06159H10.7319ZM4.29015 3.29948L5.03855 4.70089H4.29015V3.29948ZM4.29015 8.46548V6.06162H5.76524L7.04882 8.46548H4.29015ZM10.7319 11.8207L9.6533 9.82643H10.7319V11.8207Z" fill="#043E7D"/>
</svg>
