<svg width="13" height="11" viewBox="0 0 13 11" fill="none" xmlns="http://www.w3.org/2000/svg">
<path d="M12.5172 6.00616H10.7426V4.30065H12.5172C12.7839 4.30065 13 4.08472 13 3.81802C13 3.55129 12.7839 3.33523 12.5172 3.33523H10.7426V0.968748C10.7426 0.623304 10.6744 0.369754 10.5398 0.215304C10.4119 0.0683712 10.2438 0 10.0109 0C9.7887 0 9.62689 0.0678996 9.50147 0.213915C9.36847 0.368523 9.30096 0.622544 9.30096 0.968906V3.33552H5.96288L4.54356 1.18777C4.42209 0.996097 4.30788 0.816551 4.19697 0.644208C4.09711 0.488998 3.99971 0.362629 3.90771 0.268272C3.82627 0.184733 3.73346 0.120082 3.6249 0.0703882C3.52248 0.0236287 3.39226 0.000157189 3.2382 0.000157189C3.0417 0.000157189 2.86334 0.0539896 2.69254 0.164588C2.52352 0.273982 2.40669 0.409231 2.33533 0.57809C2.2727 0.738566 2.23956 0.984466 2.23956 1.30188V3.33536H0.482606C0.216011 3.33539 0 3.55145 0 3.81815C0 4.08485 0.216011 4.30078 0.482632 4.30078H2.23959V6.00647H0.482632C0.216011 6.00647 0 6.22248 0 6.48926C0 6.75588 0.216011 6.97174 0.482632 6.97174H2.23959V9.67365C2.23959 10.0089 2.31003 10.2599 2.44955 10.4193C2.58223 10.5714 2.75046 10.642 2.97891 10.642C3.19932 10.642 3.36624 10.5711 3.50466 10.4187C3.64641 10.2627 3.71811 10.0118 3.71811 9.67368V6.97174H6.7387L8.37329 9.47823C8.48695 9.64392 8.60431 9.81115 8.72135 9.97514C8.82695 10.1224 8.94216 10.2521 9.06371 10.3605C9.17318 10.4585 9.29054 10.5304 9.41253 10.5742C9.53812 10.6194 9.68489 10.6423 9.84778 10.6423C10.2898 10.6423 10.7426 10.507 10.7426 9.50335V6.97174H12.5172C12.7838 6.97174 12.9999 6.75557 12.9999 6.48895C13 6.22232 12.7839 6.00616 12.5172 6.00616ZM9.30094 4.30062V6.00613H7.72811L6.60114 4.30062H9.30094ZM3.71813 2.34094L4.36674 3.33523H3.71813V2.34094ZM3.71813 6.00616V4.30065H4.99654L6.10897 6.00616H3.71813ZM9.30094 8.38665L8.36619 6.97174H9.30094V8.38665Z" fill="#474545" fill-opacity="0.7"/>
</svg>
