<svg width="11" height="9" viewBox="0 0 11 9" fill="none" xmlns="http://www.w3.org/2000/svg">
<path d="M10.2255 5.11645H8.87724V3.73664H10.2255C10.4281 3.73664 10.5923 3.56195 10.5923 3.34618C10.5923 3.13039 10.4281 2.95559 10.2255 2.95559H8.87724V1.04104C8.87724 0.761564 8.82537 0.556436 8.72313 0.431481C8.62597 0.312608 8.49821 0.257294 8.32129 0.257294C8.15248 0.257294 8.02954 0.312226 7.93425 0.430357C7.8332 0.555439 7.78191 0.76095 7.78191 1.04117V2.95582H5.24574L4.16739 1.21824C4.0751 1.06316 3.98832 0.917907 3.90405 0.778477C3.82818 0.652907 3.75419 0.550671 3.68429 0.474333C3.62241 0.406748 3.55189 0.354443 3.46942 0.31424C3.3916 0.27641 3.29266 0.257421 3.17561 0.257421C3.02632 0.257421 2.8908 0.300973 2.76104 0.39045C2.63263 0.478953 2.54386 0.588374 2.48964 0.724985C2.44206 0.854814 2.41688 1.05375 2.41688 1.31055V2.95569H1.082C0.87945 2.95572 0.715332 3.13052 0.715332 3.34629C0.715332 3.56205 0.87945 3.73675 1.08202 3.73675H2.4169V5.1167H1.08202C0.87945 5.1167 0.715332 5.29146 0.715332 5.50729C0.715332 5.72299 0.87945 5.89763 1.08202 5.89763H2.4169V8.08355C2.4169 8.35476 2.47042 8.55782 2.57642 8.68684C2.67723 8.80987 2.80504 8.86698 2.97862 8.86698C3.14608 8.86698 3.2729 8.80961 3.37806 8.68635C3.48576 8.56008 3.54023 8.35716 3.54023 8.08358V5.89763H5.83518L7.07709 7.92545C7.16345 8.0595 7.25261 8.1948 7.34154 8.32747C7.42177 8.44659 7.5093 8.55156 7.60165 8.63924C7.68482 8.71854 7.77399 8.77666 7.86667 8.81211C7.96209 8.84869 8.0736 8.86724 8.19736 8.86724C8.53322 8.86724 8.8772 8.75775 8.8772 7.94578V5.89763H10.2255C10.4281 5.89763 10.5923 5.72274 10.5923 5.50704C10.5923 5.29133 10.4281 5.11645 10.2255 5.11645ZM7.78189 3.73662V5.11642H6.58691L5.73067 3.73662H7.78189ZM3.54025 2.15118L4.03304 2.95559H3.54025V2.15118ZM3.54025 5.11645V3.73664H4.51155L5.35674 5.11645H3.54025ZM7.78189 7.04233L7.0717 5.89763H7.78189V7.04233Z" fill="#282828"/>
</svg>
