<svg width="30" height="29" viewBox="0 0 30 29" fill="none" xmlns="http://www.w3.org/2000/svg">
<g clip-path="url(#clip0_439_1568)">
<path d="M28.6932 24.6311L23.1939 19.1318C22.9457 18.8836 22.6092 18.7457 22.2562 18.7457H21.3571C22.8795 16.7986 23.7841 14.3496 23.7841 11.6855C23.7841 5.34777 18.6488 0.212524 12.3111 0.212524C5.97344 0.212524 0.838196 5.34777 0.838196 11.6855C0.838196 18.0232 5.97344 23.1584 12.3111 23.1584C14.9753 23.1584 17.4243 22.2538 19.3714 20.7314V21.6305C19.3714 21.9835 19.5093 22.32 19.7575 22.5682L25.2568 28.0675C25.7753 28.586 26.6137 28.586 27.1267 28.0675L28.6877 26.5065C29.2061 25.988 29.2061 25.1496 28.6932 24.6311ZM12.3111 18.7457C8.41144 18.7457 5.25087 15.5907 5.25087 11.6855C5.25087 7.78577 8.40592 4.62519 12.3111 4.62519C16.2108 4.62519 19.3714 7.78025 19.3714 11.6855C19.3714 15.5852 16.2164 18.7457 12.3111 18.7457Z" fill="#354454" fill-opacity="0.2"/>
</g>
<defs>
<clipPath id="clip0_439_1568">
<rect width="28.2411" height="28.2411" fill="white" transform="translate(0.838196 0.212524)"/>
</clipPath>
</defs>
</svg>
