<svg width="25" height="24" viewBox="0 0 25 24" fill="none" xmlns="http://www.w3.org/2000/svg">
<path d="M18.765 16.19C18.3227 15.7647 17.8922 15.3272 17.474 14.878C17.1227 14.5197 16.9112 14.259 16.9112 14.259L14.2669 12.9916C15.3255 11.7864 15.9098 10.2349 15.9101 8.62815C15.9101 4.96997 12.9448 1.99243 9.29942 1.99243C5.65409 1.99243 2.68872 4.96997 2.68872 8.62815C2.68872 12.2863 5.65409 15.2639 9.29942 15.2639C10.9644 15.2639 12.482 14.6382 13.6464 13.6154L14.9091 16.2696C14.9091 16.2696 15.1688 16.482 15.5258 16.8346C15.8912 17.1787 16.3719 17.6442 16.8328 18.1305L18.1153 19.4501L18.6857 20.0624L20.6887 18.0518L20.0786 17.4792C19.7207 17.1266 19.2429 16.6583 18.765 16.19ZM9.29942 13.3679C6.69575 13.3679 4.57749 11.2417 4.57749 8.62815C4.57749 6.01462 6.69575 3.88835 9.29942 3.88835C11.9031 3.88835 14.0214 6.01462 14.0214 8.62815C14.0214 11.2417 11.9031 13.3679 9.29942 13.3679Z" fill="#75757A"/>
</svg>
