<svg width="85" height="23" viewBox="0 0 85 23" fill="none" xmlns="http://www.w3.org/2000/svg">
<path d="M29.6781 16.7379C28.6426 16.7379 27.7906 16.5967 27.1223 16.3143C26.4539 16.0319 25.9738 15.66 25.682 15.1987C25.3996 14.7375 25.3054 14.248 25.3996 13.7302C25.4184 13.6455 25.4607 13.5749 25.5266 13.5184C25.6019 13.4525 25.682 13.4196 25.7667 13.4196H28.4496C28.6002 13.4196 28.7085 13.4431 28.7744 13.4902C28.8497 13.5278 28.9297 13.5843 29.0144 13.6596C29.0897 13.7255 29.1697 13.7867 29.2545 13.8432C29.3486 13.8902 29.4569 13.9279 29.5792 13.9561C29.7016 13.975 29.8381 13.9844 29.9887 13.9844C30.3088 13.9844 30.5724 13.9514 30.7795 13.8855C30.9866 13.8102 31.1043 13.7114 31.1325 13.589C31.1607 13.476 31.1278 13.3819 31.0337 13.3066C30.9395 13.2313 30.7654 13.1654 30.5112 13.1089C30.257 13.043 29.904 12.9818 29.4522 12.9253C28.7273 12.8218 28.1201 12.6335 27.6306 12.3605C27.1411 12.0781 26.7928 11.7063 26.5857 11.245C26.388 10.7837 26.3598 10.2424 26.501 9.62113C26.6986 8.66093 27.207 7.91255 28.026 7.37596C28.845 6.83938 29.8946 6.57109 31.1749 6.57109C31.815 6.57109 32.3939 6.66523 32.9117 6.8535C33.4389 7.03236 33.886 7.27241 34.2531 7.57365C34.6297 7.86548 34.9074 8.18084 35.0862 8.51973C35.2651 8.85862 35.3263 9.18339 35.2698 9.49405C35.2604 9.57877 35.218 9.65408 35.1427 9.71997C35.0674 9.77646 34.9921 9.8047 34.9168 9.8047H32.0927C31.9609 9.8047 31.8573 9.78587 31.782 9.74822C31.7161 9.71056 31.6455 9.65408 31.5702 9.57877C31.5326 9.5317 31.4573 9.47993 31.3443 9.42344C31.2313 9.35755 31.076 9.3246 30.8783 9.3246C30.643 9.3246 30.4641 9.36225 30.3417 9.43756C30.2194 9.50346 30.1441 9.5976 30.1158 9.71997C30.097 9.8047 30.1205 9.88471 30.1864 9.96002C30.2617 10.0353 30.4029 10.1012 30.61 10.1577C30.8266 10.2142 31.1419 10.2707 31.5561 10.3272C32.4787 10.4401 33.1941 10.6378 33.7024 10.9202C34.2202 11.2026 34.5638 11.5698 34.7332 12.0216C34.9027 12.4641 34.9215 12.9912 34.7897 13.6031C34.5732 14.6292 34.0366 15.4106 33.18 15.9471C32.3233 16.4743 31.156 16.7379 29.6781 16.7379ZM40.4555 16.7379C39.8342 16.7379 39.2458 16.6579 38.6904 16.4978C38.1444 16.3378 37.669 16.0978 37.2642 15.7777C36.8689 15.4576 36.577 15.0622 36.3888 14.5916C36.2099 14.1115 36.1722 13.5561 36.2758 12.9253C36.3417 12.5394 36.4217 12.1299 36.5158 11.6969C36.61 11.2638 36.7041 10.8449 36.7983 10.4401C37.1089 9.20693 37.6784 8.25614 38.5068 7.58777C39.3447 6.90999 40.5261 6.57109 42.0511 6.57109C42.6724 6.57109 43.256 6.65582 43.802 6.82526C44.3575 6.99471 44.8328 7.24417 45.2282 7.57365C45.633 7.90313 45.9248 8.30792 46.1037 8.78802C46.292 9.26812 46.3343 9.81882 46.2308 10.4401C46.1649 10.8449 46.0849 11.2638 45.9907 11.6969C45.8966 12.1299 45.8025 12.5394 45.7083 12.9253C45.3883 14.1868 44.814 15.1376 43.9856 15.7777C43.1572 16.4178 41.9805 16.7379 40.4555 16.7379ZM40.7661 13.9844C41.0768 13.9844 41.3451 13.8949 41.571 13.7161C41.7969 13.5278 41.957 13.236 42.0511 12.8406C42.1546 12.4358 42.2488 12.0357 42.3335 11.6404C42.4182 11.245 42.4935 10.8543 42.5594 10.4684C42.6347 10.073 42.5924 9.78587 42.4324 9.60701C42.2817 9.41874 42.0558 9.3246 41.7546 9.3246C41.4533 9.3246 41.1897 9.41874 40.9638 9.60701C40.7379 9.78587 40.5731 10.073 40.4696 10.4684C40.3755 10.8543 40.286 11.245 40.2013 11.6404C40.1166 12.0357 40.0366 12.4358 39.9613 12.8406C39.8954 13.236 39.933 13.5278 40.0742 13.7161C40.2248 13.8949 40.4555 13.9844 40.7661 13.9844ZM51.5145 16.7379C50.8744 16.7379 50.2719 16.6673 49.7071 16.5261C49.1517 16.3755 48.6716 16.1448 48.2668 15.8342C47.8714 15.5235 47.5843 15.1281 47.4054 14.648C47.236 14.1679 47.2077 13.589 47.3207 12.9112C47.3866 12.5253 47.4666 12.1111 47.5608 11.6686C47.6643 11.2262 47.7631 10.8025 47.8573 10.3978C48.0832 9.52229 48.4315 8.80214 48.9022 8.23732C49.3729 7.6725 49.9612 7.25359 50.6673 6.98059C51.3733 6.70759 52.1876 6.57109 53.1101 6.57109C53.675 6.57109 54.2351 6.6417 54.7905 6.7829C55.3553 6.91469 55.8542 7.1265 56.2873 7.41833C56.7203 7.71015 57.0451 8.0867 57.2616 8.54797C57.4781 8.99983 57.5204 9.54582 57.3887 10.186C57.3698 10.2707 57.3228 10.346 57.2474 10.4119C57.1721 10.4684 57.0921 10.4966 57.0074 10.4966H54.1268C53.9762 10.4966 53.8726 10.4684 53.8162 10.4119C53.7597 10.346 53.7173 10.2377 53.6891 10.0871C53.6514 9.78587 53.5526 9.58348 53.3925 9.47993C53.2419 9.37637 53.0442 9.3246 52.7995 9.3246C52.4888 9.3246 52.2205 9.40932 51.9946 9.57877C51.7781 9.7388 51.6181 10.0353 51.5145 10.4684C51.3168 11.2403 51.1474 12.031 51.0062 12.8406C50.9309 13.2736 50.9685 13.5749 51.1191 13.7443C51.2698 13.9044 51.5004 13.9844 51.811 13.9844C52.0558 13.9844 52.2817 13.9279 52.4888 13.8149C52.6959 13.702 52.8748 13.5043 53.0254 13.2219C53.1101 13.0618 53.1949 12.9536 53.2796 12.8971C53.3643 12.8406 53.482 12.8124 53.6326 12.8124H56.5132C56.5979 12.8124 56.6638 12.8453 56.7109 12.9112C56.7673 12.9677 56.7862 13.0383 56.7673 13.123C56.6167 13.7632 56.3767 14.3139 56.0472 14.7751C55.7271 15.227 55.3318 15.5988 54.8611 15.8907C54.3998 16.1825 53.8868 16.399 53.3219 16.5402C52.7571 16.672 52.1546 16.7379 51.5145 16.7379ZM58.0586 16.5967C57.9551 16.5967 57.8703 16.559 57.8044 16.4837C57.748 16.4084 57.7291 16.319 57.748 16.2154L59.6966 7.09355C59.7154 6.99 59.7672 6.90057 59.8519 6.82526C59.9461 6.74995 60.0449 6.7123 60.1484 6.7123H63.029C63.1326 6.7123 63.2126 6.74995 63.2691 6.82526C63.335 6.90057 63.3585 6.99 63.3397 7.09355L61.3911 16.2154C61.3722 16.319 61.3157 16.4084 61.2216 16.4837C61.1369 16.559 61.0427 16.5967 60.9392 16.5967H58.0586ZM62.9752 16.5967C62.8717 16.5967 62.7963 16.5543 62.7493 16.4696C62.7022 16.3755 62.7069 16.2813 62.7634 16.1872L67.8185 7.17828C67.875 7.07473 67.9645 6.97118 68.0868 6.86763C68.2092 6.76407 68.3645 6.7123 68.5528 6.7123H71.6876C71.8759 6.7123 72.0076 6.76407 72.083 6.86763C72.1677 6.97118 72.2147 7.07473 72.2242 7.17828L73.4668 16.1872C73.4856 16.3096 73.4526 16.4084 73.3679 16.4837C73.2832 16.559 73.1891 16.5967 73.0855 16.5967H70.5438C70.365 16.5967 70.2426 16.559 70.1767 16.4837C70.1202 16.399 70.0825 16.319 70.0637 16.2437L69.9225 15.3117H66.8866L66.35 16.2437C66.3029 16.319 66.2323 16.399 66.1382 16.4837C66.0535 16.559 65.917 16.5967 65.7287 16.5967H62.9752ZM68.1857 12.5582H69.7813L69.5413 9.93178L68.1857 12.5582ZM75.1152 16.5967C75.0117 16.5967 74.927 16.559 74.8611 16.4837C74.8046 16.4084 74.7858 16.319 74.8046 16.2154L76.7532 7.09355C76.772 6.99 76.8238 6.90057 76.9085 6.82526C77.0027 6.74995 77.1015 6.7123 77.2051 6.7123H80.0292C80.1327 6.7123 80.2127 6.74995 80.2692 6.82526C80.3351 6.90057 80.3587 6.99 80.3398 7.09355L78.9278 13.702H82.8392C82.9427 13.702 83.0227 13.7396 83.0792 13.8149C83.1357 13.8902 83.1545 13.9797 83.1357 14.0832L82.6838 16.2154C82.665 16.319 82.6085 16.4084 82.5144 16.4837C82.4297 16.559 82.3355 16.5967 82.232 16.5967H75.1152Z" fill="#DDDFE1"/>
<g opacity="0.5" clip-path="url(#clip0_439_1503)">
<path d="M15.3202 16.4699C15.499 16.2696 15.5984 16.0296 15.6994 15.7859C15.7258 15.7222 15.7523 15.6583 15.7803 15.5948C15.8389 15.4595 15.8953 15.3219 15.9517 15.1843C16.0081 15.0467 16.0645 14.9092 16.1231 14.7739L16.5561 13.7725C16.7005 13.4387 16.8358 13.1139 16.9711 12.7801C17.075 12.524 17.1841 12.2732 17.2945 12.0195C17.328 11.9426 17.3615 11.8654 17.3951 11.7878L15.3202 16.4699ZM15.3202 16.4699L15.6292 16.7458C15.6304 16.7444 15.6317 16.743 15.6329 16.7416C15.6341 16.7402 15.6352 16.7388 15.6364 16.7374L15.3202 16.4699ZM14.5714 17.0022C14.3549 17.0924 14.1294 17.1375 13.8948 17.1285L13.8848 17.5425C13.8838 17.5425 13.8828 17.5425 13.8818 17.5425C12.9851 17.5199 12.2885 17.0835 11.8856 16.2737C11.7788 16.0783 11.6893 15.8528 11.6131 15.6608C11.58 15.5774 11.5494 15.5003 11.521 15.4347L11.5171 15.4257L11.5172 15.4257C11.3842 15.0976 11.2421 14.7688 11.0977 14.4349C10.984 14.179 10.8752 13.9164 10.7701 13.6625C10.7397 13.589 10.7096 13.5163 10.6797 13.4446L10.6793 13.4437C10.677 13.4379 10.6746 13.4322 10.6722 13.4265C10.6495 13.4794 10.6265 13.5323 10.6033 13.585L10.1811 14.582C10.181 14.5822 10.1809 14.5825 10.1808 14.5827C10.115 14.74 10.0496 14.8929 9.98516 15.0435C9.88574 15.2759 9.78863 15.5029 9.69585 15.7322C9.68595 15.7566 9.67588 15.7818 9.66557 15.8075C9.5275 16.1523 9.34686 16.6034 8.96038 16.9365C8.39432 17.4276 7.72173 17.6362 6.95889 17.4609C6.26335 17.3157 5.67631 16.841 5.39659 16.1773L14.5714 17.0022ZM14.5714 17.0022L14.7273 17.3859C14.7279 17.3857 14.7284 17.3855 14.7289 17.3852C14.7295 17.385 14.7301 17.3847 14.7307 17.3845L14.5714 17.0022ZM14.0759 10.0158C14.0173 9.87538 13.9572 9.73346 13.8972 9.59232C13.8624 9.67502 13.8288 9.7557 13.7957 9.83529C13.7547 9.93362 13.7144 10.0303 13.6734 10.127C13.6811 10.1454 13.6887 10.1637 13.6963 10.1819M14.0759 10.0158C14.0747 10.0134 14.0736 10.0109 14.0724 10.0084L13.6963 10.1819M14.0759 10.0158C14.0932 10.054 14.1089 10.0915 14.1229 10.1266C14.1106 10.1561 14.0982 10.1856 14.0859 10.215C14.083 10.2133 14.08 10.2116 14.077 10.21C14.0521 10.1965 13.9868 10.1647 13.8948 10.1647L13.8948 10.5067M14.0759 10.0158C14.0768 10.0181 14.0777 10.0204 14.0787 10.0226L13.6963 10.1819M13.6963 10.1819C13.7007 10.1914 13.7049 10.2008 13.7091 10.2103C13.7265 10.2004 13.7448 10.1923 13.7638 10.1859L13.8659 10.4923M13.8659 10.4923L13.8106 10.4646C13.8119 10.4679 13.8133 10.4712 13.8147 10.4746L13.8678 10.498M13.8659 10.4923L13.8678 10.498M13.8659 10.4923L13.8948 10.5067M13.8678 10.498L13.8914 10.5084L13.8742 10.517M13.8678 10.498L13.8742 10.517M13.8742 10.517L13.8407 10.5338L13.8746 10.5181M13.8742 10.517L13.8746 10.5181M13.8746 10.5181L13.8948 10.5789V10.5099M13.8746 10.5181L13.8936 10.5093L13.8948 10.5099M13.8948 10.5099L13.9489 10.5338L13.897 10.5078M13.8948 10.5099V10.5088L13.897 10.5078M13.897 10.5078L13.9764 10.4711C13.9774 10.4689 13.9783 10.4667 13.9793 10.4645L13.8948 10.5067M13.897 10.5078L13.8948 10.5067M0.868562 4.56943L0.868591 4.56944L0.87029 4.56465C1.19455 3.65009 1.78439 2.85305 2.57271 2.28047L2.57272 2.28049L2.5761 2.27799C3.08841 1.89788 3.66793 1.63235 4.29199 1.48238C4.65448 1.39818 5.01872 1.34923 5.37756 1.34914C9.06675 1.36718 12.7467 1.36718 16.4262 1.35817C16.843 1.36681 17.2691 1.44079 17.6611 1.57146L17.6611 1.57153L17.6685 1.57386C18.3338 1.78175 18.9485 2.13084 19.4627 2.59522C20.251 3.30883 20.7844 4.27371 20.9846 5.33313L20.9846 5.33313L20.9855 5.33745C21.024 5.53 21.0409 5.72854 21.0496 5.94993V5.96394V5.98604V6.00813V6.03023V6.05232V6.07442V6.09651V6.1186V6.1407V6.16279V6.18489V6.20698V6.22907V6.25116V6.27326V6.29535V6.31744V6.33953V6.36163V6.38372V6.40581V6.4279V6.44999V6.47208V6.49417V6.51626V6.53835V6.56044V6.58253V6.60462V6.62671V6.6488V6.67089V6.69298V6.71507V6.73716V6.75925V6.78133V6.80342V6.82551V6.8476V6.86969V6.89177V6.91386V6.93595V6.95804V6.98012V7.00221V7.0243V7.04638V7.06847V7.09055V7.11264V7.13473V7.15681V7.1789V7.20098V7.22307V7.24515V7.26724V7.28932V7.3114V7.33349V7.35557V7.37766V7.39974V7.42182V7.44391V7.46599V7.48807V7.51016V7.53224V7.55432V7.5764V7.59849V7.62057V7.64265V7.66473V7.68681V7.7089V7.73098V7.75306V7.77514V7.79722V7.8193V7.84138V7.86346V7.88554V7.90763V7.92971V7.95179V7.97387V7.99595V8.01803V8.0401V8.06218V8.08426V8.10634V8.12842V8.1505V8.17258V8.19466V8.21674V8.23882V8.26089V8.28297V8.30505V8.32713V8.34921V8.37128V8.39336V8.41544V8.43752V8.45959V8.48167V8.50375V8.52583V8.5479V8.56998V8.59206V8.61413V8.63621V8.65828V8.68036V8.70244V8.72451V8.74659V8.76866V8.79074V8.81282V8.83489V8.85697V8.87904V8.90112V8.92319V8.94527V8.96734V8.98942V9.01149V9.03357V9.05564V9.07771V9.09979V9.12186V9.14394V9.16601V9.18808V9.21016V9.23223V9.25431V9.27638V9.29845V9.32053V9.3426V9.36467V9.38675V9.40882V9.43089V9.45297V9.47504V9.49711V9.51918V9.54126V9.56333V9.5854V9.60747V9.62955V9.65162V9.67369V9.69576V9.71784V9.73991V9.76198V9.78405V9.80612V9.82819V9.85027V9.87234V9.89441V9.91648V9.93855V9.96062V9.98269V10.0048V10.0268V10.0489V10.071V10.0931V10.1151V10.1372V10.1593V10.1813V10.2034V10.2255V10.2475V10.2696V10.2917V10.3138V10.3358V10.3579V10.38V10.402V10.4241V10.4462V10.4682V10.4903V10.5124V10.5345V10.5565V10.5786V10.6007V10.6227V10.6448V10.6669V10.6889V10.711V10.7331V10.7552V10.7772V10.7993V10.8214V10.8434V10.8655V10.8876V10.9096V10.9317V10.9538V10.9759V10.9979V11.02V11.0421V11.0641V11.0862V11.1083V11.1303V11.1524V11.1745V11.1965V11.2186V11.2407V11.2628V11.2848V11.3069V11.329V11.351V11.3731V11.3952V11.4172V11.4393V11.4614V11.4834V11.5055V11.5276V11.5497V11.5717V11.5938V11.6159V11.6379V11.66V11.6821V11.7041V11.7262V11.7483V11.7703V11.7924V11.8145V11.8366V11.8586V11.8807V11.9028V11.9248V11.9469V11.969V11.991V12.0131V12.0352V12.0572V12.0793V12.1014V12.1235V12.1455V12.1676V12.1897V12.2117V12.2338V12.2559V12.2779V12.3V12.3221V12.3441V12.3662V12.3883V12.4104V12.4324V12.4545V12.4766V12.4986V12.5207V12.5428V12.5648V12.5869V12.609V12.6311V12.6531V12.6752V12.6973V12.7193V12.7414V12.7635V12.7855V12.8076V12.8297V12.8518V12.8738V12.8959V12.918V12.94V12.9621V12.9842V13.0062V13.0283V13.0504V13.0725V13.0945V13.1166V13.1387V13.1607V13.1828V13.2049V13.227V13.249V13.2711V13.2932V13.3152V13.3373V13.3594V13.3815V13.4035V13.4256V13.4477V13.4697V13.4918V13.5139V13.536V13.558V13.5801V13.6022V13.6243V13.6463V13.6684V13.6905V13.7125V13.7346V13.7567V13.7788V13.8008V13.8229V13.845V13.8671V13.8891V13.9112V13.9333V13.9553V13.9774V13.9995V14.0216V14.0436V14.0657V14.0878V14.1099V14.1319V14.154V14.1761V14.1982V14.2202V14.2423V14.2644V14.2865V14.3085V14.3306V14.3527V14.3748V14.3968V14.4189V14.441V14.4631V14.4851V14.5072V14.5293V14.5514V14.5735V14.5955V14.6176V14.6397V14.6618V14.6838V14.7059V14.728V14.7501V14.7721V14.7942V14.8163V14.8384V14.8605V14.8825V14.9046V14.9267V14.9488V14.9708V14.9929V15.015V15.0371V15.0592V15.0812V15.1033V15.1254V15.1475V15.1696V15.1916V15.2137V15.2358V15.2579V15.28V15.302V15.3241V15.3462V15.3683V15.3904V15.4124V15.4345V15.4566V15.4787V15.5008V15.5228V15.5449V15.567V15.5891V15.6112V15.6333V15.6553V15.6774V15.6995V15.7216V15.7437V15.7658V15.7878V15.8099V15.832V15.8541V15.8762V15.8983V15.9203V15.9424V15.9645V15.9866V16.0087V16.0308V16.0529V16.0749V16.097V16.1191V16.1412V16.1633V16.1854V16.2075V16.2295V16.2516V16.2737V16.2958V16.3179V16.34V16.3621V16.3842V16.4062V16.4283V16.4504V16.4725V16.4946V16.5167V16.5388V16.5609V16.583V16.605V16.6271V16.6492V16.6713V16.6934V16.7155V16.7376V16.7597V16.7818V16.8039V16.826V16.848V16.8701V16.8922V16.9143V16.9364V16.9585V16.9806V17.0027V17.0248V17.0469V17.069V17.0911V17.1132V17.1353V17.1574V17.1794V17.2015V17.2236V17.2414C21.0411 17.6466 20.968 18.0451 20.8371 18.4294L20.837 18.4293L20.8338 18.4397C20.6756 18.9475 20.4348 19.4283 20.1213 19.849L20.1204 19.8502C19.6703 20.4586 19.0882 20.9569 18.4169 21.2967L18.4169 21.2967L18.4137 21.2983C17.9321 21.5475 17.413 21.7114 16.8817 21.7687L16.8817 21.7686L16.8746 21.7695C16.6702 21.795 16.4625 21.8114 16.2584 21.8114H5.25631C4.82145 21.8028 4.39346 21.7288 3.98017 21.5965L3.97747 21.5957C3.31208 21.3877 2.69724 21.0385 2.18293 20.574L2.18166 20.5729C1.38542 19.8596 0.854162 18.897 0.671507 17.8426L0.671577 17.8426L0.670133 17.8351C0.631092 17.6321 0.614116 17.4232 0.605377 17.1919C0.596393 15.3278 0.596393 13.4546 0.596393 11.5893V6.04455C0.605026 5.54003 0.69624 5.03716 0.868562 4.56943ZM19.1598 8.6791C19.1607 8.67722 19.1615 8.67534 19.1624 8.67346C19.1631 8.67175 19.1639 8.67005 19.1646 8.66834L18.7844 8.50394L19.1598 8.6791ZM18.2616 10.7905C18.262 10.7894 18.2625 10.7883 18.263 10.7872L18.2644 10.7839L17.8823 10.624L18.2616 10.7905ZM4.48998 13.5233L4.80308 14.2887L5.22853 13.5796L5.26912 13.512L5.30972 13.4443L5.32468 13.4194L5.33601 13.3926C5.38264 13.2824 5.42344 13.182 5.46271 13.0854C5.5152 12.9562 5.56498 12.8338 5.62235 12.7033L5.62242 12.7034L5.62544 12.6961C5.96838 11.8749 6.31046 11.0557 6.66141 10.2368L6.66142 10.2368L6.66267 10.2339C6.7559 10.0115 6.86071 9.79604 6.97341 9.5643C6.99368 9.5226 7.01421 9.48039 7.03498 9.43751C7.14122 9.25197 7.22737 9.0605 7.3043 8.88954L7.30796 8.88141L7.31327 8.8696L7.31784 8.85749C7.6 8.10868 7.49294 7.27206 7.02849 6.61895C6.66061 6.06067 6.08892 5.68329 5.43318 5.56277C4.75198 5.41387 4.02852 5.56517 3.46405 5.98715C2.8843 6.40715 2.50812 7.05232 2.43194 7.77168C2.36792 8.30308 2.53553 8.78355 2.67092 9.17163C2.67629 9.18703 2.68161 9.20228 2.68686 9.21739L2.68684 9.2174L2.68836 9.22161C2.76255 9.42769 2.8511 9.6276 2.93461 9.81615C2.94907 9.84879 2.96337 9.88109 2.97743 9.91302C3.1756 10.3814 3.37314 10.8484 3.5706 11.3241L3.5713 11.3257L4.28096 13.0145C4.31714 13.1103 4.36296 13.2194 4.41038 13.3322C4.43688 13.3953 4.46388 13.4595 4.48998 13.5233Z" fill="#DEE1E4" stroke="#BCB4B4" stroke-width="0.828405"/>
<path d="M13.9108 16.7144L13.9107 16.7145C14.0862 16.7212 14.2592 16.6955 14.4238 16.6473C14.6496 16.5527 14.8449 16.4134 14.9901 16.2352L14.996 16.228L15.0022 16.221C15.1304 16.0775 15.1966 15.9187 15.292 15.6902C15.3215 15.6194 15.3539 15.5418 15.3917 15.4559C15.4483 15.3254 15.503 15.1921 15.5594 15.0542L15.5602 15.0523C15.6161 14.9161 15.6737 14.7754 15.7339 14.6364C15.734 14.6363 15.734 14.6362 15.7341 14.6362L16.1141 14.8008C16.1622 14.6896 16.2113 14.5783 16.2605 14.4671C16.3587 14.2445 16.4569 14.022 16.5471 13.7995C16.6825 13.4657 16.8178 13.1409 16.9621 12.8071C17.0343 12.6402 17.1042 12.4756 17.1741 12.3109C17.244 12.1463 17.314 11.9816 17.3861 11.8147L13.9108 16.7144ZM13.9108 16.7144L13.9047 16.7143C13.3011 16.6999 12.8848 16.436 12.6015 15.9071C12.5201 15.7494 12.4585 15.5976 12.3898 15.4282C12.3514 15.3335 12.3108 15.2334 12.2632 15.1236C12.1186 14.789 11.9761 14.4596 11.8429 14.131C11.7629 13.9337 11.6762 13.731 11.592 13.5342C11.5347 13.4004 11.4786 13.2693 11.4266 13.1445C11.3718 13.0121 11.3149 12.8778 11.2588 12.7454L11.2585 12.7447C11.202 12.6114 11.1463 12.4799 11.093 12.351L11.0873 12.3374L11.0807 12.3242C11.0238 12.2102 10.9209 12.1159 10.7871 12.0713L10.7233 12.0501H10.6561C10.5551 12.0501 10.4797 12.0853 10.4444 12.1044C10.4037 12.1264 10.3723 12.1511 10.3505 12.1705C10.3118 12.2049 10.2653 12.2566 10.2315 12.3241L10.2271 12.3331L10.223 12.3422C10.1539 12.4989 10.0873 12.6573 10.0224 12.8119L10.0217 12.8135C9.95603 12.9697 9.89203 13.1219 9.82609 13.2714L9.82605 13.2714L9.82363 13.2771L9.39962 14.2785L9.39897 14.28C9.31816 14.4731 9.23731 14.664 9.15606 14.8558L9.15597 14.856C9.07508 15.047 8.9938 15.2389 8.91247 15.4332M13.9108 16.7144L8.91247 15.4332M17.9717 9.36685C17.8895 9.55424 17.8097 9.74341 17.7313 9.92935L17.7307 9.9307C17.6516 10.1184 17.5738 10.3028 17.494 10.4845C17.3839 10.7352 17.2724 11.0058 17.163 11.2711C17.1097 11.4005 17.0569 11.5286 17.005 11.6526L18.3514 9.53231M17.9717 9.36685C17.9719 9.3665 17.972 9.36615 17.9722 9.3658L18.3514 9.53231M17.9717 9.36685C17.9716 9.3672 17.9714 9.36755 17.9713 9.36791L18.3514 9.53231M17.9717 9.36685C18.0426 9.20284 18.1115 9.03847 18.1814 8.87158L18.1818 8.87057C18.2515 8.70436 18.3221 8.53562 18.3953 8.36653L18.3986 8.35888L18.3986 8.35891C18.5478 8.03213 18.5725 7.68024 18.4637 7.3538L18.4631 7.35218C18.2894 6.82382 17.9566 6.51031 17.4302 6.3909M18.3514 9.53231C18.4236 9.36541 18.4935 9.19852 18.5634 9.03162C18.6334 8.86472 18.7033 8.69782 18.7754 8.53093C18.9649 8.11594 19.001 7.65585 18.8566 7.22282C18.6401 6.56425 18.1981 6.14024 17.5215 5.98688M17.4302 6.3909C17.4303 6.39092 17.4304 6.39095 17.4305 6.39098L17.5215 5.98688M17.4302 6.3909C16.8692 6.26478 16.4146 6.42717 16.0183 6.87488L16.0151 6.8785L16.0151 6.87848C15.9254 6.97747 15.854 7.10065 15.7834 7.25685C15.7481 7.33505 15.715 7.41675 15.6791 7.50647C15.676 7.51444 15.6727 7.52248 15.6695 7.5306C15.6373 7.6113 15.6023 7.69886 15.5646 7.78527L15.5634 7.78799C15.4818 7.97156 15.4129 8.13862 15.3412 8.31226C15.2822 8.45525 15.2214 8.60269 15.1501 8.7675C15.0784 8.93332 15.0066 9.10154 14.9344 9.27085L14.934 9.2718C14.862 9.44048 14.7896 9.61024 14.7171 9.7779L14.7159 9.7807C14.637 9.95937 14.5647 10.1329 14.4901 10.312C14.436 10.442 14.3806 10.575 14.3206 10.7149L14.3159 10.7261L14.3104 10.737C14.2534 10.8509 14.1506 10.9452 14.0168 10.9898L13.953 11.011H13.8858C13.7847 11.011 13.7094 10.9758 13.6741 10.9567C13.6334 10.9347 13.602 10.91 13.5802 10.8906C13.5415 10.8562 13.495 10.8045 13.4612 10.737L13.4554 10.7254L13.4556 10.7253C13.3958 10.5958 13.3467 10.468 13.3028 10.3539M17.4302 6.3909C17.4301 6.39088 17.43 6.39085 17.4299 6.39083L17.5215 5.98688M17.5215 5.98688C16.7997 5.82449 16.1953 6.05003 15.7081 6.60034C15.5062 6.82322 15.3956 7.09988 15.2851 7.37633C15.2525 7.45796 15.2199 7.53956 15.1849 7.61976C15.1044 7.80087 15.0295 7.98197 14.954 8.16464C14.8941 8.30955 14.8338 8.45544 14.7699 8.6031C14.6977 8.77 14.6256 8.93915 14.5534 9.10831C14.4812 9.27746 14.4091 9.44661 14.3369 9.6135C14.2596 9.78862 14.1853 9.96667 14.1106 10.146C14.1424 10.2275 14.1732 10.3033 14.2078 10.3782L13.9665 10.4895C13.9577 10.5103 13.9488 10.531 13.9399 10.5517C13.9309 10.5698 13.9129 10.5878 13.8858 10.5968C13.8678 10.5968 13.8407 10.5698 13.8317 10.5517C13.8228 10.5326 13.8142 10.5134 13.8058 10.4943L13.5592 10.3886C13.5822 10.3349 13.6055 10.28 13.6289 10.2242L13.305 10.3592C13.3043 10.3574 13.3035 10.3557 13.3028 10.3539M8.91247 15.4332C8.8931 15.4784 8.87469 15.5219 8.85696 15.5638C8.70994 15.9111 8.60981 16.1476 8.40113 16.3273L8.39991 16.3284C8.01102 16.6659 7.60291 16.782 7.12306 16.6708L7.12309 16.6706L7.11321 16.6686C6.67991 16.5792 6.31199 16.2748 6.13885 15.8662L6.13586 15.8591L6.13261 15.8522C5.98143 15.5292 5.97008 15.1726 6.10373 14.8519L6.10378 14.8519L6.10639 14.8454C6.23789 14.514 6.37383 14.1971 6.51245 13.8739C6.61267 13.6402 6.7143 13.4033 6.81668 13.1552C6.81678 13.155 6.81687 13.1548 6.81696 13.1546L7.35771 11.8568C7.46369 11.6024 7.57013 11.3574 7.67743 11.1104C7.75335 10.9356 7.8297 10.7598 7.90662 10.579C8.00972 10.3385 8.11045 10.0949 8.21095 9.85191C8.26921 9.71106 8.32738 9.5704 8.38589 9.43063C8.49329 9.17408 8.59989 8.92732 8.70756 8.67808C8.76183 8.55245 8.81638 8.4262 8.87143 8.29775C8.87152 8.29755 8.8716 8.29735 8.87169 8.29715L8.49098 8.13398M8.91247 15.4332L10.0146 6.48207M8.49098 8.13398C8.63532 7.80019 8.77064 7.4664 8.90596 7.1326C9.07737 6.69055 9.41116 6.32969 9.82615 6.11318M8.49098 8.13398C8.43685 8.26029 8.38272 8.38559 8.32858 8.51089C8.22033 8.76148 8.11207 9.01207 8.00382 9.27069C7.94379 9.41409 7.88499 9.55627 7.82651 9.69766C7.72681 9.93875 7.62804 10.1776 7.52568 10.4164L8.49098 8.13398ZM9.82615 6.11318L10.0114 6.48365C10.0124 6.48312 10.0135 6.48259 10.0146 6.48207M9.82615 6.11318L10.0177 6.4804C10.0167 6.48096 10.0156 6.48151 10.0146 6.48207M9.82615 6.11318C10.169 5.94177 10.5659 5.87862 10.9448 5.95079C11.5132 6.02296 12.0003 6.3748 12.2619 6.88C12.4023 7.1543 12.5201 7.43761 12.6376 7.72038C12.6863 7.83752 12.735 7.95456 12.7852 8.07083C12.8664 8.26027 12.9476 8.45197 13.0288 8.64366C13.11 8.83538 13.1912 9.0271 13.2723 9.21656M10.0146 6.48207C10.2807 6.34984 10.5844 6.30379 10.8673 6.35768L10.8799 6.36008L10.8926 6.36169C11.3209 6.41607 11.6923 6.68142 11.8937 7.06961M13.2723 9.21656L12.89 9.37587C12.8903 9.37651 12.8905 9.37715 12.8908 9.37779M13.2723 9.21656L12.8916 9.37972C12.8914 9.37908 12.8911 9.37843 12.8908 9.37779M13.2723 9.21656C13.34 9.37895 13.4099 9.5436 13.4799 9.70825C13.5415 9.85344 13.6032 9.99863 13.6633 10.1423C13.6521 10.169 13.6409 10.1956 13.6298 10.222L13.3007 10.3486L13.3027 10.3536C13.3027 10.3537 13.3028 10.3538 13.3028 10.3539M12.8908 9.37779C12.8096 9.18818 12.7284 8.99649 12.6476 8.80574L12.6474 8.80523L12.6473 8.80517C12.5662 8.6135 12.4854 8.42279 12.4047 8.23446M12.8908 9.37779C12.9588 9.54085 13.0289 9.70591 13.0983 9.86946L13.0986 9.87013C13.1678 10.0332 13.2365 10.1948 13.3028 10.3539M12.4047 8.23446C12.4048 8.23465 12.4048 8.23484 12.4049 8.23504L12.7852 8.07084L12.4045 8.234C12.4045 8.23415 12.4046 8.2343 12.4047 8.23446ZM12.4047 8.23446C12.3495 8.10678 12.2983 7.98346 12.2483 7.86322C12.1338 7.58774 12.026 7.32839 11.8937 7.06961M11.8937 7.06961C11.8938 7.0699 11.894 7.07019 11.8941 7.07047L12.2619 6.88001L11.8932 7.06866C11.8934 7.06898 11.8935 7.0693 11.8937 7.06961ZM13.5695 10.3665C13.5988 10.3078 13.644 10.2603 13.6986 10.2291C13.731 10.3134 13.7639 10.3977 13.8005 10.482L13.5695 10.3665ZM14.2021 10.3665L13.9693 10.4829C14.0049 10.3991 14.04 10.3153 14.0748 10.2318C14.1013 10.2469 14.1198 10.2619 14.1305 10.2715C14.149 10.2878 14.1774 10.317 14.2021 10.3665Z" fill="#FDFDFD" stroke="#BCB4B4" stroke-width="0.828405"/>
<path d="M5.87293 9.91054C5.53168 10.7068 5.19908 11.5026 4.86711 12.3057C4.83407 12.2275 4.801 12.1493 4.76791 12.071C4.61713 11.7143 4.46618 11.3573 4.31801 10.9983L4.31802 10.9983L4.3166 10.9949C4.11783 10.5251 3.92122 10.0603 3.73381 9.58733L3.73387 9.58731L3.73107 9.5806C3.69348 9.49037 3.65731 9.40814 3.62277 9.32961C3.563 9.19373 3.5081 9.0689 3.45906 8.93278C3.30993 8.51332 3.20503 8.19809 3.24576 7.85866L3.2458 7.85867L3.2464 7.853C3.29736 7.37252 3.55256 6.93141 3.93894 6.65951L3.93905 6.65967L3.94909 6.65214C4.32097 6.37323 4.79267 6.27307 5.2436 6.37328L5.25115 6.37495L5.25876 6.37635C5.69179 6.45574 6.07682 6.70772 6.30989 7.07498L6.31614 7.08483L6.32294 7.09432C6.6276 7.51943 6.70039 8.06353 6.51985 8.55396C6.43951 8.73244 6.36802 8.88953 6.2831 9.0362L6.27266 9.05424L6.26407 9.07325C6.20287 9.20877 6.13921 9.3427 6.07352 9.48087L6.07268 9.48264C6.00782 9.61907 5.94097 9.7597 5.87615 9.90322L5.87608 9.90319L5.87293 9.91054Z" fill="#F5F5F5" stroke="#BCB4B4" stroke-width="0.828405"/>
</g>
<defs>
<clipPath id="clip0_439_1503">
<rect width="21.6515" height="21.6515" fill="white" transform="translate(0.0108032 0.772461)"/>
</clipPath>
</defs>
</svg>
