<svg width="80" height="20" viewBox="0 0 80 20" fill="none" xmlns="http://www.w3.org/2000/svg">
<g clip-path="url(#clip0_439_1966)">
<path d="M1.10449 9.46686V4.64234C1.11234 4.16381 1.19863 3.68528 1.36337 3.23813C1.66931 2.3752 2.22629 1.62211 2.97154 1.08082C3.45792 0.719963 4.00705 0.468931 4.5954 0.327725C4.93273 0.249278 5.2779 0.202209 5.62307 0.202209C8.83157 0.217899 12.0322 0.217899 15.2329 0.210054C15.633 0.217899 16.0409 0.288502 16.4174 0.414018C17.045 0.610136 17.6255 0.939616 18.1119 1.37892C18.8572 2.05357 19.3592 2.96356 19.5475 3.95984C19.5867 4.15596 19.6024 4.35208 19.6103 4.55604C19.6103 7.83515 19.6103 11.1064 19.6103 14.3855C19.6024 14.7777 19.5318 15.1621 19.4063 15.5308C19.2572 16.0094 19.0297 16.4644 18.7316 16.8645C18.308 17.4371 17.7589 17.9078 17.1235 18.2294C16.6685 18.4648 16.1743 18.6217 15.6643 18.6766C15.4761 18.7001 15.28 18.7158 15.0838 18.7158H5.51324C5.09747 18.708 4.68954 18.6374 4.2973 18.5118C3.66972 18.3157 3.08921 17.9862 2.60284 17.5469C1.84974 16.8723 1.34768 15.9623 1.17509 14.966C1.13587 14.7621 1.12018 14.5581 1.11234 14.3463C1.10449 12.7224 1.10449 11.0907 1.10449 9.46686ZM13.0285 14.2835C13.2325 14.2914 13.4286 14.2522 13.6169 14.1737C13.8679 14.0717 14.0954 13.9148 14.268 13.7109C14.4641 13.4912 14.5504 13.2166 14.6681 12.9499C14.77 12.7146 14.8642 12.4714 14.9662 12.2361C15.0917 11.9458 15.2172 11.6555 15.3427 11.3653C15.4682 11.075 15.5859 10.7926 15.7036 10.5024C15.8212 10.2121 15.9468 9.9297 16.0723 9.63944L16.4959 8.62747C16.6371 8.30583 16.7705 7.97635 16.9117 7.65472C17.0372 7.36446 17.1548 7.07421 17.2804 6.78395C17.4451 6.43094 17.4686 6.02301 17.351 5.65431C17.1627 5.08949 16.7705 4.71294 16.1899 4.57958C15.5624 4.43837 15.0368 4.63449 14.6131 5.11302C14.3856 5.3719 14.2994 5.70138 14.1582 5.99948C14.0326 6.28189 13.915 6.5643 13.7973 6.85455C13.6796 7.14481 13.5463 7.44291 13.4207 7.73317C13.3031 8.00773 13.1932 8.2823 13.0756 8.54902C13.0677 8.56471 13.052 8.5804 13.0285 8.58824C13.0128 8.58824 12.9893 8.56471 12.9814 8.54902C12.9344 8.44704 12.903 8.34506 12.8559 8.24308C12.7383 7.96066 12.6127 7.67041 12.4951 7.388C12.3539 7.05852 12.2127 6.72119 12.0714 6.39171C11.9224 6.04655 11.789 5.68569 11.6165 5.35621C11.389 4.9169 10.9653 4.61096 10.479 4.5482C10.1495 4.48544 9.80432 4.54035 9.50622 4.6894C9.13751 4.87768 8.8551 5.19147 8.70605 5.57586C8.58054 5.86612 8.46286 6.15637 8.34519 6.44663C8.20399 6.77611 8.06278 7.10559 7.92158 7.43507C7.78037 7.76454 7.64701 8.09402 7.50581 8.43135C7.34891 8.8079 7.18417 9.1766 7.02728 9.5453C6.87038 9.91401 6.71349 10.2984 6.55659 10.6749C6.35263 11.1692 6.13297 11.6555 5.93686 12.1498C5.78781 12.5263 5.79565 12.9421 5.96824 13.3108C6.16435 13.7815 6.58013 14.1188 7.07434 14.2208C7.61563 14.3463 8.08632 14.2051 8.50209 13.8442C8.7845 13.601 8.91002 13.2637 9.04338 12.9342C9.17674 12.6048 9.32579 12.2674 9.46699 11.9301L9.8357 11.0593C9.95337 10.7926 10.0632 10.5181 10.1809 10.2513C10.1887 10.2356 10.2122 10.2121 10.2279 10.2121C10.2515 10.2121 10.2672 10.2278 10.275 10.2513C10.3691 10.4788 10.4711 10.7142 10.5653 10.9417C10.6829 11.2241 10.8006 11.5143 10.9261 11.7967C11.0516 12.087 11.1771 12.3773 11.2948 12.6675C11.3968 12.9029 11.4752 13.146 11.6008 13.3735C11.891 13.9619 12.3774 14.2678 13.0285 14.2835ZM5.18376 11.0123C5.20729 10.973 5.23083 10.9338 5.25436 10.8946C5.34066 10.6906 5.4191 10.4867 5.50539 10.2906C5.8035 9.57668 6.1016 8.86281 6.40754 8.14894C6.50952 7.90575 6.62719 7.67041 6.74487 7.42722C6.83116 7.27817 6.90176 7.12128 6.97236 6.96438C7.17633 6.42309 7.09788 5.81905 6.76055 5.34836C6.49383 4.94044 6.07806 4.66587 5.59953 4.57958C5.10531 4.46975 4.57972 4.57958 4.17179 4.88552C3.74817 5.19147 3.47361 5.66215 3.41869 6.18775C3.37162 6.57214 3.49714 6.92516 3.62266 7.28602C3.69326 7.48213 3.77955 7.67041 3.86584 7.86653C4.03843 8.27445 4.21101 8.68238 4.3836 9.09815L5.00333 10.573C5.0504 10.6985 5.11316 10.8397 5.18376 11.0123Z" fill="#053F7C"/>
<path d="M13.0285 14.2835C12.3696 14.2678 11.891 13.9619 11.5851 13.3892C11.4674 13.1617 11.3811 12.9186 11.2791 12.6832C11.1536 12.393 11.0281 12.1027 10.9104 11.8124C10.7928 11.5222 10.6673 11.2398 10.5496 10.9574C10.4554 10.7299 10.3535 10.4945 10.2593 10.267C10.2515 10.2513 10.2358 10.2357 10.2123 10.2278C10.1966 10.2278 10.173 10.2513 10.1652 10.267C10.0475 10.5338 9.93769 10.8083 9.82002 11.075L9.45131 11.9458C9.31011 12.2831 9.1689 12.6126 9.0277 12.9499C8.88649 13.2794 8.76882 13.6167 8.48641 13.8599C8.07064 14.2208 7.59995 14.362 7.05867 14.2365C6.56445 14.1345 6.14868 13.7893 5.95256 13.3265C5.77997 12.9578 5.76428 12.542 5.92118 12.1655C6.1173 11.6712 6.33695 11.1849 6.54091 10.6906L7.0116 9.561C7.16849 9.18445 7.33323 8.81575 7.49013 8.44705C7.63133 8.11757 7.76469 7.78809 7.9059 7.45076C8.0471 7.11344 8.18831 6.79181 8.32952 6.46233C8.45503 6.17207 8.5727 5.88182 8.69037 5.59156C8.83942 5.20717 9.12968 4.89338 9.49054 4.7051C9.78864 4.55605 10.1338 4.50114 10.4633 4.5639C10.9575 4.62666 11.3811 4.9326 11.6086 5.37191C11.7812 5.70923 11.9146 6.06225 12.0636 6.40741C12.2048 6.73689 12.346 7.07422 12.4872 7.4037C12.6049 7.68611 12.7304 7.97636 12.8481 8.25877C12.8873 8.36076 12.9265 8.46274 12.9736 8.56472C12.9814 8.58041 13.005 8.60394 13.0207 8.60394C13.0442 8.5961 13.0599 8.58041 13.0677 8.56472C13.1854 8.29015 13.2952 8.01559 13.4129 7.74887C13.5384 7.45861 13.6639 7.16051 13.7895 6.87025C13.915 6.58 14.0248 6.29759 14.1503 6.01518C14.2837 5.70923 14.3778 5.37975 14.6053 5.12872C15.0289 4.65019 15.5545 4.45407 16.1821 4.59528C16.7705 4.72864 17.1549 5.09734 17.3431 5.67001C17.4686 6.04656 17.4373 6.44664 17.2725 6.8075C17.147 7.09775 17.0293 7.38801 16.9038 7.67826C16.7626 7.9999 16.6293 8.32938 16.4881 8.65101C16.3468 8.97265 16.2056 9.32566 16.0644 9.66298C15.9389 9.95324 15.8212 10.2356 15.6957 10.5259C15.5702 10.8162 15.4525 11.0986 15.3349 11.3888C15.2172 11.6791 15.0838 11.9693 14.9583 12.2596C14.8563 12.4949 14.7622 12.7381 14.6602 12.9735C14.5426 13.2402 14.4563 13.5148 14.2601 13.7344C14.0876 13.9462 13.8601 14.1031 13.609 14.2051C13.4286 14.26 13.2325 14.2914 13.0285 14.2835Z" fill="#FDFDFD"/>
<path d="M5.18379 11.0123C5.11318 10.8475 5.05043 10.7063 4.98767 10.5651C4.7837 10.0788 4.5719 9.58453 4.36793 9.09031C4.19535 8.68239 4.02276 8.27446 3.85802 7.85869C3.77958 7.67042 3.68544 7.4743 3.61484 7.27818C3.48932 6.92516 3.36381 6.57215 3.41087 6.17991C3.46579 5.66216 3.74035 5.18363 4.16397 4.88553C4.5719 4.57959 5.08965 4.46976 5.58387 4.57959C6.05455 4.66588 6.47817 4.94044 6.73705 5.34837C7.07437 5.81906 7.15282 6.4231 6.94885 6.96439C6.87825 7.12128 6.80765 7.27818 6.72136 7.42723C6.61153 7.67042 6.49386 7.90576 6.38403 8.14894C6.07809 8.86282 5.77999 9.57669 5.48189 10.2984C5.3956 10.5024 5.31715 10.7063 5.23086 10.9025C5.23086 10.9338 5.20732 10.9731 5.18379 11.0123Z" fill="#ED1C24"/>
</g>
<path d="M27.7563 16.1697C26.8714 16.1697 26.09 15.9202 25.4123 15.4213C24.7345 14.9223 24.2591 14.2163 23.9861 13.3032L25.7794 12.5972C25.9206 13.1337 26.1606 13.5621 26.4995 13.8821C26.8384 14.2022 27.262 14.3622 27.7704 14.3622C28.194 14.3622 28.5564 14.2587 28.8577 14.0516C29.1589 13.8351 29.3095 13.5385 29.3095 13.162C29.3095 12.7854 29.1636 12.4795 28.8718 12.2441C28.5894 11.9994 28.081 11.7405 27.3468 11.4675L26.7255 11.2416C26.0759 11.0157 25.5205 10.6721 25.0592 10.2108C24.598 9.7401 24.3673 9.15174 24.3673 8.44572C24.3673 7.91855 24.5038 7.43845 24.7768 7.00542C25.0498 6.57239 25.4358 6.2335 25.9347 5.98874C26.4336 5.73457 26.9985 5.60749 27.6292 5.60749C28.5423 5.60749 29.2625 5.824 29.7896 6.25703C30.3168 6.68065 30.6792 7.17957 30.8769 7.75381L29.1966 8.45984C29.093 8.14919 28.9094 7.89031 28.6459 7.68321C28.3917 7.46669 28.0622 7.35843 27.6574 7.35843C27.2432 7.35843 26.8996 7.45728 26.6266 7.65497C26.363 7.84324 26.2312 8.0927 26.2312 8.40335C26.2312 8.70459 26.3583 8.96347 26.6125 9.17998C26.8667 9.38709 27.2856 9.58948 27.8692 9.78717L28.5047 9.99898C29.3801 10.3002 30.0485 10.7003 30.5098 11.1992C30.9805 11.6887 31.2158 12.3336 31.2158 13.1337C31.2158 13.7927 31.0463 14.3528 30.7075 14.8141C30.3686 15.2659 29.9308 15.6048 29.3942 15.8308C28.8671 16.0567 28.3211 16.1697 27.7563 16.1697ZM38.3589 16.1697C37.3705 16.1697 36.4715 15.939 35.6619 15.4777C34.8617 15.0071 34.231 14.3669 33.7697 13.5574C33.3085 12.7478 33.0778 11.8582 33.0778 10.8886C33.0778 9.91896 33.3085 9.02937 33.7697 8.21979C34.231 7.41021 34.8617 6.77479 35.6619 6.31351C36.4715 5.84283 37.3705 5.60749 38.3589 5.60749C39.3474 5.60749 40.2417 5.84283 41.0418 6.31351C41.8514 6.77479 42.4868 7.41021 42.9481 8.21979C43.4094 9.02937 43.64 9.91896 43.64 10.8886C43.64 11.8582 43.4094 12.7478 42.9481 13.5574C42.4868 14.3669 41.8514 15.0071 41.0418 15.4777C40.2417 15.939 39.3474 16.1697 38.3589 16.1697ZM38.3589 14.3622C38.9802 14.3622 39.5497 14.2163 40.0675 13.9245C40.5853 13.6327 40.99 13.2232 41.2819 12.696C41.5831 12.1688 41.7337 11.5664 41.7337 10.8886C41.7337 10.2108 41.5831 9.60831 41.2819 9.08114C40.99 8.55397 40.5853 8.14448 40.0675 7.85265C39.5497 7.56083 38.9802 7.41492 38.3589 7.41492C37.7376 7.41492 37.1681 7.56083 36.6503 7.85265C36.142 8.14448 35.7372 8.55397 35.436 9.08114C35.1441 9.60831 34.9982 10.2108 34.9982 10.8886C34.9982 11.5664 35.1441 12.1688 35.436 12.696C35.7372 13.2232 36.142 13.6327 36.6503 13.9245C37.1681 14.2163 37.7376 14.3622 38.3589 14.3622ZM50.659 16.1697C49.68 16.1697 48.7857 15.939 47.9761 15.4777C47.1665 15.0071 46.5264 14.3716 46.0557 13.5715C45.5944 12.7619 45.3638 11.8676 45.3638 10.8886C45.3638 9.90955 45.5944 9.01995 46.0557 8.21979C46.5264 7.41021 47.1665 6.77479 47.9761 6.31351C48.7857 5.84283 49.68 5.60749 50.659 5.60749C52.184 5.60749 53.4455 6.15819 54.4433 7.25959L53.1019 8.55868C52.4523 7.79617 51.6427 7.41492 50.6731 7.41492C50.0424 7.41492 49.4682 7.56083 48.9504 7.85265C48.4327 8.13506 48.0232 8.53985 47.7219 9.06702C47.4301 9.59419 47.2842 10.2014 47.2842 10.8886C47.2842 11.5758 47.4301 12.183 47.7219 12.7101C48.0232 13.2373 48.4327 13.6468 48.9504 13.9386C49.4682 14.221 50.0424 14.3622 50.6731 14.3622C51.7369 14.3622 52.6265 13.9198 53.3419 13.0349L54.6975 14.3199C54.1986 14.9223 53.6055 15.3836 52.9183 15.7037C52.2405 16.0143 51.4874 16.1697 50.659 16.1697ZM57.0274 5.83342H58.9336V15.9437H57.0274V5.83342ZM64.6363 5.83342H66.8249L70.6234 15.9437H68.5194L67.6722 13.5291H63.8031L62.9559 15.9437H60.8519L64.6363 5.83342ZM67.0509 11.7782L66.1613 9.23647L65.7941 8.0221H65.6812L65.314 9.23647L64.4103 11.7782H67.0509ZM72.5534 5.83342H74.4596V14.1363H78.7382V15.9437H72.5534V5.83342Z" fill="#043F7C"/>
<defs>
<clipPath id="clip0_439_1966">
<rect width="18.8274" height="18.8274" fill="white" transform="translate(0.955444 0.0609741)"/>
</clipPath>
</defs>
</svg>
