<svg width="31" height="20" viewBox="0 0 31 20" fill="none" xmlns="http://www.w3.org/2000/svg">
<g clip-path="url(#clip0_439_2665)">
<path d="M23.9145 3.43298L22.7482 4.16166C25.8194 5.4937 27.8349 7.71298 27.8349 10.2211C27.8349 12.7249 25.8264 14.9403 22.7651 16.273L23.9315 17.0019C27.2804 15.4752 29.462 13.0044 29.462 10.2211C29.462 7.43351 27.2733 4.95888 23.9145 3.43298Z" fill="white"/>
<path d="M26.0048 10.2214C26.0048 8.02801 24.1804 6.09585 21.4293 4.98621L20.246 5.72577C22.7157 6.63125 24.3772 8.30689 24.3772 10.2214C24.3772 12.1315 22.7241 13.8042 20.2657 14.7106L21.4472 15.4498C24.1884 14.339 26.0048 12.4104 26.0048 10.2214Z" fill="white"/>
<path d="M22.6187 10.2213C22.6187 8.60747 21.122 7.20748 18.9502 6.53528L17.7133 7.30955C19.6233 7.73876 20.9925 8.88194 20.9925 10.2213C20.9925 11.556 19.6341 12.696 17.7358 13.1296L18.9709 13.9015C21.1314 13.2267 22.6187 11.8311 22.6187 10.2213Z" fill="white"/>
<path d="M18.8716 10.2218C18.8716 9.22427 17.4888 8.41616 15.7835 8.41616V1.8048C15.7835 1.57917 15.4705 1.39648 15.0845 1.39648C14.6995 1.39648 14.3865 1.57917 14.3865 1.8048V2.00985C13.8767 2.26843 6.13066 6.63668 6.13066 6.63668H2.88953C1.96792 6.63668 1.22095 7.07294 1.22095 7.61188V12.8309C1.22095 13.3701 1.96792 13.8064 2.88953 13.8064H6.13113V13.807C6.13113 13.807 10.6643 15.9733 14.3869 18.427V18.6383C14.3869 18.8639 14.6999 19.0472 15.085 19.0472C15.4709 19.0472 15.7839 18.8639 15.7839 18.6383V12.0269C17.4892 12.0269 18.8716 11.2185 18.8716 10.2218Z" fill="white"/>
</g>
<defs>
<clipPath id="clip0_439_2665">
<rect width="30.1238" height="18.8274" fill="white" transform="translate(0.279541 0.808105)"/>
</clipPath>
</defs>
</svg>
