<svg width="106" height="41" viewBox="0 0 106 41" fill="none" xmlns="http://www.w3.org/2000/svg">
<g filter="url(#filter0_d_439_2369)">
<path d="M19.0525 33.3218C14.1738 33.3218 12.5174 26.8127 16.8027 24.4806L22.9547 21.1327C26.2115 19.3604 26.2355 14.6933 22.9972 12.8875L16.3692 9.19159C12.1308 6.82812 13.8087 0.37384 18.6616 0.37384L96.576 0.37384C99.1755 0.37384 101.283 2.48117 101.283 5.08069V28.6149C101.283 31.2144 99.1755 33.3218 96.576 33.3218L19.0525 33.3218Z" fill="#ED1C24"/>
<path d="M32.1317 20.9048C32.035 20.9048 31.956 20.874 31.8945 20.8125C31.833 20.751 31.8022 20.672 31.8022 20.5753V13.5113H29.4036C29.3157 13.5113 29.2411 13.4805 29.1796 13.419C29.1181 13.3575 29.0873 13.2828 29.0873 13.195V12.0088C29.0873 11.9122 29.1181 11.8331 29.1796 11.7716C29.2411 11.7101 29.3157 11.6794 29.4036 11.6794H36.3095C36.4061 11.6794 36.4852 11.7101 36.5467 11.7716C36.6082 11.8331 36.639 11.9122 36.639 12.0088V13.195C36.639 13.2828 36.6082 13.3575 36.5467 13.419C36.4852 13.4805 36.4061 13.5113 36.3095 13.5113H33.9241V20.5753C33.9241 20.672 33.8933 20.751 33.8318 20.8125C33.7703 20.874 33.6912 20.9048 33.5946 20.9048H32.1317ZM39.7143 21.0366C38.985 21.0366 38.3744 20.918 37.8823 20.6807C37.3903 20.4347 37.0125 20.0877 36.7489 19.6396C36.4941 19.1915 36.3536 18.6687 36.3272 18.0713C36.3184 17.8955 36.314 17.6979 36.314 17.4782C36.314 17.2498 36.3184 17.0521 36.3272 16.8851C36.3536 16.2789 36.5029 15.7561 36.7753 15.3168C37.0477 14.8687 37.4299 14.5261 37.9219 14.2888C38.4139 14.0428 39.0114 13.9198 39.7143 13.9198C40.4084 13.9198 41.0014 14.0428 41.4934 14.2888C41.9855 14.5261 42.3677 14.8687 42.64 15.3168C42.9124 15.7561 43.0618 16.2789 43.0881 16.8851C43.1057 17.0521 43.1145 17.2498 43.1145 17.4782C43.1145 17.6979 43.1057 17.8955 43.0881 18.0713C43.0618 18.6687 42.9168 19.1915 42.6532 19.6396C42.3984 20.0877 42.025 20.4347 41.533 20.6807C41.041 20.918 40.4347 21.0366 39.7143 21.0366ZM39.7143 19.5869C40.1448 19.5869 40.4699 19.4551 40.6895 19.1915C40.9092 18.9191 41.0278 18.5237 41.0453 18.0054C41.0541 17.8736 41.0585 17.6979 41.0585 17.4782C41.0585 17.2585 41.0541 17.0828 41.0453 16.951C41.0278 16.4414 40.9092 16.0505 40.6895 15.7781C40.4699 15.5057 40.1448 15.3695 39.7143 15.3695C39.2837 15.3695 38.9543 15.5057 38.7258 15.7781C38.5062 16.0505 38.3875 16.4414 38.37 16.951C38.3612 17.0828 38.3568 17.2585 38.3568 17.4782C38.3568 17.6979 38.3612 17.8736 38.37 18.0054C38.3875 18.5237 38.5062 18.9191 38.7258 19.1915C38.9543 19.4551 39.2837 19.5869 39.7143 19.5869ZM44.8223 23.4088C44.7257 23.4088 44.6466 23.3781 44.5851 23.3166C44.5236 23.2551 44.4928 23.176 44.4928 23.0793V14.3811C44.4928 14.2844 44.5236 14.2054 44.5851 14.1439C44.6466 14.0824 44.7257 14.0516 44.8223 14.0516H46.0743C46.171 14.0516 46.2501 14.0824 46.3116 14.1439C46.3731 14.2054 46.4038 14.2844 46.4038 14.3811V14.8819C46.6147 14.6007 46.8871 14.3723 47.2209 14.1966C47.5548 14.0121 47.9721 13.9198 48.4729 13.9198C48.9298 13.9198 49.3252 13.9945 49.6591 14.1439C50.0017 14.2844 50.2873 14.4909 50.5157 14.7633C50.7529 15.0269 50.9331 15.3476 51.0561 15.7254C51.1879 16.1032 51.2625 16.5293 51.2801 17.0037C51.2889 17.1707 51.2933 17.3288 51.2933 17.4782C51.2933 17.6276 51.2889 17.7901 51.2801 17.9658C51.2713 18.4139 51.201 18.8269 51.0692 19.2047C50.9462 19.5825 50.7661 19.9076 50.5289 20.1799C50.2917 20.4523 50.0017 20.6632 49.6591 20.8125C49.3252 20.9619 48.9298 21.0366 48.4729 21.0366C48.0249 21.0366 47.6339 20.9575 47.3 20.7994C46.9749 20.6324 46.7069 20.4084 46.4961 20.1272V23.0793C46.4961 23.176 46.4653 23.2551 46.4038 23.3166C46.3423 23.3781 46.2676 23.4088 46.1798 23.4088H44.8223ZM47.8799 19.4551C48.2138 19.4551 48.4773 19.3848 48.6706 19.2442C48.8639 19.0948 49.0001 18.9016 49.0792 18.6643C49.167 18.4271 49.2198 18.1679 49.2373 17.8868C49.2549 17.6144 49.2549 17.342 49.2373 17.0696C49.2198 16.7885 49.167 16.5293 49.0792 16.2921C49.0001 16.0548 48.8639 15.8659 48.6706 15.7254C48.4773 15.576 48.2138 15.5013 47.8799 15.5013C47.5548 15.5013 47.2912 15.576 47.0891 15.7254C46.8871 15.8747 46.7421 16.0636 46.6542 16.2921C46.5664 16.5205 46.5136 16.7665 46.4961 17.0301C46.4873 17.1883 46.4829 17.3508 46.4829 17.5177C46.4829 17.6847 46.4873 17.8516 46.4961 18.0185C46.5049 18.2646 46.5576 18.4974 46.6542 18.717C46.7597 18.9279 46.909 19.1036 47.1023 19.2442C47.3044 19.3848 47.5636 19.4551 47.8799 19.4551ZM56.0743 20.9048C55.9777 20.9048 55.8986 20.874 55.8371 20.8125C55.7756 20.751 55.7449 20.672 55.7449 20.5753V12.0088C55.7449 11.9122 55.7756 11.8331 55.8371 11.7716C55.8986 11.7101 55.9777 11.6794 56.0743 11.6794H59.3823C60.2609 11.6794 60.9946 11.8199 61.5832 12.1011C62.1719 12.3735 62.62 12.7776 62.9275 13.3136C63.2438 13.8407 63.4107 14.4953 63.4283 15.2773C63.4371 15.6639 63.4415 16.0021 63.4415 16.2921C63.4415 16.582 63.4371 16.9159 63.4283 17.2937C63.402 18.1108 63.2394 18.7873 62.9407 19.3233C62.642 19.8592 62.2027 20.259 61.6228 20.5226C61.0429 20.7774 60.318 20.9048 59.4482 20.9048H56.0743ZM57.8404 19.2047H59.3823C59.8216 19.2047 60.1819 19.1388 60.463 19.007C60.7442 18.8752 60.9506 18.6687 61.0824 18.3876C61.223 18.0976 61.2977 17.7242 61.3065 17.2673C61.3153 17.0125 61.3197 16.7841 61.3197 16.582C61.3284 16.3799 61.3284 16.1779 61.3197 15.9758C61.3197 15.7737 61.3153 15.5496 61.3065 15.3036C61.2889 14.6447 61.1176 14.1614 60.7925 13.8539C60.4762 13.5376 59.9842 13.3795 59.3164 13.3795H57.8404V19.2047ZM68.0013 21.0366C66.9909 21.0366 66.187 20.7554 65.5895 20.1931C65.0008 19.6308 64.6889 18.8137 64.6538 17.7418C64.6538 17.6715 64.6538 17.5792 64.6538 17.465C64.6538 17.342 64.6538 17.2454 64.6538 17.1751C64.6889 16.4985 64.8427 15.9187 65.1151 15.4354C65.3874 14.9434 65.7696 14.57 66.2616 14.3152C66.7537 14.0516 67.3292 13.9198 67.9881 13.9198C68.7261 13.9198 69.3412 14.0736 69.8332 14.3811C70.334 14.6798 70.7074 15.0928 70.9534 15.6199C71.2082 16.1383 71.3356 16.7358 71.3356 17.4123V17.7154C71.3356 17.8033 71.3005 17.878 71.2302 17.9395C71.1687 18.001 71.094 18.0317 71.0061 18.0317H66.6966C66.6966 18.0405 66.6966 18.0581 66.6966 18.0844C66.6966 18.102 66.6966 18.1196 66.6966 18.1372C66.7053 18.4183 66.7581 18.6775 66.8547 18.9147C66.9601 19.1432 67.1051 19.3277 67.2896 19.4683C67.4829 19.6088 67.7113 19.6791 67.9749 19.6791C68.1946 19.6791 68.3747 19.6484 68.5153 19.5869C68.6559 19.5254 68.7701 19.4507 68.8579 19.3628C68.9546 19.275 69.0249 19.2003 69.0688 19.1388C69.1479 19.0509 69.2094 18.9982 69.2533 18.9806C69.306 18.9543 69.3851 18.9411 69.4905 18.9411H70.8612C70.949 18.9411 71.0193 18.9674 71.072 19.0202C71.1335 19.0641 71.1599 19.13 71.1511 19.2179C71.1423 19.3584 71.0676 19.5342 70.9271 19.745C70.7953 19.9471 70.5976 20.1492 70.334 20.3513C70.0704 20.5446 69.7409 20.7071 69.3456 20.8389C68.959 20.9707 68.5109 21.0366 68.0013 21.0366ZM66.6966 16.8324H69.2797V16.8061C69.2797 16.4898 69.227 16.2174 69.1215 15.989C69.0249 15.7517 68.8799 15.5672 68.6866 15.4354C68.4933 15.3036 68.2605 15.2377 67.9881 15.2377C67.7157 15.2377 67.4829 15.3036 67.2896 15.4354C67.0963 15.5672 66.947 15.7517 66.8415 15.989C66.7449 16.2174 66.6966 16.4898 66.6966 16.8061V16.8324ZM74.6694 21.0366C74.2038 21.0366 73.7864 20.9487 73.4174 20.773C73.0484 20.5885 72.7541 20.3425 72.5344 20.035C72.3148 19.7274 72.2049 19.3848 72.2049 19.007C72.2049 18.3832 72.4553 17.8911 72.9561 17.5309C73.4657 17.1707 74.1335 16.9247 74.9594 16.7929L76.6859 16.5425V16.3053C76.6859 15.9626 76.6068 15.699 76.4486 15.5145C76.2905 15.33 76.0137 15.2377 75.6183 15.2377C75.3284 15.2377 75.0956 15.2948 74.9198 15.4091C74.7441 15.5233 74.6079 15.6727 74.5113 15.8572C74.441 15.9714 74.34 16.0285 74.2082 16.0285H72.9561C72.8595 16.0285 72.7848 16.0021 72.7321 15.9494C72.6794 15.8879 72.6574 15.8176 72.6662 15.7385C72.6662 15.5892 72.7233 15.4135 72.8375 15.2114C72.9518 15.0093 73.1275 14.8116 73.3647 14.6183C73.6019 14.4162 73.905 14.2493 74.2741 14.1175C74.6431 13.9857 75.0956 13.9198 75.6315 13.9198C76.185 13.9198 76.6595 13.9857 77.0549 14.1175C77.4502 14.2493 77.7665 14.4338 78.0038 14.671C78.241 14.9083 78.4167 15.185 78.5309 15.5013C78.6452 15.8088 78.7023 16.1427 78.7023 16.5029V20.5753C78.7023 20.672 78.6715 20.751 78.61 20.8125C78.5485 20.874 78.4694 20.9048 78.3728 20.9048H77.0812C76.9934 20.9048 76.9187 20.874 76.8572 20.8125C76.7957 20.751 76.7649 20.672 76.7649 20.5753V20.0877C76.6507 20.2546 76.4969 20.4128 76.3037 20.5621C76.1104 20.7027 75.8775 20.8169 75.6052 20.9048C75.3416 20.9926 75.0297 21.0366 74.6694 21.0366ZM75.1966 19.6659C75.4865 19.6659 75.7457 19.6044 75.9742 19.4814C76.2026 19.3584 76.3827 19.1695 76.5145 18.9147C76.6463 18.6599 76.7122 18.3392 76.7122 17.9526V17.7286L75.4865 17.9263C75.0121 18.0054 74.665 18.124 74.4454 18.2821C74.2257 18.4403 74.1159 18.6336 74.1159 18.862C74.1159 19.0289 74.1642 19.1739 74.2609 19.2969C74.3663 19.4199 74.5025 19.5122 74.6694 19.5737C74.8364 19.6352 75.0121 19.6659 75.1966 19.6659ZM80.6275 20.9048C80.5308 20.9048 80.4517 20.874 80.3902 20.8125C80.3287 20.751 80.298 20.672 80.298 20.5753V11.877C80.298 11.7804 80.3287 11.7013 80.3902 11.6398C80.4517 11.5783 80.5308 11.5476 80.6275 11.5476H81.9454C82.0332 11.5476 82.1079 11.5783 82.1694 11.6398C82.2309 11.7013 82.2617 11.7804 82.2617 11.877V20.5753C82.2617 20.672 82.2309 20.751 82.1694 20.8125C82.1079 20.874 82.0332 20.9048 81.9454 20.9048H80.6275ZM86.6291 21.0366C86.0844 21.0366 85.6143 20.9751 85.219 20.8521C84.8324 20.7203 84.5161 20.5621 84.2701 20.3776C84.0328 20.1931 83.8527 20.0086 83.7297 19.8241C83.6155 19.6308 83.554 19.4683 83.5452 19.3365C83.5364 19.2398 83.5672 19.1607 83.6375 19.0992C83.7077 19.0377 83.778 19.007 83.8483 19.007H85.1267C85.1531 19.007 85.1794 19.0114 85.2058 19.0202C85.2321 19.0289 85.2585 19.0509 85.2849 19.0861C85.3991 19.1651 85.5177 19.2574 85.6407 19.3628C85.7637 19.4595 85.9043 19.5429 86.0624 19.6132C86.2294 19.6835 86.4358 19.7187 86.6818 19.7187C86.9718 19.7187 87.2178 19.6615 87.4199 19.5473C87.622 19.4243 87.723 19.253 87.723 19.0333C87.723 18.8752 87.6747 18.7434 87.578 18.638C87.4902 18.5325 87.3188 18.4359 87.064 18.348C86.8092 18.2602 86.4314 18.1635 85.9306 18.0581C85.4562 17.9526 85.052 17.8121 84.7181 17.6363C84.3843 17.4606 84.1339 17.241 83.9669 16.9774C83.8 16.705 83.7165 16.3799 83.7165 16.0021C83.7165 15.6595 83.822 15.33 84.0328 15.0137C84.2525 14.6974 84.5732 14.4382 84.9949 14.2361C85.4166 14.0253 85.9438 13.9198 86.5764 13.9198C87.0596 13.9198 87.4814 13.9813 87.8416 14.1043C88.2106 14.2186 88.5181 14.3679 88.7642 14.5524C89.0102 14.7281 89.1947 14.9127 89.3177 15.1059C89.4495 15.2905 89.5198 15.453 89.5285 15.5936C89.5373 15.6814 89.511 15.7561 89.4495 15.8176C89.388 15.8791 89.3177 15.9099 89.2386 15.9099H88.0657C88.0217 15.9099 87.9822 15.9055 87.947 15.8967C87.9119 15.8791 87.8811 15.8572 87.8548 15.8308C87.7494 15.7605 87.6395 15.6814 87.5253 15.5936C87.4199 15.4969 87.2925 15.4135 87.1431 15.3432C86.9937 15.2729 86.8005 15.2377 86.5632 15.2377C86.2733 15.2377 86.0492 15.3036 85.8911 15.4354C85.7417 15.5584 85.667 15.7166 85.667 15.9099C85.667 16.0329 85.7066 16.1471 85.7857 16.2525C85.8647 16.358 86.0273 16.4546 86.2733 16.5425C86.5193 16.6303 86.8927 16.7226 87.3935 16.8192C87.991 16.9247 88.4654 17.0828 88.8169 17.2937C89.1683 17.5046 89.4187 17.7506 89.5681 18.0317C89.7262 18.3041 89.8053 18.5984 89.8053 18.9147C89.8053 19.3277 89.6823 19.6967 89.4363 20.0218C89.1903 20.3381 88.83 20.5885 88.3556 20.773C87.8899 20.9487 87.3144 21.0366 86.6291 21.0366Z" fill="white"/>
</g>
<defs>
<filter id="filter0_d_439_2369" x="10.1815" y="0.37384" width="94.8668" height="40.4789" filterUnits="userSpaceOnUse" color-interpolation-filters="sRGB">
<feFlood flood-opacity="0" result="BackgroundImageFix"/>
<feColorMatrix in="SourceAlpha" type="matrix" values="0 0 0 0 0 0 0 0 0 0 0 0 0 0 0 0 0 0 127 0" result="hardAlpha"/>
<feOffset dy="3.76548"/>
<feGaussianBlur stdDeviation="1.88274"/>
<feComposite in2="hardAlpha" operator="out"/>
<feColorMatrix type="matrix" values="0 0 0 0 0 0 0 0 0 0 0 0 0 0 0 0 0 0 0.25 0"/>
<feBlend mode="normal" in2="BackgroundImageFix" result="effect1_dropShadow_439_2369"/>
<feBlend mode="normal" in="SourceGraphic" in2="effect1_dropShadow_439_2369" result="shape"/>
</filter>
</defs>
</svg>
