<svg width="146" height="23" viewBox="0 0 146 23" fill="none" xmlns="http://www.w3.org/2000/svg">
<path d="M27.0314 16.5967C26.8431 16.5967 26.7019 16.5402 26.6078 16.4272C26.5231 16.3049 26.4854 16.1825 26.4948 16.0601L26.9608 7.06531C26.9702 6.97118 27.0126 6.89116 27.0879 6.82526C27.1726 6.74995 27.262 6.7123 27.3562 6.7123H29.912C30.072 6.7123 30.185 6.74054 30.2509 6.79702C30.3262 6.8535 30.3544 6.95235 30.3356 7.09355L29.9685 11.0755L30.9146 9.31048C30.9522 9.24458 31.0134 9.15986 31.0981 9.05631C31.1828 8.95276 31.3099 8.90098 31.4794 8.90098H32.9197C33.0891 8.90098 33.1927 8.95276 33.2303 9.05631C33.2774 9.15986 33.3056 9.24458 33.315 9.31048L33.5269 11.0614L34.8542 7.09355C34.9389 6.83938 35.1366 6.7123 35.4472 6.7123H38.1443C38.2384 6.7123 38.3043 6.74995 38.342 6.82526C38.389 6.90057 38.3984 6.98059 38.3702 7.06531L35.306 16.0601C35.2684 16.1825 35.179 16.3049 35.0378 16.4272C34.8965 16.5402 34.7318 16.5967 34.5435 16.5967H32.5243C32.336 16.5967 32.2089 16.5496 32.143 16.4555C32.0771 16.3519 32.0348 16.2719 32.016 16.2154L31.2676 13.3207L29.7002 16.2154C29.6719 16.2719 29.6013 16.3519 29.4884 16.4555C29.3848 16.5496 29.2389 16.5967 29.0506 16.5967H27.0314ZM42.8107 16.7379C42.1894 16.7379 41.601 16.6579 41.0456 16.4978C40.4996 16.3378 40.0242 16.0978 39.6194 15.7777C39.224 15.4576 38.9322 15.0622 38.744 14.5916C38.5651 14.1115 38.5274 13.5561 38.631 12.9253C38.6969 12.5394 38.7769 12.1299 38.871 11.6969C38.9652 11.2638 39.0593 10.8449 39.1534 10.4401C39.4641 9.20693 40.0336 8.25614 40.862 7.58777C41.6999 6.90999 42.8813 6.57109 44.4063 6.57109C45.0276 6.57109 45.6112 6.65582 46.1572 6.82526C46.7126 6.99471 47.188 7.24417 47.5834 7.57365C47.9882 7.90313 48.28 8.30792 48.4589 8.78802C48.6472 9.26812 48.6895 9.81882 48.586 10.4401C48.5201 10.8449 48.4401 11.2638 48.3459 11.6969C48.2518 12.1299 48.1576 12.5394 48.0635 12.9253C47.7434 14.1868 47.1692 15.1376 46.3408 15.7777C45.5124 16.4178 44.3357 16.7379 42.8107 16.7379ZM43.1213 13.9844C43.432 13.9844 43.7003 13.8949 43.9262 13.7161C44.1521 13.5278 44.3122 13.236 44.4063 12.8406C44.5098 12.4358 44.604 12.0357 44.6887 11.6404C44.7734 11.245 44.8487 10.8543 44.9146 10.4684C44.9899 10.073 44.9476 9.78587 44.7875 9.60701C44.6369 9.41874 44.411 9.3246 44.1098 9.3246C43.8085 9.3246 43.5449 9.41874 43.319 9.60701C43.0931 9.78587 42.9283 10.073 42.8248 10.4684C42.7307 10.8543 42.6412 11.245 42.5565 11.6404C42.4718 12.0357 42.3918 12.4358 42.3164 12.8406C42.2506 13.236 42.2882 13.5278 42.4294 13.7161C42.58 13.8949 42.8107 13.9844 43.1213 13.9844ZM53.8556 16.7379C53.2343 16.7379 52.6459 16.6579 52.0905 16.4978C51.5445 16.3378 51.0691 16.0978 50.6643 15.7777C50.269 15.4576 49.9771 15.0622 49.7889 14.5916C49.61 14.1115 49.5724 13.5561 49.6759 12.9253C49.7418 12.5394 49.8218 12.1299 49.916 11.6969C50.0101 11.2638 50.1042 10.8449 50.1984 10.4401C50.509 9.20693 51.0785 8.25614 51.9069 7.58777C52.7448 6.90999 53.9262 6.57109 55.4512 6.57109C56.0725 6.57109 56.6562 6.65582 57.2022 6.82526C57.7576 6.99471 58.233 7.24417 58.6283 7.57365C59.0331 7.90313 59.3249 8.30792 59.5038 8.78802C59.6921 9.26812 59.7344 9.81882 59.6309 10.4401C59.565 10.8449 59.485 11.2638 59.3908 11.6969C59.2967 12.1299 59.2026 12.5394 59.1084 12.9253C58.7884 14.1868 58.2141 15.1376 57.3857 15.7777C56.5573 16.4178 55.3806 16.7379 53.8556 16.7379ZM54.1662 13.9844C54.4769 13.9844 54.7452 13.8949 54.9711 13.7161C55.197 13.5278 55.3571 13.236 55.4512 12.8406C55.5548 12.4358 55.6489 12.0357 55.7336 11.6404C55.8183 11.245 55.8936 10.8543 55.9595 10.4684C56.0349 10.073 55.9925 9.78587 55.8325 9.60701C55.6818 9.41874 55.4559 9.3246 55.1547 9.3246C54.8534 9.3246 54.5899 9.41874 54.3639 9.60701C54.138 9.78587 53.9733 10.073 53.8697 10.4684C53.7756 10.8543 53.6861 11.245 53.6014 11.6404C53.5167 12.0357 53.4367 12.4358 53.3614 12.8406C53.2955 13.236 53.3331 13.5278 53.4743 13.7161C53.6249 13.8949 53.8556 13.9844 54.1662 13.9844ZM60.2831 16.5967C60.1795 16.5967 60.0995 16.559 60.043 16.4837C59.9771 16.4084 59.9536 16.319 59.9724 16.2154L60.4102 14.1821C60.4384 14.0503 60.4855 13.9467 60.5514 13.8714C60.6267 13.7867 60.6832 13.7255 60.7208 13.6878L65.4088 9.57877H61.9069C61.8034 9.57877 61.7234 9.54111 61.6669 9.46581C61.6104 9.3905 61.5916 9.30107 61.6104 9.19751L62.0623 7.09355C62.0811 6.99 62.1329 6.90057 62.2176 6.82526C62.3117 6.74995 62.4106 6.7123 62.5141 6.7123H70.2522C70.3557 6.7123 70.4357 6.74995 70.4922 6.82526C70.5581 6.90057 70.5817 6.99 70.5628 7.09355L70.1251 9.09867C70.1063 9.19281 70.0686 9.27753 70.0121 9.35284C69.9651 9.42815 69.9086 9.49875 69.8427 9.56465L65.3665 13.702H68.9531C69.0566 13.702 69.1367 13.7396 69.1931 13.8149C69.259 13.8902 69.2779 13.9797 69.2496 14.0832L68.7978 16.2154C68.7789 16.319 68.7225 16.4084 68.6283 16.4837C68.5436 16.559 68.4495 16.5967 68.3459 16.5967H60.2831ZM70.9071 16.5967C70.8036 16.5967 70.7189 16.559 70.653 16.4837C70.5965 16.4084 70.5777 16.319 70.5965 16.2154L72.5451 7.09355C72.5639 6.99 72.6157 6.90057 72.7004 6.82526C72.7946 6.74995 72.8934 6.7123 72.997 6.7123H80.2408C80.3444 6.7123 80.4244 6.74995 80.4809 6.82526C80.5468 6.90057 80.5703 6.99 80.5515 7.09355L80.1278 9.08455C80.109 9.1881 80.0525 9.27753 79.9584 9.35284C79.8643 9.42815 79.7654 9.46581 79.6619 9.46581H75.4257L75.228 10.3554H79.1535C79.2571 10.3554 79.3371 10.3931 79.3936 10.4684C79.4595 10.5437 79.483 10.6331 79.4642 10.7367L79.0688 12.5723C79.05 12.6759 78.9935 12.7653 78.8994 12.8406C78.8052 12.9159 78.7064 12.9536 78.6028 12.9536H74.6773L74.4937 13.8432H78.8429C78.9464 13.8432 79.0264 13.8808 79.0829 13.9561C79.1394 14.0314 79.1582 14.1209 79.1394 14.2244L78.7158 16.2154C78.697 16.319 78.6405 16.4084 78.5463 16.4837C78.4616 16.559 78.3675 16.5967 78.2639 16.5967H70.9071ZM80.8765 16.5967C80.7729 16.5967 80.6882 16.559 80.6223 16.4837C80.5658 16.4084 80.547 16.319 80.5658 16.2154L82.5144 7.09355C82.5333 6.99 82.585 6.90057 82.6698 6.82526C82.7639 6.74995 82.8627 6.7123 82.9663 6.7123H90.2101C90.3137 6.7123 90.3937 6.74995 90.4502 6.82526C90.5161 6.90057 90.5396 6.99 90.5208 7.09355L90.0972 9.08455C90.0783 9.1881 90.0219 9.27753 89.9277 9.35284C89.8336 9.42815 89.7347 9.46581 89.6312 9.46581H85.395L85.1973 10.3554H89.1229C89.2264 10.3554 89.3064 10.3931 89.3629 10.4684C89.4288 10.5437 89.4523 10.6331 89.4335 10.7367L89.0381 12.5723C89.0193 12.6759 88.9628 12.7653 88.8687 12.8406C88.7745 12.9159 88.6757 12.9536 88.5722 12.9536H84.6466L84.4631 13.8432H88.8122C88.9158 13.8432 88.9958 13.8808 89.0523 13.9561C89.1087 14.0314 89.1276 14.1209 89.1087 14.2244L88.6851 16.2154C88.6663 16.319 88.6098 16.4084 88.5157 16.4837C88.4309 16.559 88.3368 16.5967 88.2333 16.5967H80.8765ZM90.8458 16.5967C90.7422 16.5967 90.6575 16.559 90.5916 16.4837C90.5351 16.4084 90.5163 16.319 90.5351 16.2154L92.4838 7.09355C92.5026 6.99 92.5544 6.90057 92.6391 6.82526C92.7332 6.74995 92.8321 6.7123 92.9356 6.7123H100.179C100.283 6.7123 100.363 6.74995 100.42 6.82526C100.485 6.90057 100.509 6.99 100.49 7.09355L100.066 9.08455C100.048 9.1881 99.9912 9.27753 99.8971 9.35284C99.8029 9.42815 99.7041 9.46581 99.6005 9.46581H95.3644L95.1667 10.3554H99.0922C99.1957 10.3554 99.2757 10.3931 99.3322 10.4684C99.3981 10.5437 99.4217 10.6331 99.4028 10.7367L99.0075 12.5723C98.9886 12.6759 98.9321 12.7653 98.838 12.8406C98.7439 12.9159 98.645 12.9536 98.5415 12.9536H94.616L94.4324 13.8432H98.7815C98.8851 13.8432 98.9651 13.8808 99.0216 13.9561C99.0781 14.0314 99.0969 14.1209 99.0781 14.2244L98.6544 16.2154C98.6356 16.319 98.5791 16.4084 98.485 16.4837C98.4003 16.559 98.3061 16.5967 98.2026 16.5967H90.8458ZM104.041 16.5967C103.938 16.5967 103.853 16.559 103.787 16.4837C103.731 16.4084 103.712 16.319 103.731 16.2154L105.679 7.09355C105.698 6.99 105.75 6.90057 105.835 6.82526C105.929 6.74995 106.028 6.7123 106.131 6.7123H113.375C113.479 6.7123 113.559 6.74995 113.615 6.82526C113.681 6.90057 113.704 6.99 113.686 7.09355L113.262 9.08455C113.243 9.1881 113.187 9.27753 113.093 9.35284C112.998 9.42815 112.9 9.46581 112.796 9.46581H108.56L108.362 10.3554H112.288C112.391 10.3554 112.471 10.3931 112.528 10.4684C112.594 10.5437 112.617 10.6331 112.598 10.7367L112.203 12.5723C112.184 12.6759 112.128 12.7653 112.034 12.8406C111.939 12.9159 111.841 12.9536 111.737 12.9536H107.812L107.628 13.8432H111.977C112.081 13.8432 112.161 13.8808 112.217 13.9561C112.274 14.0314 112.292 14.1209 112.274 14.2244L111.85 16.2154C111.831 16.319 111.775 16.4084 111.681 16.4837C111.596 16.559 111.502 16.5967 111.398 16.5967H104.041ZM113.178 16.5967C113.074 16.5967 112.999 16.5543 112.952 16.4696C112.905 16.3755 112.909 16.2813 112.966 16.1872L118.021 7.17828C118.077 7.07473 118.167 6.97118 118.289 6.86763C118.412 6.76407 118.567 6.7123 118.755 6.7123H121.89C122.078 6.7123 122.21 6.76407 122.285 6.86763C122.37 6.97118 122.417 7.07473 122.426 7.17828L123.669 16.1872C123.688 16.3096 123.655 16.4084 123.57 16.4837C123.486 16.559 123.391 16.5967 123.288 16.5967H120.746C120.567 16.5967 120.445 16.559 120.379 16.4837C120.323 16.399 120.285 16.319 120.266 16.2437L120.125 15.3117H117.089L116.552 16.2437C116.505 16.319 116.435 16.399 116.341 16.4837C116.256 16.559 116.119 16.5967 115.931 16.5967H113.178ZM118.388 12.5582H119.984L119.744 9.93178L118.388 12.5582ZM127.506 16.5967C127.403 16.5967 127.318 16.559 127.252 16.4837C127.196 16.4084 127.177 16.319 127.196 16.2154L128.579 9.74822H126.235C126.132 9.74822 126.047 9.71056 125.981 9.63525C125.925 9.55994 125.906 9.47051 125.925 9.36696L126.419 7.09355C126.438 6.99 126.49 6.90057 126.574 6.82526C126.668 6.74995 126.767 6.7123 126.871 6.7123H135.145C135.249 6.7123 135.329 6.74995 135.386 6.82526C135.451 6.90057 135.475 6.99 135.456 7.09355L134.962 9.36696C134.943 9.47051 134.887 9.55994 134.792 9.63525C134.708 9.71056 134.614 9.74822 134.51 9.74822H132.166L130.782 16.2154C130.763 16.319 130.707 16.4084 130.613 16.4837C130.528 16.559 130.434 16.5967 130.33 16.5967H127.506ZM139.365 16.7379C138.33 16.7379 137.478 16.5967 136.81 16.3143C136.141 16.0319 135.661 15.66 135.369 15.1987C135.087 14.7375 134.993 14.248 135.087 13.7302C135.106 13.6455 135.148 13.5749 135.214 13.5184C135.289 13.4525 135.369 13.4196 135.454 13.4196H138.137C138.288 13.4196 138.396 13.4431 138.462 13.4902C138.537 13.5278 138.617 13.5843 138.702 13.6596C138.777 13.7255 138.857 13.7867 138.942 13.8432C139.036 13.8902 139.144 13.9279 139.267 13.9561C139.389 13.975 139.525 13.9844 139.676 13.9844C139.996 13.9844 140.26 13.9514 140.467 13.8855C140.674 13.8102 140.792 13.7114 140.82 13.589C140.848 13.476 140.815 13.3819 140.721 13.3066C140.627 13.2313 140.453 13.1654 140.199 13.1089C139.944 13.043 139.591 12.9818 139.139 12.9253C138.415 12.8218 137.807 12.6335 137.318 12.3605C136.828 12.0781 136.48 11.7063 136.273 11.245C136.075 10.7837 136.047 10.2424 136.188 9.62113C136.386 8.66093 136.894 7.91255 137.713 7.37596C138.532 6.83938 139.582 6.57109 140.862 6.57109C141.502 6.57109 142.081 6.66523 142.599 6.8535C143.126 7.03236 143.573 7.27241 143.94 7.57365C144.317 7.86548 144.595 8.18084 144.774 8.51973C144.952 8.85862 145.014 9.18339 144.957 9.49405C144.948 9.57877 144.905 9.65408 144.83 9.71997C144.755 9.77646 144.679 9.8047 144.604 9.8047H141.78C141.648 9.8047 141.545 9.78587 141.469 9.74822C141.403 9.71056 141.333 9.65408 141.258 9.57877C141.22 9.5317 141.145 9.47993 141.032 9.42344C140.919 9.35755 140.763 9.3246 140.566 9.3246C140.33 9.3246 140.151 9.36225 140.029 9.43756C139.907 9.50346 139.831 9.5976 139.803 9.71997C139.784 9.8047 139.808 9.88471 139.874 9.96002C139.949 10.0353 140.09 10.1012 140.297 10.1577C140.514 10.2142 140.829 10.2707 141.243 10.3272C142.166 10.4401 142.881 10.6378 143.39 10.9202C143.908 11.2026 144.251 11.5698 144.421 12.0216C144.59 12.4641 144.609 12.9912 144.477 13.6031C144.261 14.6292 143.724 15.4106 142.867 15.9471C142.011 16.4743 140.843 16.7379 139.365 16.7379Z" fill="#DDDFE1"/>
<g clip-path="url(#clip0_439_1545)">
<path d="M14.4041 0.772461H13.0179V20.1827C13.0179 20.8311 13.359 21.3668 14.0411 21.7896C14.7232 22.2125 15.5483 22.424 16.5165 22.424C17.4846 22.424 18.3098 22.2125 18.9919 21.7896C19.674 21.3668 20.0151 20.8311 20.0151 20.1827V12.6977C20.9832 12.1621 21.4673 11.4995 21.4673 10.7102V5.29729C21.4673 4.02864 20.7852 2.95735 19.421 2.08339C18.0567 1.20944 16.3845 0.772461 14.4041 0.772461ZM17.2426 20.1827C17.2426 20.4646 17.0006 20.6056 16.5165 20.6056C16.0324 20.6056 15.7904 20.4646 15.7904 20.1827V13.4166H17.2426V20.1827ZM18.6288 10.7102C18.6288 10.9639 18.4968 11.1753 18.2328 11.3445C17.9687 11.5136 17.6387 11.5982 17.2426 11.5982H15.7904V2.76C16.6265 2.92915 17.3086 3.24631 17.8367 3.71148C18.3648 4.17665 18.6288 4.70525 18.6288 5.29729V10.7102ZM0.343872 12.9514V20.1827C0.343872 20.8311 0.684927 21.3668 1.36704 21.7896C2.04915 22.2125 2.87428 22.424 3.84244 22.424C4.81059 22.424 5.63573 22.2125 6.31784 21.7896C6.99995 21.3668 7.341 20.8311 7.341 20.1827V12.9514C7.341 12.3312 6.99995 11.8026 6.31784 11.3656C5.63573 10.9286 4.81059 10.7102 3.84244 10.7102C2.87428 10.7102 2.04915 10.9286 1.36704 11.3656C0.684927 11.8026 0.343872 12.3312 0.343872 12.9514ZM3.11632 12.9514C3.11632 12.6413 3.35836 12.4863 3.84244 12.4863C4.32652 12.4863 4.56855 12.6413 4.56855 12.9514V20.1827C4.56855 20.4646 4.32652 20.6056 3.84244 20.6056C3.35836 20.6056 3.11632 20.4646 3.11632 20.1827V12.9514ZM5.95478 7.07339H4.56855V0.772461H3.11632V7.07339H1.7301V0.772461H0.343872V8.00372H3.11632V10.7102H4.56855V8.00372H7.341V0.772461H5.95478V7.07339Z" fill="#DDDFE1"/>
</g>
<defs>
<clipPath id="clip0_439_1545">
<rect width="21.6515" height="21.6515" fill="white" transform="translate(0.145874 0.772461)"/>
</clipPath>
</defs>
</svg>
